<?xml version="1.0" encoding="utf-8"?>
<!-- Generator: Adobe Illustrator 23.0.2, SVG Export Plug-In . SVG Version: 6.00 Build 0)  -->
<svg version="1.1" id="Calque_1" xmlns="http://www.w3.org/2000/svg" xmlns:xlink="http://www.w3.org/1999/xlink" x="0px" y="0px"
	 viewBox="0 0 280 295" style="enable-background:new 0 0 280 295;" xml:space="preserve">
<style type="text/css">
	.st0{fill:#703FD4;}
	.st1{fill:#FFFFFF;}
</style>
<g>
	<rect class="st0" width="56" height="179"/>
</g>
<rect x="24" y="60" class="st1" width="256" height="235"/>
<path d="M242.6,152.1l-88.2-36c-0.9-0.4-1.8-0.4-2.7,0l-91.2,36c-1.4,0.5-2.3,1.9-2.3,3.3c0,1.5,0.9,2.8,2.2,3.4l43,17.9v36l0,0.2
	c0.1,0.8,3.9,18.4,48.1,18.4c14.6,0,26.5-1.9,35.2-5.7c1-0.4,1.4-1.5,1-2.5c-0.4-1-1.5-1.4-2.5-1c-8.3,3.6-19.6,5.4-33.7,5.4
	c-38.7,0-43.9-13.8-44.4-15.2v-34l42.9,17.9c0.4,0.2,0.9,0.3,1.4,0.3c0.5,0,1-0.1,1.4-0.3l35.7-14.9c1-0.4,1.4-1.5,1-2.5
	c-0.4-1-1.5-1.4-2.5-1l-35.7,14.8L106,173.7c0,0,0,0,0,0l-43.8-18.2l90.8-35.9l87.9,35.9l-42,17.5l-48.3-21c-1-0.4-2.1,0-2.5,1
	c-0.4,1,0,2.1,1,2.5l47.4,20.6c0.1,0.2,0.2,0.3,0.3,0.4v37.8c-3.3,0.8-5.8,3.9-5.8,7.4c0,2.3,1,4.3,2.5,5.7l-3.5,13.2
	c-0.5,1.9,0.2,4,1.9,5.1c1.6,1.1,3.9,1.6,6.7,1.6c3.1,0,5.4-0.7,6.9-2c1.3-1.1,1.9-2.9,1.5-4.6l-3.2-13.4c1.5-1.4,2.5-3.4,2.5-5.6
	c0-3.6-2.5-6.6-5.8-7.4v-38l42-17.5c1.4-0.6,2.2-1.9,2.2-3.4C244.8,154,243.9,152.7,242.6,152.1z M203.4,241.7
	c0.1,0.3,0,0.6-0.2,0.8c-0.5,0.4-1.7,1.1-4.5,1.1c-2.6,0-4-0.5-4.7-1c-0.3-0.2-0.4-0.6-0.3-1l3.3-12.4c0.6,0.1,1.1,0.2,1.7,0.2
	c0.6,0,1.2-0.1,1.8-0.2L203.4,241.7z M202.6,221.8c0,2.2-1.8,3.9-3.9,3.9s-3.9-1.8-3.9-3.9c0-1.5,0.8-2.8,2-3.4v2.2
	c0,1,0.8,1.9,1.9,1.9s1.9-0.8,1.9-1.9v-2.2C201.8,219,202.6,220.3,202.6,221.8z"/>
</svg>
