<?xml version="1.0" encoding="utf-8"?>
<!-- Generator: Adobe Illustrator 23.0.2, SVG Export Plug-In . SVG Version: 6.00 Build 0)  -->
<svg version="1.1" id="Calque_1" xmlns="http://www.w3.org/2000/svg" xmlns:xlink="http://www.w3.org/1999/xlink" x="0px" y="0px"
	 viewBox="0 0 280 295" style="enable-background:new 0 0 280 295;" xml:space="preserve">
<style type="text/css">
	.st0{fill:#703FD4;}
	.st1{fill:#FFFFFF;}
</style>
<g>
	<rect class="st0" width="56" height="179"/>
</g>
<rect x="24" y="60" class="st1" width="256" height="235"/>
<path d="M228.6,131.1h-56.4c-0.6-10.9-9.7-19.6-20.7-19.6s-20.1,8.7-20.7,19.6H74.4c-5.4,0-9.9,4.4-9.9,9.8v39.2V191v55.5h174V191
	v-10.8v-39.2C238.5,135.5,234.1,131.1,228.6,131.1z M151.5,115.8c8.7,0,15.8,6.8,16.4,15.3h-32.8
	C135.7,122.6,142.8,115.8,151.5,115.8z M234.2,242.2H68.8v-39.6c3.3,3.8,8.1,6.2,13.5,6.2h9.1v9.3c0,1.8,0.7,3.5,2,4.8l3.9,3.9
	c0.9,0.9,2.1,1.4,3.4,1.4c1.2,0,2.4-0.5,3.4-1.4l3.7-3.7c1.3-1.3,2-3,2-4.8v-9.5h32.1v6.4c0,2.6,2.1,4.7,4.7,4.7h10.1
	c2.6,0,4.7-2.1,4.7-4.7v-6.4h29v9.3c0,1.8,0.7,3.5,2,4.8l3.9,3.9c0.9,0.9,2.1,1.4,3.4,1.4c1.2,0,2.4-0.5,3.4-1.4l3.7-3.7
	c1.3-1.3,2-3,2-4.8v-9.5h12.2c5.4,0,10.2-2.4,13.5-6.2V242.2z M87.5,174.6c-0.2,0-0.4-0.2-0.4-0.4v-5.9c0-0.2,0.2-0.4,0.4-0.4h26.4
	c0.2,0,0.4,0.2,0.4,0.4v5.9c0,0.2-0.2,0.4-0.4,0.4H87.5z M105.3,178.9v25.5v4.3v9.5c0,0.6-0.3,1.3-0.7,1.7l-3.7,3.7
	c-0.2,0.2-0.4,0.2-0.6,0l-3.9-3.9c-0.5-0.5-0.7-1.1-0.7-1.7v-9.3v-4.3v-25.5H105.3z M146,215.2v-6.4v-4.3v-12.6
	c0-0.2,0.2-0.4,0.4-0.4h10.1c0.2,0,0.4,0.2,0.4,0.4v12.6v4.3v6.4c0,0.2-0.2,0.4-0.4,0.4h-10.1C146.2,215.6,146,215.4,146,215.2z
	 M186.4,174.6c-0.2,0-0.4-0.2-0.4-0.4v-5.9c0-0.2,0.2-0.4,0.4-0.4h26.4c0.2,0,0.4,0.2,0.4,0.4v5.9c0,0.2-0.2,0.4-0.4,0.4H186.4z
	 M204.2,178.9v25.5v4.3v9.5c0,0.6-0.3,1.3-0.7,1.7l-3.7,3.7c-0.2,0.2-0.4,0.2-0.6,0l-3.9-3.9c-0.5-0.5-0.7-1.1-0.7-1.7v-9.3v-4.3
	v-25.5H204.2z M234.2,191c0,7.4-6,13.5-13.5,13.5h-12.2v-25.5h4.3c2.6,0,4.7-2.1,4.7-4.7v-5.9c0-2.6-2.1-4.7-4.7-4.7h-26.4
	c-2.6,0-4.7,2.1-4.7,4.7v5.9c0,2.6,2.1,4.7,4.7,4.7h3.9v25.5h-29v-12.6c0-2.6-2.1-4.7-4.7-4.7h-10.1c-2.6,0-4.7,2.1-4.7,4.7v12.6
	h-32.1v-25.5h4.3c2.6,0,4.7-2.1,4.7-4.7v-5.9c0-2.6-2.1-4.7-4.7-4.7H87.5c-2.6,0-4.7,2.1-4.7,4.7v5.9c0,2.6,2.1,4.7,4.7,4.7h3.9
	v25.5h-9.1c-7.4,0-13.5-6-13.5-13.5v-10.8v-39.2c0-3.1,2.5-5.5,5.5-5.5h56.4h41.6h56.4c3.1,0,5.5,2.5,5.5,5.5v39.2V191z"/>
</svg>
