<?xml version="1.0" encoding="utf-8"?>
<!-- Generator: Adobe Illustrator 23.0.1, SVG Export Plug-In . SVG Version: 6.00 Build 0)  -->
<svg version="1.1" id="Calque_1" xmlns="http://www.w3.org/2000/svg" xmlns:xlink="http://www.w3.org/1999/xlink" x="0px" y="0px"
	 viewBox="0 0 29 29" style="enable-background:new 0 0 29 29;" xml:space="preserve">
<style type="text/css">
	.st0{fill:#010202;}
	.st1{fill:#B6B7B9;}
</style>
<g>
	<path class="st0" d="M0,14.5C0,22.51,6.49,29,14.5,29S29,22.51,29,14.5S22.51,0,14.5,0S0,6.49,0,14.5"/>
	<path class="st1" d="M10.74,20.24c0-0.25,0.1-0.5,0.29-0.7l4.82-5.04l-4.82-5.04c-0.43-0.45-0.38-1.14,0.13-1.52
		c0.5-0.39,1.26-0.34,1.7,0.12l4.85,5.07c0.74,0.77,0.74,1.98,0,2.75l-4.85,5.07c-0.43,0.45-1.19,0.5-1.7,0.12
		C10.88,20.85,10.74,20.55,10.74,20.24"/>
</g>
</svg>
