<?xml version="1.0" encoding="utf-8"?>
<!-- Generator: Adobe Illustrator 23.0.1, SVG Export Plug-In . SVG Version: 6.00 Build 0)  -->
<svg version="1.1" id="Calque_1" xmlns="http://www.w3.org/2000/svg" xmlns:xlink="http://www.w3.org/1999/xlink" x="0px" y="0px"
	 viewBox="0 0 162.6 165.6" style="enable-background:new 0 0 162.6 165.6;" xml:space="preserve">
<style type="text/css">
	.st0{fill:#FFFFFF;}
</style>
<path class="st0" d="M161.1,83c0,44.1-35.7,79.8-79.8,79.8c-44.1,0-79.8-35.7-79.8-79.8S37.2,3.2,81.3,3.2
	C125.4,3.2,161.1,38.9,161.1,83"/>
<g>
	<path d="M93.5,39.2l0.5,1.1c0.4,0.9,0,2-1,2.4L35.5,67.2c-0.9,0.4-2,0-2.4-1l-0.5-1.2l0.1-0.1l60.6-25.7L93.5,39.2z M99,56.4
		L55.2,75l19.9,46.9l43.8-18.6l9.9,23.3l-1.4,3.6L101,141.4l-26.4,11.2l-3.6-1.5L36.8,70.6c0.1,0,0.1,0,0.2-0.1l57.5-24.4
		c0.1,0,0.1,0,0.1-0.1L99,56.4z M117.5,99.9l-40.4,17.2L60,76.9l40.4-17.2L117.5,99.9z M134.1,134.7l-60.9,25.8l-0.5-1.1
		c-0.4-0.9,0-2,1-2.4l57.5-24.4c0.9-0.4,2,0,2.4,1L134.1,134.7z M29.1,56.5l60.6-25.7c1.4-0.6,3.1,0.1,3.7,1.5
		c0.6,1.4-0.1,3.1-1.5,3.7L31.4,61.7c-1.4,0.6-3.1-0.1-3.7-1.5C27,58.7,27.7,57.1,29.1,56.5 M42.5,32.6l21.1-9
		c11.3-4.8,19.4,1.4,22.7,4.6L30.1,52.1C30,47.5,31.2,37.4,42.5,32.6 M35.6,31.6c0-1.8,1.1-3.4,2.8-4.2l24-10.2
		c1.7-0.7,3.7-0.3,5,0.9L35.6,31.6z M38.1,10.1c0-0.1,0.3-0.4,0.6-0.5l2-0.6c2.9-0.9,5.6-2,8.2-3.5l1.8-1c0.3-0.2,0.7-0.2,0.8-0.1
		l4.9,11.5l-13.5,5.7L38.1,10.1z M96.9,30.8c-1.2-2.7-4-4.2-6.8-3.9c-2.2-2.4-8.7-8.7-18.2-8.7l0-0.1C70,14,65.2,12.1,61,13.9
		l-1.3,0.5L54.8,2.9c-0.4-0.9-1.2-1.6-2.2-2c-1.2-0.4-2.6-0.3-3.7,0.4l-1.8,1c-2.4,1.3-4.9,2.4-7.5,3.2l-2,0.6
		c-1.3,0.4-2.3,1.3-2.9,2.4c-0.5,1-0.5,2-0.1,2.9L39.6,23L37,24.1c-4.2,1.8-6.1,6.6-4.4,10.8l0.1,0.2c-6.3,6.8-6.4,15.5-6.2,18.8
		c-2.4,1.7-3.4,5-2.2,7.8c0.8,2,2.6,3.3,4.5,3.8l1,2.3c0.6,1.4,1.7,2.4,3.1,2.9l35.3,83.3l2.3,1c-1.5,1.5-2.1,3.9-1.2,6l1.9,4.5
		l67.6-28.7l-1.9-4.5c-0.9-2.1-3-3.3-5.1-3.3l0.9-2.3l-10.4-24.6L102.4,55l-5-11.8c0.6-1.3,0.6-2.8,0-4.2l-1-2.3
		C97.5,34.9,97.7,32.8,96.9,30.8"/>
	<g>
		<g>
			<path d="M47.9,14.5c-0.9,0.4-1.9,0-2.3-0.9c-0.4-0.9,0-1.9,0.9-2.3c0.9-0.4,1.9,0,2.3,0.9C49.2,13,48.7,14.1,47.9,14.5 M46,10
				c-1.6,0.7-2.3,2.5-1.7,4.1s2.5,2.3,4.1,1.6c1.6-0.7,2.3-2.5,1.7-4.1C49.4,10.1,47.6,9.3,46,10"/>
			<path d="M47,12.5c-0.2,0.1-0.3,0.3-0.2,0.4c0.1,0.2,0.3,0.3,0.4,0.2c0.2-0.1,0.3-0.3,0.2-0.4C47.4,12.5,47.2,12.5,47,12.5"/>
		</g>
		<g>
			<path d="M42.6,70.3c-0.9,0.4-1.4,1.5-1,2.4l4.6,10.8c0.4,0.9,1.5,1.3,2.4,1c0.9-0.4,1.4-1.5,1-2.4L45,71.3
				C44.6,70.4,43.5,69.9,42.6,70.3"/>
			<path d="M50,87.8c-0.9,0.4-1.4,1.5-1,2.4l10.5,24.8c0.4,0.9,1.5,1.3,2.4,1c0.9-0.4,1.4-1.5,1-2.4L52.4,88.8
				C52,87.9,51,87.5,50,87.8"/>
			<polygon points="94.8,96.9 98.4,96.8 98.3,85.6 89.8,76.5 87.1,78.9 94.7,87 			"/>
			<polygon points="83.9,101.5 87.5,101.5 87.4,90.2 78.9,81.1 76.2,83.6 83.8,91.7 			"/>
		</g>
	</g>
</g>
</svg>
