<?xml version="1.0" encoding="utf-8"?>
<!-- Generator: Adobe Illustrator 23.0.1, SVG Export Plug-In . SVG Version: 6.00 Build 0)  -->
<svg version="1.1" id="Calque_1" xmlns="http://www.w3.org/2000/svg" xmlns:xlink="http://www.w3.org/1999/xlink" x="0px" y="0px"
	 viewBox="0 0 183.9 179.8" style="enable-background:new 0 0 183.9 179.8;" xml:space="preserve">
<style type="text/css">
	.st0{fill:#FFFFFF;}
	.st1{fill:none;}
</style>
<g>
	<path class="st0" d="M170.5,87.1c0,44.1-35.7,79.8-79.8,79.8c-44.1,0-79.8-35.7-79.8-79.8S46.6,7.3,90.7,7.3
		C134.8,7.3,170.5,43,170.5,87.1"/>
	<g>
		<path d="M170.6,112h-15.4c-0.1-1.6-0.3-3.3-0.5-5.2c-0.6-6.5-2.3-13-5-19.1l-2.3-5.4c3.2-2.8,5.2-7,5.2-11.5V27.5
			c0-4.7-3.8-8.5-8.5-8.5h-34.3c-0.5-9.4-8.3-16.9-17.9-16.9S74.3,9.6,73.8,19h-34c-4.7,0-8.5,3.8-8.5,8.5v43.3
			c0,4.5,2,8.8,5.2,11.5l-2.3,5.4c-2.5,6.1-4.2,12.6-5,19.1c-0.2,1.9-0.3,3.6-0.5,5.2H13.4c-6,0-10.9,4.9-10.9,10.9v7.3v3.7V156
			c0,5.4,4.3,9.7,9.7,9.7h16.1v0.5c0,6.3,5.2,11.5,11.5,11.5h104.5c6.3,0,11.5-5.2,11.5-11.5v-0.5h16.1c5.4,0,9.7-4.3,9.7-9.7v-22.2
			v-3.7v-7.3C181.6,116.9,176.6,112,170.6,112z M92.1,5.8c7.5,0,13.6,5.8,14.1,13.2H77.8C78.3,11.6,84.6,5.8,92.1,5.8z M35.1,70.8
			V27.5c0-2.6,2.1-4.7,4.7-4.7H74l0,0h35.9l0,0h34.3c2.6,0,4.7,2.1,4.7,4.7v43.3c0,6.4-5.3,11.6-11.6,11.6h-6.1v-5.5h3.2
			c2.2,0,4.1-1.8,4.1-4.1v-5.1c0-2.2-1.8-4.1-4.1-4.1h-22.8c-2.2,0-4.1,1.8-4.1,4.1v5.1c0,2.2,1.8,4.1,4.1,4.1h3.9v5.6H71.8v-5.6H75
			c2.2,0,4.1-1.8,4.1-4.1v-5.1c0-2.2-1.8-4.1-4.1-4.1H52.1c-2.2,0-4.1,1.8-4.1,4.1v5.1c0,2.2,1.8,4.1,4.1,4.1H56v5.6h-9.3
			C40.3,82.4,35.1,77.2,35.1,70.8z M49.1,135c1.8,1.7,4.1,2.7,6.6,3v7.3c0,1.6,0.6,3.1,1.7,4.1l3.4,3.4c0.7,0.7,1.8,1.2,2.8,1.2
			s2.1-0.4,2.8-1.2l3.2-3.2c1.1-1.1,1.7-2.5,1.7-4.1V138h43.7v7.2c0,1.6,0.6,3.1,1.7,4.1l3.4,3.4c0.7,0.7,1.8,1.2,2.8,1.2
			c1.1,0,2.1-0.4,2.8-1.2l3.2-3.2c1.1-1.1,1.7-2.5,1.7-4.1v-7.5c2.2-0.4,4.1-1.4,5.7-2.8v21c0,4.2-3.5,7.7-7.7,7.7H56.8
			c-4.2,0-7.7-3.5-7.7-7.7V135z M127.5,82.4v3.7v11.7h-8.3V86.2v-3.7v-5.6h8.3V82.4z M115.5,73.1h-3.9c-0.2,0-0.3-0.2-0.3-0.3v-5.1
			c0-0.2,0.2-0.3,0.3-0.3h22.8c0.2,0,0.3,0.2,0.3,0.3v5.1c0,0.2-0.2,0.3-0.3,0.3h-3.2H115.5z M115.5,98H112c-2.2,0-4.1,1.8-4.1,4.1
			v5.1c0,2.2,1.8,4.1,4.1,4.1h3.4v0.7H71.6v-0.7h3.7c2.2,0,4.1-1.8,4.1-4.1v-5.1c0-2.2-1.8-4.1-4.1-4.1h-3.5V86.2h43.7
			C115.5,86.2,115.5,98,115.5,98z M59.6,111.2h8.3v0.7v3.7v18.5v3.7v7.4c0,0.5-0.2,1.1-0.6,1.5l-3.2,3.2c-0.1,0.1-0.2,0.1-0.2,0.1
			c-0.1,0-0.2,0-0.2-0.1l-3.4-3.4c-0.4-0.4-0.6-0.9-0.6-1.5v-7.2v-3.7v-18.5V112v-0.7H59.6z M71.6,115.8h43.7v18.5H71.6V115.8z
			 M127.3,112v3.7v18.5v3.7v7.4c0,0.5-0.2,1.1-0.6,1.5l-3.2,3.2c-0.1,0.1-0.2,0.1-0.2,0.1s-0.2,0-0.2-0.1l-3.4-3.4
			c-0.4-0.4-0.6-0.9-0.6-1.5v-7.2v-3.7v-18.5V112v-0.7h8.3v0.7H127.3z M59.8,86.2v-3.7v-5.6h8.3v5.6v3.7v11.7h-8.3V86.2z M56,73.1
			h-3.9c-0.2,0-0.3-0.2-0.3-0.3v-5.1c0-0.2,0.2-0.3,0.3-0.3h22.8c0.2,0,0.3,0.2,0.3,0.3v5.1c0,0.2-0.2,0.3-0.3,0.3h-3.2H56z
			 M75.3,101.7c0.2,0,0.3,0.2,0.3,0.3v5.1c0,0.2-0.2,0.3-0.3,0.3H52.5c-0.2,0-0.3-0.2-0.3-0.3V102c0-0.2,0.2-0.3,0.3-0.3H75.3z
			 M55.8,134.1c-3.8-0.5-6.6-3.8-6.6-7.7v-3.1c0-3.9,3-7.2,6.6-7.7V134.1z M136.8,126.5c0,3.6-2.4,6.5-5.7,7.5v-17.9
			c3.3,0.8,5.7,3.9,5.7,7.5V126.5z M111.9,107.5c-0.2,0-0.3-0.2-0.3-0.3v-5.1c0-0.2,0.2-0.3,0.3-0.3h22.8c0.2,0,0.3,0.2,0.3,0.3v5.1
			c0,0.2-0.2,0.3-0.3,0.3H111.9z M6.3,122.9c0-3.9,3.2-7.2,7.2-7.2h14.9v7.1v7.5H6.3V122.9z M12.2,162.1c-3.3,0-5.9-2.6-5.9-5.9V134
			h22.1v28.1H12.2z M152,166.4c0,4.2-3.5,7.7-7.7,7.7H39.8c-4.2,0-7.7-3.5-7.7-7.7v-0.5v-32v-3.7v-7.5v-0.1l0,0
			c-0.1-2.5,0.2-7.9,0.9-15.4c0.6-6.2,2.2-12.2,4.6-18l2-4.7c2.1,1.1,4.5,1.7,7,1.7H56V98h-3.5c-2.2,0-4.1,1.8-4.1,4.1v5.1
			c0,2.2,1.8,4.1,4.1,4.1h3.4v0.7c-5.8,0.5-10.4,5.5-10.4,11.4v3.1c0,0.2,0,0.4,0,0.6l0,0V156c0,6.3,5.2,11.5,11.5,11.5h72.2
			c6.3,0,11.5-5.2,11.5-11.5v-28.8l0,0c0-0.2,0-0.4,0-0.6v-3.1c0-5.6-4.1-10.3-9.5-11.3v-0.9h3.7c2.2,0,4.1-1.8,4.1-4.1V102
			c0-2.2-1.8-4.1-4.1-4.1h-3.5V86.2h6.1c2.5,0,5-0.6,7-1.7l2,4.7c2.4,5.7,4,11.8,4.6,18c0.7,7.6,1.2,12.9,0.9,15.4l0,0v0.1v7.5v3.7
			v31.9L152,166.4L152,166.4z M177.8,156.2c0,3.3-2.6,5.9-5.9,5.9h-16.1v-28.2h22.1L177.8,156.2L177.8,156.2z M155.7,130.2v-7.5
			v-7.1h14.9c3.9,0,7.2,3.2,7.2,7.2v7.3h-22.1V130.2z"/>
		<path d="M81.5,57.3c2.8,2.4,6.5,3.8,10.6,3.8s7.7-1.5,10.6-3.8c0.3-0.3,0.7-0.6,1.1-0.9c3-3,4.7-7.1,4.7-11.6s-1.8-8.7-4.7-11.6
			c-0.3-0.3-0.7-0.6-1.1-0.9c-2.8-2.4-6.5-3.8-10.6-3.8s-7.7,1.5-10.6,3.8c-0.3,0.3-0.7,0.6-1.1,0.9c-3,3-4.9,7.1-4.9,11.6
			s1.9,8.7,4.9,11.6C80.8,56.8,81.2,57.1,81.5,57.3z M97.2,58.2c0.8-1.1,1.5-2.2,2.1-3.7c0.8,0.4,1.5,0.8,1.9,1.4
			C100.1,56.9,98.7,57.7,97.2,58.2z M102.6,54.7c-0.6-0.7-1.5-1.4-2.6-1.8c0.6-2.1,1.1-4.5,1.2-7.1h5.4
			C106.2,49.2,104.8,52.2,102.6,54.7z M102.6,34.9c2.2,2.3,3.6,5.5,3.9,8.9h-5.4c-0.1-2.5-0.4-5-1.2-7.1
			C101.1,36.3,102,35.7,102.6,34.9z M101.2,33.7c-0.4,0.5-1.1,0.9-1.9,1.4c-0.6-1.4-1.3-2.6-2.1-3.7
			C98.7,31.9,100.1,32.6,101.2,33.7z M93,30.5c1.8,0.5,3.5,2.4,4.6,5.3c-1.3,0.4-2.8,0.6-4.6,0.7V30.5z M93,38.3
			c1.9-0.1,3.7-0.4,5.3-0.8c0.5,1.9,0.9,4.1,1.1,6.3h-6.2v-5.5H93z M93,45.7h6.2c-0.1,2.3-0.4,4.4-1.1,6.3c-1.6-0.5-3.3-0.8-5.3-0.8
			v-5.5H93z M93,53.2c1.7,0.1,3.3,0.3,4.6,0.7c-1.2,2.7-2.7,4.7-4.6,5.3V53.2z M82.9,55.9c0.4-0.5,1.1-0.9,1.8-1.4
			c0.6,1.4,1.3,2.6,2.1,3.7C85.3,57.7,84,57,82.9,55.9z M91.1,59.1c-1.8-0.5-3.5-2.4-4.6-5.2c1.3-0.4,2.8-0.7,4.6-0.7V59.1z
			 M91.1,51.3c-1.9,0.1-3.7,0.4-5.3,0.8c-0.5-1.9-0.9-4.1-1.1-6.3H91v5.5H91.1z M91.1,43.8h-6.2c0.1-2.3,0.4-4.4,1.1-6.3
			c1.6,0.5,3.3,0.8,5.3,0.8v5.5H91.1z M91.1,30.5v6c-1.7-0.1-3.3-0.3-4.6-0.7C87.6,32.9,89.2,30.9,91.1,30.5z M86.8,31.3
			c-0.8,0.9-1.5,2.2-2.1,3.7c-0.8-0.4-1.4-0.8-1.8-1.4C84,32.6,85.3,31.9,86.8,31.3z M81.5,34.9c0.6,0.7,1.5,1.4,2.5,1.8
			c-0.6,2.1-1.1,4.5-1.2,7.1h-5.4C77.8,40.4,79.3,37.2,81.5,34.9z M82.9,45.7c0.1,2.5,0.5,5,1.2,7.1c-1.1,0.5-1.9,1.2-2.5,1.8
			c-2.2-2.3-3.7-5.5-3.9-9h5.3V45.7z"/>
		<path d="M100.6,119.9H83.5c-1.1,0-1.9,0.8-1.9,1.9s0.8,1.9,1.9,1.9h6.6v4.3c0,1.1,0.8,1.9,1.9,1.9c1.1,0,1.9-0.8,1.9-1.9v-4.3h6.6
			c1.1,0,1.9-0.8,1.9-1.9C102.4,120.7,101.6,119.9,100.6,119.9z"/>
	</g>
	<rect x="2.1" y="2.1" class="st1" width="179.5" height="175.6"/>
</g>
</svg>
