<?xml version="1.0" encoding="utf-8"?>
<!-- Generator: Adobe Illustrator 23.0.1, SVG Export Plug-In . SVG Version: 6.00 Build 0)  -->
<svg version="1.1" id="Calque_1" xmlns="http://www.w3.org/2000/svg" xmlns:xlink="http://www.w3.org/1999/xlink" x="0px" y="0px"
	 viewBox="0 0 175.4 160.2" style="enable-background:new 0 0 175.4 160.2;" xml:space="preserve">
<style type="text/css">
	.st0{fill:#FFFFFF;}
</style>
<path class="st0" d="M164.3,80.4c0,44.1-35.7,79.8-79.8,79.8c-44.1,0-79.8-35.7-79.8-79.8S40.4,0.5,84.5,0.5
	C128.6,0.5,164.3,36.3,164.3,80.4"/>
<g>
	<path d="M171.8,117.4l-2.9-5.6c-1.2-2.3-3.5-3.9-6.1-4c-6.5-0.4-22.8-2-33.9-8.1l-5.4-2.6c-0.8-1.4-3.5-5.3-7.2-6.7
		c-3.4-1.3-6.2-2.3-7.1-2.5c-6.3-4.4-22.5-16-25.7-20.1c-0.4-0.7-3.3-5.6-6.3-10.4c-6.7-11.3-7-11.3-8-11.4h-0.1
		c-0.5-0.1-1.9-0.2-3.3,0.9c-2.1,1.8-3.5,5.9-4.3,12.6c-1.1,1-5.4,4.3-14.5,5.7c-11.3,1.7-14.8-1.4-17.2-4.4c-0.5-0.6-1-1.3-1.6-2.1
		c-2.4-3.4-5.1-7.2-8.2-6.3c-1.4,0.4-2.4,1.6-2.6,3.2c-0.4,3.7-2.3,16.8-8.7,32.3c-6.2,15.3-5.6,24.5-5.1,27.5c-1,1.2-2.5,3.7-2.5,9
		c0,0.4,0,0.8,0,1.2c0,4.7-0.1,10.6,3.4,14.2c2,2.1,4.9,3.1,8.6,3.1c3.4,0,11.1,0.5,20.9,1.1c18.6,1.1,45.1,2.7,67.5,2.7
		c4.6,0,9.1-0.1,13.3-0.2c34.9-1.3,41.8-2.6,56.2-10.4c1.1-0.4,4.4-2,4.4-9C175.5,119.4,172.2,117.6,171.8,117.4z M164.6,111.6
		c0.6,0.4,1.2,1,1.5,1.7l2.5,4.8c-1.4,1.2-6,4-19.8,4c-9.6,0-16.1,2.1-20.3,4.2c-0.5,0.2-1.2,0.6-2,1.2c-2.2,1.4-3.4,2.7-4.1,3.4
		c-4.7,0.7-10.9-0.4-16.4-1.9c1.6-3.5,6.1-9.5,17.7-10.4c1.7-0.1,3.4-0.2,5.1-0.4C144.4,117.1,158,116.2,164.6,111.6z M125.5,101.7
		c1.4,1.2,2.7,3.2,2.5,4c-0.1,0.3-0.7,0.5-0.9,0.6c-0.4,0.1-0.7,0.1-1-0.1c-1-0.7-1.9-3-2.4-5.4L125.5,101.7z M82.8,71.7
		c5.8,5.5,19.8,15.4,23.8,18.2c-2,1.1-4.9,2.9-6.9,5c-2.3,2.4-6.2,0.7-6.2,0.7h-0.1c-0.1,0-10.4-4.1-17.1-7.9
		c-2.8-1.6-4.3-2.5-5-3.2c-0.3-0.4-0.4-0.4-0.4-1.2c0-0.3,0-0.6-0.1-1c0.3-1.3,5.1-4.6,7.1-6.1c1.1-0.8,2.2-1.5,3-2.1
		C81.8,73.4,82.5,72.5,82.8,71.7z M67.7,49.5c0.3-0.2,0.5-0.3,0.7-0.3c0.8,1,2.7,4,5,7.7c-2.8,0-5.6,0.9-8.7,2.7
		C65.5,52,67.1,50,67.7,49.5z M20.6,56.3c0-0.5,0.1-0.7,0.2-0.7c1-0.3,3.7,3.5,4.8,5.1c0.6,0.8,1.1,1.6,1.7,2.3
		c3.1,4,7.7,7.4,20.1,5.6c3.2-0.5,5.8-1.2,8-1.9c-1,0.9-2,1.8-3,2.8c-0.5,0.5-0.9,0.9-1.4,1.3h-0.9l-10.7,0.5
		c-3.7,0.2-7.2-0.7-10.3-2.5C21.8,64.5,21,57.7,21,57.4l-0.6,0.1C20.5,57,20.5,56.6,20.6,56.3z M27.5,71.4c3.3,1.9,7.1,3,11,3
		c0.3,0,0.6,0,1,0l7.7-0.3c-6.5,5.7-8.3,5.6-15.5,4.9c-7.6-0.7-11.5-13.5-12.2-16.1C20.8,65.6,23.2,68.9,27.5,71.4z M18.2,68.9
		c2.2,5.3,6.4,12.7,13.3,13.3c2,0.2,3.6,0.3,5.1,0.3c5.8,0,8.6-2,17.9-10.8c10.9-10.3,16.2-12.2,21-11.4c1.5,2.6,3.1,5.2,4.5,7.6
		c0.2,0.4,0.9,2.1-0.9,3.6c-0.7,0.5-1.7,1.3-2.8,2c-5.4,3.7-8.9,6.3-8.5,9.2c0,0.3,0.1,0.6,0.1,0.9c0.2,2.9,1.1,3.8,7,7.1
		c6.8,3.8,16.7,7.8,17.5,8.1c0.3,0.1,2.1,0.9,4.2,0.9c1.8,0,3.8-0.5,5.5-2.3c2.9-3,8.2-5.5,8.3-5.5l-0.1-0.1c1.3,0.4,3.1,1.1,5,1.8
		c2.1,0.8,3.9,2.9,4.9,4.3c0.2,2.2,1.1,9,4.3,11.2c0.7,0.5,1.5,0.7,2.3,0.7c0.5,0,0.9-0.1,1.4-0.2c2.1-0.7,2.8-2,3-3
		c0.1-0.7,0.1-1.4-0.1-2.1c9.5,4.2,21.2,5.8,28.2,6.5c-6.9,2.6-18.5,3.4-30.7,4.3c-1.7,0.1-3.4,0.2-5.1,0.4
		c-9.7,0.7-15,4.8-17.7,8.2c-1.3,1.6-2.2,3.3-2.8,4.6c-4.5-1.4-8.2-3-9.8-3.8c-1.1-0.5-3.5-0.6-10.9-0.8c-3.7-0.1-8.2-0.2-12.8-0.4
		c-1.4-2.6-6.6-9.9-25.4-25.1c-16.7-13.9-25.4-17-29.3-17.5C16.3,76.5,17.4,72.4,18.2,68.9z M11.7,89.2c0.7-1.7,1.4-3.5,2-5.1
		c2.3,0.1,10.3,1.8,28.6,16.6C57.5,113,63.4,119.8,65.7,123c-5.8-0.4-11.5-1.1-15.9-2.2c-12.6-3.4-37.3-5.7-43.1-6.3
		C6.3,111.6,6,103.1,11.7,89.2z M4.2,124.2c0-4.3,1.1-6.1,1.6-6.7c4.4,0.4,30.4,2.8,43.1,6.2c9.2,2.5,23.7,2.8,33.3,3
		c4.3,0.1,8.8,0.2,9.6,0.5c0.8,0.4,15.6,7.1,27.2,7.1c0.5,0,0.9,0,1.4,0c0,0.2-0.1,0.4-0.2,0.5c-5.2,1.7-23.4,2-32.9,0.5
		c-8.1-1.3-21.6-2.6-25.8-3c-0.2-0.6-0.4-1.1-0.8-1.6c-0.7-0.9-1.8-1.5-2.9-1.6l-22.1-1.9c-1.1-0.1-2.2,0.3-3.1,1
		c-0.4,0.3-0.7,0.7-0.9,1.1c-5.3-0.8-10.3-1.2-15.1-1.5c-7.5-0.4-11.2-2.4-12.4-3.3C4.2,124.4,4.2,124.3,4.2,124.2z M58.5,133.7
		l-0.1,1.2c-0.1,0.6-0.6,1.1-1.2,1L35.1,134c-0.3,0-0.6-0.2-0.8-0.4c-0.2-0.2-0.3-0.5-0.3-0.8l0.1-1.2c0-0.3,0.2-0.6,0.4-0.8
		s0.5-0.3,0.8-0.3l22.1,1.9C58.1,132.5,58.6,133.1,58.5,133.7z M116.4,143c-0.6,0.2-1.2,0.2-1.7,0.2c-24.2,0.9-58.1-1.1-80.5-2.5
		c-9.8-0.6-17.6-1.1-21.1-1.1c-2.9,0-5-0.7-6.4-2.2c-2-2.1-2.4-5.5-2.5-9c2.3,1.2,6.1,2.5,12.2,2.8c4.6,0.2,9.4,0.7,14.5,1.4
		c-0.1,1.1,0.3,2.2,1,3.1s1.8,1.5,2.9,1.6l22.2,1.9c0.1,0,0.2,0,0.4,0c2,0,3.8-1.5,4.2-3.6c4.5,0.4,17.4,1.6,25.3,2.9
		c4.4,0.7,10.6,1.1,16.7,1.1c5.7,0,11.2-0.3,14.8-1.1C117.7,139.9,117.1,141.4,116.4,143z M170.2,132.9l-0.6,0.4
		c-13.3,7.2-19.9,8.4-49.9,9.7c3.3-7.8,6.5-11.3,8.6-12.7c0.5-0.3,1-0.6,1.6-0.9c0.2-0.1,0.4-0.1,0.4-0.1v-0.1
		c3.8-1.9,9.7-3.7,18.5-3.7c14.2,0,19.8-2.9,21.9-4.8c0.6,0.6,1.6,2.3,1.6,6.4C172.3,131.9,170.4,132.8,170.2,132.9z"/>
	<path d="M107.5,102.3c0.7,0,1.4-0.6,1.4-1.4c0-0.8-0.6-1.4-1.4-1.4c-0.7,0-1.4,0.6-1.4,1.4C106.1,101.7,106.7,102.3,107.5,102.3z"
		/>
	<circle cx="112.1" cy="96.2" r="1.4"/>
	<path d="M116.7,100.9c0.7,0,1.4-0.6,1.4-1.4s-0.6-1.4-1.4-1.4c-0.7,0-1.4,0.6-1.4,1.4S116,100.9,116.7,100.9z"/>
	<path d="M116.7,106.7c0.7,0,1.4-0.6,1.4-1.4c0-0.8-0.6-1.4-1.4-1.4c-0.7,0-1.4,0.6-1.4,1.4C115.4,106.1,116,106.7,116.7,106.7z"/>
	<path d="M57,82.3c0.2,0.1,0.5,0.2,0.8,0.2c0.5,0,1.1-0.3,1.4-0.8c3.7-6.7,9.3-10.5,11.7-11.8l1.2,1.7c0.3,0.4,0.8,0.7,1.3,0.7
		c0.3,0,0.7-0.1,0.9-0.3c0.7-0.5,0.8-1.6,0.3-2.3l-4.1-5.8C70,63.2,69,63,68.3,63.6c-0.7,0.5-0.8,1.6-0.3,2.3l0.9,1.3
		c-2.9,1.7-8.6,5.7-12.5,12.9C56,80.9,56.2,81.9,57,82.3z"/>
</g>
</svg>
