<?xml version="1.0" encoding="utf-8"?>
<!-- Generator: Adobe Illustrator 23.0.1, SVG Export Plug-In . SVG Version: 6.00 Build 0)  -->
<svg version="1.1" id="Calque_1" xmlns="http://www.w3.org/2000/svg" xmlns:xlink="http://www.w3.org/1999/xlink" x="0px" y="0px"
	 viewBox="0 0 175.5 217" style="enable-background:new 0 0 175.5 217;" xml:space="preserve">
<style type="text/css">
	.st0{fill:#FFFFFF;}
</style>
<path class="st0" d="M166.6,130.8c0,44.1-35.7,79.8-79.8,79.8c-44.1,0-79.8-35.7-79.8-79.8s35.7-79.8,79.8-79.8
	C130.8,50.9,166.6,86.7,166.6,130.8"/>
<g>
	<rect x="42" y="200" width="102.1" height="3.7"/>
	<rect x="53.3" y="211.5" width="69.9" height="3.7"/>
	<rect x="158.1" y="189.4" width="10.4" height="3.7"/>
	<rect x="22.6" y="200" width="10.4" height="3.7"/>
	<path d="M152.9,76.1c-4,6.8-10.1,10.2-18.2,10.2H94.3H82.1H41.7c-15.9,0-20.4-13.3-21.5-18.6h10.3c0.5,1.6,1.7,3.5,4.4,5.3
		c2.8,1.8,6.1,2.7,9.6,2.7h19.2h49h19.2c3.5,0,6.8-0.9,9.6-2.7c2.7-1.8,3.9-3.6,4.4-5.3h10.3C155.7,69.8,154.8,73,152.9,76.1
		 M137.7,90v7h-5.3h-21.6H96.1H80.2H65.5H43.9h-5.3v-7h3.1h40.4h12.2h40.4H137.7z M128.7,104.9h-5.4l3.4,39.4l-2.9-1.2l-3.4,1.2
		l-1.1-39.7h-4.9v-3.9h14.3V104.9z M131.8,124v4.2H129l-0.4-4.2H131.8z M130.6,189.4h-9l-1.1-41.2l3.2-1.2l3.4,1.4L130.6,189.4z
		 M49.2,148.4l3.4-1.4l3.2,1.2l-1.1,41.2h-9L49.2,148.4z M60.1,124h56.1l0.1,4.2H60L60.1,124z M113.2,150.8l3.7-1.3l1.1,39.9H58.3
		l1.1-39.9l3.7,1.3l1.2-3.5l-4.8-1.7l0.4-13.8h56.5l0.4,13.8l-4.8,1.7L113.2,150.8z M96.1,115.9v-15.2h14.7v7.5h5l0.3,12H60.2
		l0.3-12h5v-7.5h14.7v15.2H96.1z M83.9,100.7h8.5v11.5h-8.5V100.7z M53,104.9h-5.4v-4.1h14.3v3.9H57l-1.1,39.7l-3.4-1.2l-2.9,1.2
		L53,104.9z M44.5,128.2V124h3.2l-0.4,4.2H44.5z M160.4,64.1h-18v1.8c0,1.4-1,2.7-2.9,4c-2.2,1.4-4.8,2.2-7.6,2.2h-19.2h-49H44.5
		c-2.8,0-5.4-0.7-7.6-2.2c-2-1.3-2.9-2.6-2.9-4v-1.8H16l0.2,2c0,0.2,0.7,6,4.1,11.9c2.5,4.3,7,9.3,14.7,11.2v11.5h8.9v7.8h5l-1,11.8
		H36.8v3.7h4v7.9H47l-1.2,14l-3.8,1.6l1.4,3.4l2.1-0.8L42,189.4H25.3v3.7h125.9v-3.7h-16.8L131,150l2.1,0.8l1.4-3.4l-3.8-1.6
		l-1.2-14h6.1v-7.9h4v-3.7h-11.1l-1-11.8h5v-7.8h8.9V89.2c7.7-1.9,12.2-6.9,14.7-11.3c3.4-5.8,4.1-11.6,4.1-11.9L160.4,64.1z"/>
	<path d="M130.4,8.9c8.6,0,15.7,7,15.7,15.7c0,8.6-7,15.7-15.7,15.7s-15.7-7-15.7-15.7C114.7,15.9,121.8,8.9,130.4,8.9 M130.4,43.9
		c10.7,0,19.3-8.7,19.3-19.3c0-10.7-8.7-19.3-19.3-19.3s-19.3,8.7-19.3,19.3C111.1,35.2,119.7,43.9,130.4,43.9"/>
</g>
</svg>
