<?xml version="1.0" encoding="utf-8"?>
<!-- Generator: Adobe Illustrator 23.0.1, SVG Export Plug-In . SVG Version: 6.00 Build 0)  -->
<svg version="1.1" id="Calque_1" xmlns="http://www.w3.org/2000/svg" xmlns:xlink="http://www.w3.org/1999/xlink" x="0px" y="0px"
	 viewBox="0 0 175.5 165" style="enable-background:new 0 0 175.5 165;" xml:space="preserve">
<style type="text/css">
	.st0{fill:#FFFFFF;}
</style>
<path class="st0" d="M173,82.5c0,44.1-35.7,79.8-79.8,79.8c-44.1,0-79.8-35.7-79.8-79.8S49.1,2.7,93.2,2.7
	C137.3,2.7,173,38.4,173,82.5"/>
<g>
	<path d="M60.1,90.5c-4.4-1.5-6.8-6.4-5.3-10.8c1.5-4.4,6.4-6.8,10.8-5.3c4.4,1.5,6.8,6.4,5.3,10.8C69.4,89.6,64.5,92,60.1,90.5
		 M66.7,71.3c-6.2-2.1-12.9,1.2-15,7.3c-2.1,6.2,1.2,12.9,7.3,15c6.2,2.1,12.9-1.2,15-7.3C76.2,80.1,72.9,73.4,66.7,71.3"/>
	<path d="M136.8,153.8c-5.2,2-9.5-0.5-9.7-0.6l-0.1-0.1c-0.1-0.1-9.9-5.5-6.1-37.7l0,0c0.2-1.4-1.3-2.4-2.5-1.6
		c-5.1,3.1-9.5,3.9-13.8,2.4c-8.5-2.9-13.4-11.3-10.9-18.6l1.3-3.7l-2.8-0.9l-11.9-4.1l-2.8-0.9l-1.3,3.7c-2.5,7.3-11.5,10.9-20,8
		c-4.3-1.5-7.3-4.8-9.4-10.4c-0.5-1.3-2.3-1.5-3-0.3l0,0c-16.9,27.7-27.9,26-28,25.9l-0.2,0c-0.2,0-5.1-0.8-8-5.5
		c-3-4.9-2.9-12.2,0.4-21.8c6.7-19.4,17.3-41.5,23.1-53c3.2-6.3,8-11.5,13.9-14.9c6.3-3.6,12.4-4.5,18.3-2.8
		c12,3.6,19.2,17.3,19.3,17.4l0.3,0.6l39.7,13.7l0.6,0.2l0.6-0.3c0.1-0.1,14.2-6.5,25.9-1.8c5.7,2.2,10,6.8,12.7,13.5
		c2.6,6.3,3.2,13.3,1.8,20.3c-2.5,12.6-7.7,36.6-14.4,56C146.6,146,142.2,151.8,136.8,153.8 M167.6,81.1c1.5-7.6,0.8-15.3-2-22.2
		c-3.1-7.6-8-12.7-14.6-15.3c-11.7-4.6-24.8,0.4-27.9,1.7l-37.8-13c-1.6-2.9-8.9-14.9-20.9-18.5c-6.8-2-13.8-1-20.9,3.1
		c-6.5,3.7-11.7,9.3-15.2,16.3C22.5,44.7,11.7,66.9,5,86.5c-3.6,10.6-3.7,18.9-0.1,24.7c3.6,5.8,9.5,6.9,10.3,7
		c0.7,0.1,4,0.6,9.3-2.5c6.6-3.8,13.5-11.3,20.5-22.3c2.4,4.8,5.7,7.9,10.1,9.4c10.3,3.5,21.1-1,24.3-10.1l0.2-0.6L90.8,96l-0.2,0.6
		c-3.1,9.1,2.7,19.4,12.9,22.9c4.4,1.5,8.9,1.1,13.7-1.2c-1.2,13-0.4,23.2,2.5,30.2c2.3,5.6,5.2,7.4,5.8,7.7
		c0.2,0.1,0.9,0.5,2.1,0.9c2.3,0.8,6.1,1.5,10.4-0.1c6.4-2.4,11.5-8.9,15.1-19.5C159.8,117.9,165,93.7,167.6,81.1"/>
	<path d="M107.2,106.7c-4.4-1.5-6.8-6.4-5.3-10.8c1.5-4.4,6.4-6.8,10.8-5.3c4.4,1.5,6.8,6.4,5.3,10.8
		C116.5,105.9,111.6,108.2,107.2,106.7 M113.8,87.5c-6.2-2.1-12.9,1.2-15,7.3c-2.1,6.2,1.2,12.9,7.3,15c6.2,2.1,12.9-1.2,15-7.3
		S120,89.6,113.8,87.5"/>
	<path d="M65.7,52.8l-6.9-2.4l-3.2-1.1l-1.1,3.2l-2.4,6.9l-5.2-1.8l2.4-6.9l1.1-3.2l-3.2-1.1l-6.9-2.4l1.8-5.2l6.9,2.4l3.1,1.1
		l1.1-3.2l2.4-6.9l5.2,1.8l-2.4,6.9l-1.1,3.2l3.1,1.1l6.9,2.4L65.7,52.8z M71.8,45.6l-10-3.4l3.4-10l-11.5-4l-3.4,10l-10-3.4
		l-4,11.5l10,3.4l-3.4,10l11.5,4l3.4-10l10,3.4L71.8,45.6z"/>
	<path d="M133.2,91.3c-2-0.7-3.1-2.9-2.4-4.9s2.9-3.1,4.9-2.4c2,0.7,3.1,2.9,2.4,4.9C137.4,90.9,135.2,92,133.2,91.3 M136.5,81.6
		c-3.3-1.1-6.9,0.6-8.1,3.9c-1.1,3.3,0.6,6.9,3.9,8.1c3.3,1.1,6.9-0.6,8.1-3.9S139.9,82.8,136.5,81.6"/>
	<path d="M144.4,58.9c2,0.7,3.1,2.9,2.4,4.9s-2.9,3.1-4.9,2.4c-2-0.7-3.1-2.9-2.4-4.9C140.2,59.2,142.4,58.2,144.4,58.9 M141.1,68.5
		c3.3,1.1,6.9-0.6,8.1-3.9c1.1-3.3-0.6-6.9-3.9-8.1c-3.3-1.1-6.9,0.6-8.1,3.9C136,63.8,137.7,67.4,141.1,68.5"/>
	<path d="M125.9,74.4c-2-0.7-3.1-2.9-2.4-4.9c0.7-2,2.9-3.1,4.9-2.4c2,0.7,3.1,2.9,2.4,4.9C130.1,74,127.9,75,125.9,74.4
		 M129.2,64.7c-3.3-1.1-6.9,0.6-8.1,3.9c-1.1,3.3,0.6,6.9,3.9,8.1c3.3,1.1,6.9-0.6,8.1-3.9C134.3,69.4,132.5,65.8,129.2,64.7"/>
	<path d="M149.4,82.5c-2-0.7-3.1-2.9-2.4-4.9c0.7-2,2.9-3.1,4.9-2.4c2,0.7,3.1,2.9,2.4,4.9C153.7,82.1,151.5,83.2,149.4,82.5
		 M152.8,72.8c-3.3-1.1-6.9,0.6-8.1,3.9c-1.1,3.3,0.6,6.9,3.9,8.1c3.3,1.1,6.9-0.6,8.1-3.9S156.1,73.9,152.8,72.8"/>
	<path d="M118.6,54c0.3-0.9-0.2-1.8-1-2.1l-31.9-11c-0.9-0.3-1.8,0.2-2.1,1c-0.3,0.9,0.2,1.8,1,2.1l31.9,11
		C117.4,55.4,118.3,54.9,118.6,54"/>
</g>
</svg>
