<?xml version="1.0" encoding="utf-8"?>
<!-- Generator: Adobe Illustrator 23.0.1, SVG Export Plug-In . SVG Version: 6.00 Build 0)  -->
<svg version="1.1" id="Calque_1" xmlns="http://www.w3.org/2000/svg" xmlns:xlink="http://www.w3.org/1999/xlink" x="0px" y="0px"
	 viewBox="0 0 481 111" style="enable-background:new 0 0 481 111;" xml:space="preserve">
<style type="text/css">
	.st0{fill:#111314;}
	.st1{font-family:'Georgia';}
	.st2{font-size:125px;}
	.st3{opacity:0.7;}
	.st4{fill:#733BDE;}
</style>
<text transform="matrix(1 0 0 1 -0.332 97.5071)" class="st0 st1 st2">Contact</text>
<g class="st3">
	<path class="st4" d="M441.2,16.8C443.7,7,453.7,1,463.7,3.5c10,2.5,16.1,12.5,13.6,22.3c-2.2,8.7-10.2,14.3-19,13.8
		c-1.3,2.3-3.3,2.7-5.8,3.7c-3.3,1.3-5.8,0.7-6.1,0.2c-0.3-0.5,0.4-1.2,2.8-2.3c1.2-0.6,1.7-2.1,1.9-3.5
		C443.4,34.1,439.1,25.4,441.2,16.8"/>
	<rect x="296.7" y="85" class="st4" width="160" height="22"/>
</g>
</svg>
