<?xml version="1.0" encoding="utf-8"?>
<!-- Generator: Adobe Illustrator 23.0.1, SVG Export Plug-In . SVG Version: 6.00 Build 0)  -->
<svg version="1.1" xmlns="http://www.w3.org/2000/svg" xmlns:xlink="http://www.w3.org/1999/xlink" x="0px" y="0px"
	 viewBox="0 0 743.77 242.72" style="enable-background:new 0 0 743.77 242.72;" xml:space="preserve">
<style type="text/css">
	.st0{fill:#FFFFFF;}
</style>
<g id="Calque_1">
	<g>
		<g>
			<path d="M54.19,121.45c-0.13,0.28-0.2,0.48-0.21,0.61C54.05,121.86,54.12,121.65,54.19,121.45z"/>
			<polygon points="50.54,135.17 50.76,134.96 50.33,135.17 			"/>
			<path d="M48.73,136.35c-0.37,0.93-0.68,1.82-0.97,2.68c0,0.14,0.03,0.25,0.1,0.32c0.07,0.07,0.11,0.18,0.11,0.32l0.21-0.22
				c1.43-2.57,1.93-4.64,1.5-6.22C49.4,134.39,49.08,135.42,48.73,136.35z"/>
			<path d="M40.68,171.63h-0.22c0,0.14-0.14,0.5-0.43,1.06c-0.14,1.15-0.39,2.33-0.75,3.54c-0.36,1.21-0.32,2.39,0.1,3.53
				c0.06,0.14,0.09,0.29,0.12,0.44c0.2-0.7,0.38-1.38,0.52-2.04c0.43-1.93,0.79-3.89,1.07-5.9c0-0.28-0.07-0.5-0.21-0.64H40.68z"/>
			<path d="M48.83,138.6c0,0.14-0.08,0.36-0.22,0.65h0.65c0.14-0.29,0.22-0.51,0.22-0.65s0.07-0.36,0.21-0.65h-0.64
				C48.9,138.25,48.83,138.46,48.83,138.6z"/>
			<path d="M40.68,169.48c0-0.01,0-0.02-0.01-0.02c-0.07,0.08-0.14,0.16-0.21,0.23L40.68,169.48z"/>
			<path d="M40.68,169.46c1.16-1.21,1.96-2.49,2.36-3.84c-0.72,0.58-1.36,1.15-1.93,1.72C40.54,167.91,40.4,168.61,40.68,169.46z"/>
			<path d="M43.69,160.04c-0.58,1.43-0.93,2.5-1.07,3.22c0.14-0.29,0.29-0.53,0.43-0.75c0.14-0.22,0.36-0.46,0.65-0.75
				c0,0.29,0.03,0.51,0.1,0.65c0.07,0.14,0.11,0.29,0.11,0.43v0.21c0.57-1.13,0.85-1.85,0.85-2.14S44.4,160.33,43.69,160.04z"/>
			<polygon points="139.75,36.1 139.75,36.31 139.97,36.1 			"/>
			<path d="M58.27,53.47c-0.01,0.04-0.01,0.08-0.02,0.12c0.08-0.04,0.15-0.08,0.24-0.12H58.27z"/>
			<path d="M38.33,184.92c0.28-1.14,0.6-2.1,0.96-2.9c0.29-0.62,0.36-1.23,0.23-1.82c-0.38,1.35-0.84,2.78-1.41,4.28L38.33,184.92z"
				/>
			<path d="M100.94,58.4c-0.15,0.15-0.22,0.36-0.22,0.65L100.94,58.4z"/>
			<path d="M39.61,171.41c0.29-1,0.57-2.07,0.86-3.22l1.94-5.78h-0.65c-0.29,0.71-0.65,1.46-1.07,2.25
				c-0.43,0.79-0.79,1.54-1.07,2.25h-0.22l-1.93,8.36c-0.29,0.86-0.5,1.72-0.64,2.57c-0.15,0.86-0.29,1.72-0.44,2.57
				c0.86-0.99,1.4-1.96,1.61-2.9c0.21-0.93,0.46-1.89,0.75-2.89C39.03,173.49,39.32,172.42,39.61,171.41z"/>
			<path d="M57.84,56.69c0.14-0.58,0.22-1.11,0.22-1.61c0-0.46,0.07-0.96,0.19-1.48c-0.85,0.41-1.39,0.9-1.58,1.48
				c-0.22,0.65-0.39,1.33-0.54,2.04h2.15L57.84,56.69z"/>
			<path d="M31.03,171.19c-0.14,0.15-0.22,0.36-0.22,0.65h0.36c0.07-0.21,0.14-0.43,0.21-0.65H31.03z"/>
			<path d="M53.98,122.09c0-0.01,0-0.02,0-0.02c-0.07,0.22-0.15,0.45-0.22,0.67C53.9,122.45,53.98,122.24,53.98,122.09z"/>
			<path d="M39.18,166.05c-0.29-0.29-0.51-0.51-0.65-0.65c-0.14-0.14-0.36-0.36-0.65-0.65c-0.29,1.29-0.64,2.54-1.06,3.75
				c-0.44,1.22-0.72,2.4-0.86,3.54l3.22-5.79V166.05z"/>
			<path d="M153.76,175.9c-0.25-0.45-0.63-0.74-1.13-0.9c-1.65-0.45-3.36-0.78-5.12-1c-1.77-0.23-3.66-0.19-5.69,0.11
				c-1.9,0.3-3.73,0.37-5.5,0.23c-1.77-0.15-3.73,0.37-5.88,1.56c-0.25,0.15-0.54,0.18-0.85,0.11c-0.32-0.07-0.6-0.11-0.86-0.11
				c-1.52-0.3-3.06-0.53-4.65-0.67c-1.58-0.14-3.13-0.37-4.64-0.67c-0.25,0-0.45,0.04-0.57,0.11c-0.12,0.08-0.32,0.12-0.57,0.12
				h-1.23c-0.45,0-0.86-0.07-1.23-0.23c-1.9-0.44-3.76-0.89-5.59-1.33c-1.84-0.45-3.7-0.97-5.59-1.56
				c-0.26-0.15-0.48-0.26-0.66-0.34c-0.19-0.07-0.42-0.26-0.66-0.56c-1.02-1.03-1.8-1.41-2.37-1.12c-0.57,0.3-1.23,1.27-1.99,2.91
				c-0.39,0.74-0.57,1.42-0.57,2.01c-0.13,1.64-0.38,3.32-0.76,5.02c-0.39,1.72-0.19,3.23,0.56,4.58v0.22
				c-0.5,1.64-0.73,3.17-0.66,4.58c0.06,1.42-0.03,2.87-0.29,4.35c-0.5,3.43,0.39,5.59,2.65,6.48c0.89,0.3,1.74,0.64,2.56,1.01
				c0.83,0.37,1.67,0.71,2.56,1c1.52,0.3,3.06,0.6,4.64,0.9c1.58,0.3,3.26,0.07,5.02-0.67c0.63-0.3,1.17-0.41,1.61-0.34
				c0.44,0.08,0.92,0.11,1.43,0.11c1.39,0.15,2.78,0.26,4.17,0.34c1.39,0.08,2.78,0.19,4.17,0.34c1.26,0,2.14,0.15,2.65,0.44
				c1.26,0.6,2.59,0.67,3.98,0.23c1.52-0.59,3.03-1.04,4.55-1.34c1.52-0.29,2.97-0.36,4.36-0.22c1.39,0.15,2.85-0.14,4.36-0.9
				c1.52-0.74,3.04-1.71,4.55-2.9c-0.25-0.3-0.54-0.59-0.85-0.89c-0.32-0.3-0.48-0.67-0.48-1.12c-0.12-0.45-0.06-0.93,0.19-1.45
				c0.25-0.52,0.5-1.08,0.76-1.67c0-0.14-0.06-0.26-0.19-0.34c-0.13-0.07-0.13-0.18,0-0.34c0-0.14,0.02-0.3,0.09-0.44
				c0.06-0.15,0.09-0.37,0.09-0.67c1.01-0.59,1.64-1.03,1.9-1.33l0.19,0.22c0.25-0.74,0.41-1.44,0.48-2.12
				c0.06-0.67,0.29-1.3,0.66-1.9c2.14-3.43,2.52-6.25,1.13-8.48C154.26,176.79,154.01,176.34,153.76,175.9z M110.34,200.67
				c-2.53,0.31-4.36,0.38-5.5,0.23c-1.13-0.14-2.27-0.67-3.41-1.56c1.77-0.3,3.32-0.15,4.64,0.44c1.33,0.6,2.76,0.82,4.27,0.67
				V200.67z M127.02,193.97c-0.63-0.15-1.2-0.26-1.7-0.34c-0.51-0.07-1.02-0.18-1.52-0.34c0.63-0.29,1.23-0.52,1.8-0.66
				c0.57-0.14,1.05,0.15,1.43,0.89V193.97z"/>
			<path d="M179.36,124.11c2.14-3.57,4.24-7.1,6.26-10.6c2.02-3.5,3.73-7.18,5.12-11.05c0-0.15,0.19-0.44,0.57-0.89
				c1.14-1.19,2.02-2.49,2.65-3.91c0.63-1.42,1.26-2.87,1.9-4.36c0.26-0.59,0.47-1.14,0.66-1.67c0.19-0.52,0.41-1.08,0.66-1.67
				c0.12-0.44,0.5-0.9,1.13-1.34c0,0.75,0.06,1.27,0.19,1.56c0.76-2.08,1.48-4.12,2.18-6.13c0.69-2.02,1.48-4.06,2.37-6.14
				c1.26-3.12,1.96-5.95,2.08-8.48c0.25-1.63,0.41-3.32,0.48-5.02c0.06-1.71,0.22-3.39,0.47-5.02c0-0.89,0.03-1.75,0.09-2.57
				c0.06-0.82,0.29-1.74,0.66-2.79c0.38-0.75,0.54-1.49,0.48-2.23c-0.07-0.74-0.42-1.33-1.04-1.78c-0.51-0.44-0.83-1.04-0.95-1.79
				c-0.38-1.33-0.73-2.68-1.04-4.01c-0.32-1.34-0.8-2.61-1.43-3.8c-1.13-2.98-2.53-5.69-4.17-8.15c-1.65-2.45-4.05-4.13-7.21-5.02
				c-0.39,0-0.57-0.07-0.57-0.23c-1.52-1.48-3.32-2.3-5.4-2.45c-2.09-0.14-4.14-0.37-6.16-0.67c-0.38,0-0.63,0.08-0.76,0.23
				c-0.76,0.74-1.45,1.08-2.08,1c-0.63-0.07-1.27-0.18-1.9-0.33c-0.38,0-1.07,0.14-2.08,0.44c-1.13,0.59-2.31,1.15-3.51,1.67
				c-1.2,0.53-2.37,1.08-3.5,1.67c-1.9,1.04-2.85,0.45-2.85-1.78c0-0.3,0.03-0.64,0.09-1.01c0.06-0.37,0.1-0.7,0.1-1
				c-1.9,0.14-3.76,0.55-5.59,1.23c-1.84,0.66-3.63,1.83-5.41,3.46c-1.39,1.33-2.75,2.72-4.07,4.12c-1.33,1.42-2.62,2.87-3.89,4.36
				c-1.52,1.63-2.94,3.38-4.27,5.24c-1.33,1.86-2.62,3.76-3.89,5.69c-1.01,1.49-1.93,2.94-2.75,4.35c-0.23,0.39-0.44,0.78-0.64,1.19
				c0.14-0.41,0.18-0.84,0.1-1.28c-0.14-0.79,0.36-1.54,1.51-2.25c0.14-0.14,0.21-0.35,0.21-0.65v-0.86
				c0.14-0.14,0.25-0.32,0.32-0.53c0.07-0.22,0.17-0.32,0.32-0.32c1-0.29,1.54-0.68,1.61-1.18c0.07-0.51,0.25-1.04,0.54-1.61
				c0.43-1.57,0.82-3.18,1.18-4.83c0.35-1.64,0.6-3.25,0.75-4.83c0.28-1.57,0.14-2.92-0.43-4.07c-0.58-1.14-1.65-2.08-3.22-2.79
				c-1-0.43-1.89-0.89-2.68-1.4c-0.79-0.5-1.68-0.96-2.68-1.39c-0.44-0.29-0.93-0.44-1.5-0.44c-0.58,0-1.15-0.07-1.72-0.21
				c-2.43-0.86-5.29-1.14-8.58-0.86c-1.72,0.14-3.43,0.21-5.15,0.21h-5.15c-2,0-3.79,0.29-5.36,0.86c-2.43,0.72-4.29,1.22-5.58,1.5
				c-1.29,0.29-3.15,0.29-5.58,0h-0.65c-0.72,0.29-1.28,0.32-1.71,0.11c-0.44-0.22-0.93-0.46-1.5-0.75
				c-0.86,0.71-1.65,1.21-2.36,1.5c-0.29-0.14-0.43-0.25-0.43-0.32c0-0.07-0.07-0.17-0.22-0.32c-0.72-0.72-1.25-1.11-1.6-1.18
				c-0.36-0.07-1.25,0.25-2.68,0.96c-1,0.29-1.72,0.37-2.15,0.22c-0.85-0.72-1.89-0.89-3.11-0.53c-1.22,0.36-2.33,0.24-3.32-0.32
				c-0.29,0-0.58,0.14-0.86,0.43c-1.43,1-3.15,1.36-5.15,1.07c-0.43,2.14-1.07,4.25-1.93,6.33c-0.86,2.07-1.22,4.11-1.07,6.11
				c0.14,0.29,0.1,0.51-0.11,0.65c-0.21,0.14-0.39,0.36-0.53,0.65v1.06l-0.22,0.22l-1.28,1.93h1.28c-0.99,0.86-1.5,1.86-1.5,3
				c0,0.72-0.1,1.43-0.31,2.15c-0.22,0.72-0.68,1.43-1.4,2.15l0.64,0.86h-0.21l1.07,0.65c-0.29,0.86-0.72,1.71-1.29,2.57l-1.28,1.93
				c-0.29-0.29-0.79-0.5-1.5-0.65v2.47c0,0.78-0.51,1.53-1.5,2.25c-0.29,0.29-0.22,0.65,0.21,1.07c0.58,0.57,0.58,1.5,0,2.78
				c-0.29,0.72-0.68,1.29-1.18,1.72c-0.5,0.43-1.04,0.93-1.61,1.5c-0.86,1-1.18,1.96-0.97,2.9c0.22,0.93,0.25,1.89,0.11,2.89
				c-0.15,0.72-0.36,1.4-0.65,2.04c-0.29,0.64-0.78,1.33-1.5,2.03c-0.58,0.58-1.07,1.15-1.5,1.72c-0.43,0.58-0.58,1.21-0.43,1.93
				c0.14,0.43,0.07,0.9-0.22,1.4c-0.29,0.51-0.58,1.04-0.86,1.61c-0.43,1.15-0.9,2.22-1.4,3.22c-0.51,1-0.97,2.08-1.4,3.22
				c-0.57,1.28-0.5,2.29,0.22,3c0.72,0.72,0.43,1.43-0.86,2.14c-1.15,0.58-1.72,1.15-1.72,1.72c0,0.72-0.29,1.46-0.86,2.25
				c-0.58,0.79-0.51,1.54,0.21,2.25c0.14,0.29,0.07,0.58-0.21,0.86c-0.86,0.72-1.22,1.43-1.07,2.15c0.14,0.72-0.15,1.43-0.87,2.15
				c-0.43,0.72-0.64,1.43-0.64,2.15c0,0.43-0.03,0.82-0.11,1.18c-0.07,0.36-0.31,0.75-0.75,1.18c-0.72,0.72-1.14,1.47-1.28,2.25
				c-0.15,0.78-0.29,1.53-0.43,2.25c-0.15,0.72-0.39,1.47-0.75,2.25c-0.36,0.79-0.68,1.54-0.97,2.25c-0.29,0.72-0.5,1.47-0.65,2.25
				c-0.14,0.79-0.36,1.54-0.64,2.25c-0.15,0.58-0.32,1.11-0.54,1.61c-0.21,0.5-0.46,1.04-0.75,1.6c-0.43,1.57-0.86,3.07-1.28,4.5
				c-0.43,1.43-0.65,2.86-0.65,4.29l-0.65,1.28c-0.72,2.15-1.64,4.29-2.78,6.43c-1.14,2.15-1.58,4.29-1.29,6.44
				c0,0.86-0.24,1.71-0.75,2.57c-0.5,0.86-0.89,1.72-1.18,2.57l-5.15,15.44v1.28l-0.64,3.87c-0.29,1.14-0.61,2.22-0.97,3.21
				c-0.36,1-0.53,2.01-0.53,3c0,1.58-0.51,3.51-1.5,5.79c-0.15,0.43-0.25,0.89-0.32,1.4c-0.08,0.5-0.03,0.89,0.1,1.18
				c0.29,0.29,0.29,0.93,0,1.93c-0.72,1.28-1.26,2.57-1.61,3.86c-0.36,1.29-0.4,2.5-0.11,3.65c0.29,0.72,0.72,1.07,1.29,1.07
				c1,0.29,2.03,0.36,3.11,0.22c1.07-0.14,2.11-0.58,3.11-1.29c1.85-1.28,3.71-2,5.58-2.15c1.85-0.14,3.64-0.57,5.36-1.28
				c0.14,0,0.57,0.14,1.28,0.43c0.29-0.86,0.54-1.68,0.75-2.47c0.22-0.78,0.46-1.53,0.75-2.25c-0.71,0.29-1.35,0.47-1.93,0.54
				c-0.57,0.07-1.14,0.18-1.71,0.32l-0.22,0.21c-0.58-0.43-0.65-0.89-0.21-1.39c0.43-0.51,0.78-1.04,1.07-1.61
				c-0.29-0.14-0.57-0.24-0.86-0.32c-0.29-0.07-0.58-0.17-0.86-0.31c-1.15,0.72-1.82,1.47-2.04,2.25c-0.21,0.79-0.46,1.6-0.75,2.46
				c-0.86-0.72-1.18-1.5-0.96-2.36c0.21-0.86,0.32-1.64,0.32-2.36c0.14-1.29,0.31-2.61,0.53-3.97c0.22-1.36,0.75-2.75,1.61-4.18
				c1,0.29,1.4,0.72,1.19,1.28c-0.22,0.58-0.18,1.07,0.1,1.5c0.43-0.14,0.89-0.24,1.4-0.32c0.5-0.07,0.96-0.17,1.39-0.32v-0.21
				c0.72-1,1.21-1.93,1.5-2.79c0.29-0.86,0.29-1.42,0-1.71c-0.43-0.43-0.43-0.86,0-1.29c0.58-0.57,0.86-1.28,0.86-2.14
				c0.28-2.01,0.5-3.94,0.64-5.79c0.14-1.86,0.36-3.72,0.65-5.58c-0.14-0.14-0.51-0.36-1.07-0.65c-0.43,1.29-0.89,2.61-1.4,3.97
				c-0.06,0.17-0.11,0.36-0.18,0.53h0.07c-0.14,0.15-0.21,0.36-0.21,0.65h-0.08c-0.34,0.99-0.69,1.98-1,3
				c-0.29,0.72-0.47,1.36-0.54,1.93c-0.07,0.58-0.25,1.22-0.53,1.94c-0.29,0.85-0.93,1.35-1.93,1.5c-0.15-1.43,0.07-2.83,0.64-4.19
				c0.58-1.35,1.07-2.75,1.5-4.18l2.57-8.36c0.43-1.29,0.78-2.61,1.07-3.97c0.29-1.36,1-2.68,2.15-3.97c0.43,1,0.57,1.86,0.43,2.57
				c-0.29,0.86-0.53,1.72-0.75,2.57c-0.21,0.86-0.46,1.72-0.75,2.57c-0.43,0.86-0.07,1.5,1.07,1.93l1.93-3.86
				c1.57-0.43,2.43,0.21,2.57,1.93c0.43-0.99,0.79-1.86,1.07-2.57c0.29-0.72,1-1.21,2.15-1.5c0.28,0,0.43-0.21,0.43-0.65
				c0.29-0.71,0.57-1.46,0.85-2.25c0.29-0.78,0.43-1.53,0.43-2.25c-0.43,0.58-0.85,1.15-1.28,1.72c-0.43,0.58-0.93,1.28-1.5,2.15
				c0.14-0.72,0.21-1.26,0.21-1.61v-0.96c-1,0.29-1.43,0.75-1.28,1.39c0.14,0.65-0.15,1.19-0.86,1.61
				c-1.72,0.57-2.76,0.82-3.11,0.75c-0.36-0.07-0.39-0.68-0.1-1.82c1.14-0.29,1.93-0.43,2.36-0.43c0.29-0.71,0.51-1.33,0.65-1.82
				c0.14-0.5,0.36-1.04,0.65-1.61c0.14-0.58,0.28-1.11,0.43-1.61c0.14-0.5,0.29-1.03,0.43-1.6c0-0.29-0.29-0.57-0.86-0.86
				c-0.72,0.57-1.4,0.72-2.04,0.43c-0.64-0.29-1.32-0.14-2.03,0.43c0.43-1.72,0.89-3.4,1.4-5.04c0.5-1.64,0.96-3.25,1.39-4.83
				c0.29-0.43,0.58-0.82,0.86-1.18c0.28-0.35,0.79-0.39,1.5-0.1c-0.29,0.85-0.54,1.72-0.75,2.57c-0.22,0.86-0.47,1.71-0.75,2.57
				h0.64c0.15-0.14,0.29-0.29,0.44-0.43c0.14-0.15,0.5-0.44,1.06-0.86c-0.72,0.86-1.28,1.58-1.71,2.15
				c-0.43,0.58-0.79,1.14-1.07,1.72c0,0.14,0.14,0.36,0.43,0.64c0.14-0.14,0.24-0.28,0.32-0.43c0.07-0.14,0.17-0.28,0.32-0.43
				c1.14-0.57,2.1-1.14,2.9-1.71c0.78-0.58,1.32-1.43,1.6-2.57c0-0.29,0.14-0.65,0.43-1.07c0.29-0.43,0.57-0.86,0.86-1.29
				c0.86-0.85,1.47-1.74,1.82-2.68c0.36-0.93,0.68-1.89,0.97-2.9c-0.86,0.29-1.36,0.43-1.5,0.43v-0.21c0-0.14-0.03-0.22-0.1-0.22
				c-0.08,0-0.11-0.07-0.11-0.21h0.65c0.14,0,0.24,0.03,0.32,0.1c0.07,0.07,0.17,0.1,0.32,0.1c0.57-1.57,1.18-3.07,1.82-4.5
				c0.64-1.42,1.03-2.92,1.18-4.5c0.14-1.14,0.46-2.22,0.96-3.22c0.51-1,0.97-2.07,1.4-3.21c0.43,0.43,0.65,0.86,0.65,1.28
				c0,0.58-0.08,1-0.22,1.29c0.14-0.43,0.29-0.86,0.43-1.29c0.71,1.15,0.68,2.22-0.1,3.22c-0.79,1-1.33,2.08-1.61,3.22h-1.5
				c-0.29,1.43-0.58,2.56-0.86,3.43c0.58-0.86,1-1.57,1.29-2.15c0.57,1,0.46,2.03-0.32,3.11c-0.79,1.07-0.82,1.97-0.1,2.69
				l0.64-2.57c0.58-1.57,1.11-3.18,1.61-4.83c0.5-1.64,1.11-3.26,1.82-4.83c0.28-0.72,0.82-1.47,1.6-2.25
				c0.79-0.79,1.54-1.53,2.25-2.25c0-0.15,0.03-0.25,0.1-0.32c0.07-0.07,0.11-0.18,0.11-0.32h0.21c0.14-0.14,0.29-0.25,0.43-0.32
				c0.14-0.07,0.29-0.17,0.44-0.32c0.14-0.14,0.28-0.24,0.43-0.32c0.14-0.07,0.28-0.17,0.43-0.32c0.28-0.28,0.86-0.71,1.71-1.28
				l-0.21-0.22c0.57,0.29,1.14,0.51,1.71,0.65c0.58,0.15,1.14,0.36,1.72,0.65v1.93c2.15-1,4.29-1.93,6.43-2.78
				c2.15-0.86,4.21-1.79,6.22-2.79c1-0.43,1.96-0.86,2.9-1.28c0.93-0.44,1.89-0.93,2.9-1.5c2.43-1.43,4.93-3.08,7.5-4.94l5.15-3.86
				c-0.15-0.72-0.15-1.21,0-1.5c0.14-0.29,0.71-0.72,1.71-1.29c0.57-0.57,1.11-1.1,1.61-1.61c0.5-0.5,0.96-1.03,1.39-1.6
				c1-1.14,2.04-2.25,3.12-3.33c1.06-1.07,1.6-2.32,1.6-3.75c0-0.29,0.22-0.65,0.65-1.07c0.43-0.43,0.86-0.86,1.28-1.29
				c0.72,0.3,1.25,0.18,1.61-0.31c0.36-0.51,0.68-0.9,0.97-1.19c0.99-0.85,1.6-1.78,1.82-2.78c0.22-0.99,0.67-2,1.4-3
				c0.28-0.43,0.53-0.86,0.75-1.29c0.21-0.43,0.46-0.78,0.75-1.07c0.86-0.44,1.47-0.9,1.82-1.4c0.35-0.5,0.67-1.04,0.96-1.6
				c0.29-0.72,0.68-1.36,1.18-1.94c0.51-0.57,0.97-1.21,1.4-1.93c1.14,0.15,1.86,0.18,2.15,0.1c0.29-0.07,0.65-0.46,1.07-1.18
				c0.43-0.57,0.64-1.21,0.64-1.93c0.29-2.29,1.43-4.14,3.44-5.58c0.71-0.57,1.25-1.14,1.6-1.72c0.36-0.57,0.82-1.21,1.4-1.93
				c0.11-0.13,0.19-0.27,0.27-0.41c-0.42,0.9-0.79,1.84-1.09,2.83l0.47,0.19c-0.7,0.94-1.37,1.82-1.99,2.6
				c-0.76,0.97-1.45,2.04-2.08,3.23c-1.01,2.09-1.9,4.02-2.65,5.8c-0.63,1.64-1.46,3.28-2.47,4.91c-1.01,1.64-1.64,3.35-1.89,5.13
				c-0.13,0.9-0.45,1.83-0.95,2.79c-0.51,0.97-1.26,1.75-2.28,2.35c-0.26,0.15-0.42,0.3-0.48,0.44c-0.06,0.15-0.16,0.3-0.28,0.45
				c-0.39,1.19-0.76,2.31-1.14,3.34c-0.38,1.04-0.69,2.16-0.95,3.35c-0.25,0.44-0.41,0.97-0.47,1.56c-0.07,0.6,0.09,1.04,0.47,1.34
				c0.38-0.3,0.95-0.9,1.71-1.79c-0.26,0.74-0.44,1.45-0.56,2.12c-0.13,0.67-0.25,1.01-0.38,1.01c-0.89,0.3-1.43,0.82-1.61,1.56
				c-0.19,0.74-0.48,1.42-0.86,2.01c-0.38,0.75-0.57,1.53-0.57,2.34c0,0.83-0.12,1.61-0.38,2.34l-1.13,4.69
				c-0.51,1.49-0.76,2.61-0.76,3.35c-0.63,2.23-1.01,4.47-1.13,6.69c-0.25,1.94-0.51,3.83-0.76,5.69c-0.26,1.86-0.51,3.76-0.76,5.69
				v3.34c0.12,0.3,0.12,0.64,0,1.01c-0.12,0.37-0.06,0.71,0.19,1.01c0.38,0.59,0.57,1.26,0.57,2.01c0,0.74-0.07,1.49-0.19,2.23
				c0.12,1.49,0.22,2.93,0.29,4.35c0.06,1.42,0.41,2.72,1.04,3.91l1.14,2.01c0.63,1.19,1.23,2.34,1.8,3.46
				c0.57,1.12,1.23,2.2,1.99,3.23c1.14,1.64,2.56,2.87,4.27,3.69c1.71,0.82,3.38,1.75,5.02,2.79c0.26,0.15,0.63,0.23,1.14,0.23
				c0.88,0.15,1.74,0.22,2.56,0.22h2.55c1.77,0.15,3.54-0.07,5.31-0.67c1.77-0.59,3.54-1.41,5.32-2.45
				c0.88-0.45,1.77-0.89,2.65-1.33c0.88-0.45,1.77-0.9,2.65-1.34c1.01-0.45,2.02-0.82,3.03-1.12c1.01-0.29,1.96-0.82,2.85-1.56
				c2.65-2.08,5.21-4.35,7.68-6.8c2.46-2.46,4.96-4.95,7.49-7.48c1.89-2.08,3.41-4.39,4.54-6.91c0.26-0.45,0.76-1.12,1.52-2.02
				c1.14-1.48,2.34-2.9,3.6-4.24C177.4,127.23,178.47,125.75,179.36,124.11z M29.1,161.44c-0.15,0.08-0.29,0.18-0.43,0.32
				c-0.15-0.14-0.22-0.36-0.22-0.65l0.65-0.64c0.14,0.14,0.21,0.24,0.21,0.31c0,0.08,0.07,0.18,0.22,0.32
				C29.38,161.26,29.24,161.37,29.1,161.44z M31.25,157.04h-0.22v-0.21h0.22V157.04z M34.68,164.76h-0.22
				c0.14-0.14,0.22-0.36,0.22-0.65V164.76z M43.47,155.97h0.65c-0.29,0.58-0.43,1-0.43,1.29h-0.65
				C43.04,156.97,43.18,156.54,43.47,155.97z M38.76,153.4h0.21l-0.43,0.21L38.76,153.4z M39.61,137.74v-0.64l0.65-0.65v0.65h0.21
				C40.18,137.39,39.9,137.6,39.61,137.74z M40.9,143.11h-0.65l1.28-3.86h0.65L40.9,143.11z M44.76,141.39
				c-0.43,0.43-0.85,0.86-1.29,1.29c0.15-0.43,0.29-0.86,0.44-1.29c0.14-0.43,0.28-0.86,0.43-1.28v0.21
				C45.05,140.6,45.19,140.96,44.76,141.39z M44.49,125.1h-0.8c0.29-1.58,0.92-3.65,1.93-6.22
				C47.01,120.27,46.62,122.35,44.49,125.1z M46.9,134.1h-0.65l0.65-1.93h0.64L46.9,134.1z M48.62,129.38
				c-0.29-0.29-0.43-0.5-0.43-0.65c0-0.14,0.07-0.24,0.22-0.32c0.11-0.06,0.23-0.2,0.34-0.39c0.33,0.35,0.51,0.59,0.51,0.72
				L48.62,129.38z M49.69,123.7c0.14,0.64-0.29,1.32-1.28,2.03l-0.43,0.22c0-0.72-0.08-1.14-0.22-1.29h-1.5
				c0.29-0.86,0.5-1.57,0.65-2.14c0.28,0.29,0.53,0.53,0.75,0.75c0.21,0.21,0.46,0.46,0.75,0.75c0.14-0.72,0.21-1.29,0.21-1.72
				c0-0.43,0.07-0.86,0.22-1.28h0.65c0,0.14,0.07,0.24,0.21,0.31c0.14,0.08,0.22,0.18,0.22,0.32
				C49.62,122.37,49.55,123.05,49.69,123.7z M51.41,121.02v-0.65c0-0.14,0.14-0.22,0.43-0.22v-0.43c0,0.15,0.14,0.36,0.43,0.65
				C51.97,120.52,51.69,120.73,51.41,121.02z M58.37,87.14c-0.07,0.14-0.24,0.36-0.53,0.64c0.14-0.28,0.22-0.5,0.22-0.64
				c0-0.15,0.07-0.36,0.21-0.65h0.65C58.62,86.78,58.45,86.99,58.37,87.14z M61.69,87.35c0.15,0,0.22-0.07,0.22-0.21h0.43
				l-0.43,0.43v0.21c-0.29,0-0.43-0.07-0.43-0.21C61.48,87.43,61.55,87.35,61.69,87.35z M61.48,114.58l-0.64,0.65v-0.22
				c-0.14,0.15-0.29,0.25-0.43,0.32c-0.15,0.08-0.29,0.18-0.43,0.32c0-0.14,0.03-0.24,0.1-0.32c0.07-0.07,0.1-0.17,0.1-0.32h0.65
				v-0.43h0.43c0.14-0.14,0.22-0.35,0.22-0.64h0.21C61.69,114.23,61.62,114.44,61.48,114.58z M61.91,91.64h-0.65
				c0.29-0.58,0.58-1.43,0.86-2.57h0.64C62.48,90.21,62.2,91.07,61.91,91.64z M108.45,45.96c0.29,1.43,0.07,2.86-0.65,4.28
				c-0.72,1.43-1.28,2.93-1.71,4.51c-0.15,0.29-0.47,0.6-0.97,0.96c-0.51,0.36-0.97,0.75-1.4,1.18c0.29,0.72,0.36,1.22,0.22,1.5
				c-0.15,0.29-0.86,0.79-2.15,1.5c0.29,0.72,0.17,1.36-0.32,1.94c-0.5,0.57-0.89,1.21-1.18,1.93c-0.58,1.14-1.14,2.22-1.72,3.21
				c-0.57,1-1.21,2.08-1.93,3.22c-0.72,1-1.47,2.01-2.25,3c-0.79,1-1.75,1.86-2.9,2.57c-1.43,1.28-2.43,2.43-3,3.43h1.29L90,80.49
				h-1.28l-1.93,1.93c-0.43,0.43-0.86,0.86-1.29,1.28c-0.43,0.43-0.79,0.93-1.07,1.5c-0.57,0.86-1.39,1.94-2.46,3.22
				c-1.07,1.28-2.11,2.29-3.12,3v1.72c-1.57,0.72-2.85,1.5-3.86,2.36c-1,0.86-2.01,1.79-3,2.79c-0.72,0.72-1.43,1.47-2.15,2.25
				c-0.72,0.78-1.43,1.53-2.14,2.25c-0.29,0.29-0.65,0.5-1.07,0.64c-1.15,0.43-1.58,1.07-1.29,1.94c0,0.14-0.1,0.29-0.32,0.43
				c-0.21,0.14-0.39,0.36-0.53,0.64c0-0.71,0.14-1.74,0.43-3.11c0.29-1.35,0.68-2.78,1.18-4.28c0.5-1.51,1.07-2.97,1.72-4.4
				c0.65-1.43,1.32-2.64,2.03-3.65c0,0.29,0.03,0.53,0.11,0.75c0.07,0.22,0.1,0.46,0.1,0.75c0.14-0.14,0.24-0.22,0.32-0.22
				c0.07,0,0.17-0.07,0.32-0.21c0.28-0.72,0.57-1.36,0.86-1.93c0.29-0.58,0.5-1.21,0.65-1.94c0.14-0.28,0.17-0.6,0.1-0.96
				c-0.08-0.36-0.1-0.68-0.1-0.97c0-0.28-0.04-0.6-0.11-0.96c-0.07-0.36-0.03-0.68,0.11-0.97c0.28-0.85,0.64-1.72,1.07-2.57
				c0.43-0.86,0.78-1.71,1.06-2.57h-0.64c0.14-0.28,0.21-0.5,0.21-0.64c0-0.15,0.07-0.36,0.22-0.65h0.65
				c-0.15,0.29-0.22,0.5-0.22,0.65c0,0.14-0.07,0.36-0.22,0.64c0.44-0.72,0.86-1.21,1.29-1.5c0.72-0.28,1.21-0.6,1.5-0.96
				c0.29-0.36,0.57-0.75,0.85-1.19c0.72-1.28,1.29-2.57,1.72-3.86c0.43-1.28,1.07-2.57,1.93-3.86c0.72-1.14,1.18-2.29,1.4-3.43
				c0.21-1.14,0.53-2.29,0.96-3.44c0.29-0.85,0.61-1.71,0.97-2.57c0.36-0.86,0.89-1.71,1.61-2.57c0.29-0.43,0.5-0.92,0.65-1.5
				c0.14-0.57,0.29-1.14,0.43-1.71c0.57-1.43,0.92-2.5,1.07-3.22c0.71-0.28,1.46-0.53,2.25-0.75c0.79-0.21,1.54-0.46,2.25-0.75
				c1.29-0.28,2.39-0.75,3.32-1.4c0.93-0.64,1.96-1.39,3.11-2.25c0.71-0.71,1.5-1.39,2.36-2.03c0.86-0.65,1.85-0.82,3-0.54
				c0.86-0.71,1.6-0.93,2.25-0.64c0.65,0.29,1.4,0.29,2.25,0C108.8,42.61,108.45,44.25,108.45,45.96z M159.44,29.69
				c0,0.15-0.03,0.26-0.09,0.34c-0.06,0.08-0.09,0.19-0.09,0.34l-0.38-0.67H159.44z M147.69,35.05c0.12-0.15,0.25-0.25,0.38-0.34
				c0.12-0.07,0.25-0.18,0.38-0.34l0.19,0.23c-0.5,0.6-0.82,1.04-0.94,1.34l0.18-0.45L147.69,35.05z M139.72,45.98h0.57
				c-0.63,0.74-1.1,1.53-1.42,2.34c-0.26,0.69-0.79,1.18-1.53,1.5c0.35-0.48,0.68-0.98,0.96-1.5
				C138.74,47.52,139.22,46.73,139.72,45.98z M135.58,52.97c-0.13,0.35-0.32,0.66-0.59,0.94c-0.11,0.11-0.22,0.24-0.33,0.35
				c0.01-0.04,0.03-0.09,0.05-0.13C134.84,53.65,135.13,53.26,135.58,52.97z M122.28,79.91h0.19c-0.13,0.15-0.19,0.37-0.19,0.67
				h-0.19C122.09,80.29,122.16,80.06,122.28,79.91z M175.76,65.18c-0.13,1.93-0.22,3.8-0.29,5.58c-0.06,1.79-0.22,3.65-0.47,5.59
				c-0.13,0.75-0.35,1.56-0.66,2.45c-0.32,0.89-0.6,1.79-0.86,2.68c-1.01,2.83-1.99,5.62-2.94,8.36c-0.95,2.76-1.93,5.55-2.94,8.37
				c-1.27,3.42-2.69,6.81-4.27,10.15c-1.58,3.35-3.13,6.74-4.64,10.16c-0.63,1.33-1.39,2.6-2.28,3.79c-0.89,1.2-1.64,2.39-2.28,3.58
				c-1.26,2.08-2.62,3.98-4.07,5.69c-1.46,1.72-2.88,3.54-4.27,5.47c-1.01,1.34-2.09,2.61-3.23,3.8c-1.13,1.19-2.28,2.27-3.41,3.23
				c-1.14,0.97-2.28,1.98-3.42,3.02c-1.39-0.89-2.37-2.04-2.94-3.46c-0.56-1.41-1.17-2.79-1.8-4.12c-1.26-3.12-2.02-6.78-2.28-10.94
				c-0.13-0.15-0.19-0.26-0.19-0.33c0-0.07-0.06-0.19-0.19-0.34h-0.19c0,0.15-0.03,0.26-0.09,0.34c-0.06,0.07-0.09,0.18-0.09,0.33
				c0,0.9,0.06,1.64,0.19,2.23c-0.63-0.29-0.98-0.52-1.04-0.67c-0.06-0.14,0.22-0.74,0.86-1.78l-0.38-0.23
				c-0.64,0.15-0.95,0.05-0.95-0.34c0-0.36-0.07-0.78-0.19-1.23c-0.25-1.48-0.51-3.5-0.76-6.02c-0.89,1.49-1.43,2.75-1.61,3.79
				c-0.19,1.04-0.22,2.09-0.09,3.13c0,1.33,0.02,2.64,0.09,3.9c0.06,1.26,0.15,2.49,0.29,3.68c-0.13,0.6-0.19,1.64-0.19,3.12
				c-0.76-0.14-1.13-0.29-1.13-0.44c-0.38-1.19-0.8-2.38-1.23-3.57c-0.45-1.19-0.54-2.53-0.29-4.02v-3.34v-6.92
				c1.52-0.3,2.34-1.03,2.47-2.23c0.12-1.63,0.35-3.23,0.66-4.8c0.31-1.56,0.59-3.16,0.85-4.8c0-1.04,0.32-2.15,0.95-3.34
				c0,2.23-0.09,4.5-0.28,6.8c-0.19,2.32-0.41,4.73-0.66,7.26c0.63-0.74,1.04-1.37,1.23-1.9c0.19-0.52,0.41-1,0.66-1.45v10.05
				c0.12,0.3,0.26,0.49,0.38,0.56c0.12,0.07,0.25,0.19,0.38,0.33c0-0.3-0.06-0.53-0.19-0.67c-0.13-0.15-0.13-0.37,0-0.67
				c0.25-1.63,0.5-3.31,0.76-5.02c0.25-1.71,0.5-3.46,0.76-5.24c0.63,1.49,0.83,3.12,0.57,4.9c-0.25,1.79-0.06,3.42,0.57,4.91
				c1.01-0.59,1.42-1.19,1.23-1.79c-0.19-0.59-0.35-1.26-0.47-2.01c0.25-0.29,0.54-0.63,0.86-1c0.31-0.37,0.73-0.78,1.23-1.23
				c0,0.59,0.13,1.33,0.39,2.23l0.94-0.44c1.4-2.68,2.62-5.31,3.7-7.92c1.07-2.61,1.8-5.32,2.18-8.15c0.38-2.09,0.86-4.24,1.43-6.48
				c0.56-2.23,1.35-4.47,2.37-6.69c0-0.3,0.06-0.53,0.18-0.67c0.26-2.53,0.92-5.06,1.99-7.59c1.07-2.53,2.06-5.05,2.94-7.58
				c0.89-2.98,2.15-5.88,3.8-8.71c1.64-2.82,3.41-5.65,5.31-8.48c1.26-2.08,2.59-4.05,3.98-5.91c1.39-1.86,2.78-3.75,4.17-5.69
				c0.38-0.59,1.26-1.56,2.65-2.9c2.28,2.68,3.66,5.5,4.17,8.48c0.25,0.89,0.5,1.75,0.76,2.56c0.25,0.83,0.5,1.61,0.76,2.35
				c0.5,1.19,0.76,2.49,0.76,3.91C175.94,62.25,175.88,63.69,175.76,65.18z"/>
			<path d="M286.17,61.97c0.88-1.39,1.58-2.81,2.08-4.27c0.5-1.45,1.07-2.87,1.71-4.27c0.25-0.5,0.35-0.97,0.29-1.42
				c-0.06-0.44-0.03-0.92,0.1-1.42v-0.95c0.76-1.01,1.23-2.02,1.42-3.03c0.19-1.01,0.79-2.02,1.8-3.04
				c0.63-0.63,0.83-1.33,0.57-2.08c-0.26-1.39-0.19-2.75,0.19-4.07c0.38-1.33,0.62-2.69,0.76-4.08c0.26-1.51,0-2.72-0.76-3.6
				c-0.39-0.25-0.66-0.56-0.86-0.95c-0.19-0.38-0.41-0.69-0.66-0.94c-0.25-0.25-0.51-0.45-0.76-0.57c-0.25-0.12-0.51-0.25-0.76-0.38
				c-1.01-0.26-1.96-0.38-2.84-0.38c-1.64-0.13-3.26-0.22-4.84-0.29c-1.58-0.06-3.26,0.15-5.02,0.66c-1.4,0.38-2.79,0.56-4.17,0.56
				c-2.53,0.13-5.12,0.66-7.77,1.61c-2.66,0.95-5.32,1.8-7.97,2.56c-1.26,1.01-2.59,1.67-3.98,1.99c-1.39,0.32-2.78,0.86-4.17,1.61
				c-0.13-0.26-0.25-0.41-0.39-0.47c-0.12-0.06-0.19-0.22-0.19-0.48c-0.13-1.26-0.95-1.64-2.47-1.13c-0.76,0.26-1.51,0.41-2.28,0.47
				c-0.76,0.07-1.58,0.16-2.46,0.29c-0.63,1.01-1.01,2.08-1.13,3.23c-0.13,1.13-0.7,2.21-1.71,3.23c0.12-0.89,0.25-1.74,0.38-2.56
				c0.13-0.83,0.32-1.67,0.57-2.56c0.38-0.88-0.06-1.33-1.33-1.33c-0.26,1.13-0.5,2.28-0.76,3.41c-0.25,1.14-0.51,2.21-0.76,3.23
				c-0.39,1.52-1.4,2.91-3.04,4.17c-0.5,0.38-0.98,0.73-1.42,1.04c-0.45,0.32-0.92,0.6-1.42,0.86c-0.25-1.14-0.35-1.9-0.29-2.28
				c0.06-0.38,0.41-1.14,1.04-2.28c0.88-1.64,1.26-2.88,1.13-3.7c-0.12-0.83-0.82-1.55-2.08-2.18c-0.38-0.25-0.85-0.41-1.42-0.48
				c-0.57-0.06-1.11-0.15-1.61-0.28c-0.63,1.01-1.23,1.89-1.8,2.65c-0.56,0.76-0.6,1.58-0.09,2.46c0.12,0.13,0.06,0.35-0.19,0.66
				c-0.25,0.32-0.45,0.6-0.57,0.86c-0.25,0.89-0.38,1.39-0.38,1.51c0,0.39-0.04,0.73-0.1,1.05c-0.06,0.32-0.28,0.66-0.66,1.04
				c-1.01,1.13-1.2,2.28-0.56,3.41l1.34-1.49c0.86,1.39,0.41,2.77-1.34,4.15c-0.89,0.63-1.55,1.33-1.99,2.08
				c-0.45,0.76-0.8,1.59-1.05,2.47c-0.26,0.76-0.5,1.52-0.76,2.28c-0.25,0.76-0.57,1.52-0.95,2.28c-0.25,0.63-0.25,1.01,0,1.13
				c0.26,0.13,0.63,0.19,1.14,0.19c0,0.25,0.06,0.57,0.19,0.95c0.12,0.38,0.12,0.7,0,0.95c-0.38,1.01-0.82,1.96-1.33,2.84
				c-0.5,0.89-1.2,1.7-2.08,2.47c-0.51,0.38-0.76,0.76-0.76,1.13s0.31,0.57,0.95,0.57c0-0.26,0.06-0.44,0.19-0.57
				c-0.12,0.38-0.19,0.73-0.19,1.04c0,0.32-0.45,0.6-1.33,0.86c-0.12,0-0.28,0.09-0.47,0.29c-0.19,0.19-0.22,0.35-0.09,0.47
				c0.25,0.76,0.12,1.52-0.38,2.28c-0.51,0.76-0.83,1.52-0.95,2.28c-0.25,1.14-0.83,1.96-1.7,2.47c-1.14,0.63-1.84,1.58-2.09,2.84
				c0,0.63,0.29,0.92,0.86,0.86c0.57-0.06,0.98,0.03,1.23,0.29c0.12,2.66-1.02,4.93-3.42,6.82c-1.39,1.02-2.15,1.71-2.28,2.09
				c-0.12,0.38,0,1.13,0.38,2.28c-0.38,0.38-0.6,0.79-0.66,1.23c-0.06,0.45-0.06,0.86,0,1.23c0.06,0.38,0.1,0.79,0.1,1.23
				c0,0.44-0.19,0.85-0.57,1.23c-0.13,0.12-0.13,0.25,0,0.38c0.12,0.12,0.19,0.32,0.19,0.56c0.12,0.13,0.19,0.22,0.19,0.29
				c0,0.07,0.06,0.16,0.19,0.29l-1.71,1.71c0.13,2.15-0.09,4.34-0.66,6.54c-0.56,2.22-1.3,3.39-2.18,3.51
				c-0.51-0.12-1.01-0.38-1.52-0.76c-0.26,1.01-0.32,1.61-0.19,1.8c0.12,0.19,0.76,0.35,1.89,0.48c0,1.13-0.63,1.96-1.89,2.46
				c-0.76,0.25-1.33,0.7-1.71,1.33c-0.25,0.63-0.47,1.2-0.66,1.7c-0.18,0.51-0.41,1.08-0.66,1.7c-0.38,1.14-0.73,2.28-1.04,3.42
				c-0.32,1.13-0.66,2.28-1.04,3.41c-0.12,0.25-0.32,0.57-0.57,0.95c-0.26,0.38-0.5,0.63-0.76,0.76c-1.01,0.25-1.64,0.7-1.9,1.33
				c-0.25,0.64-0.5,1.26-0.76,1.9c-0.12,0.38-0.09,0.76,0.09,1.14c0.19,0.38,0.22,0.76,0.1,1.13c-0.13,0.38-0.42,0.76-0.86,1.14
				c-0.45,0.38-0.73,0.76-0.86,1.13c-0.12,0.51-0.06,1.07,0.19,1.7c0.38,0.26,0.53,0.6,0.47,1.04c-0.06,0.45-0.15,0.86-0.28,1.23
				c-0.39,1.4-0.95,2.72-1.71,3.98c-0.38,0.89-0.54,1.42-0.47,1.61c0.06,0.19,0.6,0.41,1.61,0.66c-0.13,0.38-0.22,0.79-0.28,1.23
				c-0.06,0.44-0.22,0.98-0.47,1.61c-0.51-2.02-1.59-2.4-3.23-1.14c-0.13,0.25-0.26,0.54-0.38,0.86c-0.13,0.32-0.07,0.6,0.19,0.85
				c0.63,1.27,0.86,2.21,0.66,2.85c-0.19,0.63-1.04,1.58-2.56,2.85l-2.28,1.7c-0.25,1.01-0.53,1.96-0.85,2.85
				c-0.32,0.88-0.35,1.71-0.09,2.46c0.25,1.01,0.12,1.9-0.39,2.65c-0.5,0.76-1.01,1.58-1.51,2.47c-0.25,0.25-0.51,0.53-0.76,0.85
				c-0.26,0.32-0.39,0.6-0.39,0.86c-0.25,1.39-0.63,2.82-1.13,4.27c-0.51,1.45-1.07,2.88-1.7,4.27c-0.26,0.63-0.45,1.17-0.57,1.61
				c-0.12,0.44-0.38,0.98-0.76,1.6c-0.25,0.51-0.45,1.11-0.57,1.8c-0.12,0.7-0.06,1.3,0.19,1.8c0.5,1.01,1.1,1.87,1.8,2.56
				c0.7,0.69,1.42,1.36,2.18,1.99c0.5-0.38,1.01-0.83,1.51-1.33c0.51-0.5,0.89-0.76,1.14-0.76c0.88,0,1.61-0.32,2.18-0.95
				c0.57-0.63,1.17-1.01,1.81-1.13c0.76-0.13,1.45-0.13,2.08,0c0.63,0.12,1.26,0.19,1.9,0.19c1.13,0.12,2.28,0,3.41-0.38
				c1.14-0.38,2.28-0.57,3.42-0.57c0.63,0,1.36-0.09,2.18-0.29c0.83-0.19,1.49-0.79,1.99-1.8c0.38-0.63,0.73-0.86,1.05-0.66
				c0.31,0.19,0.73,0.16,1.23-0.09c0.25-0.51,0.48-1.01,0.66-1.52c0.19-0.5,0.35-1.01,0.48-1.52c0-0.5-0.04-0.97-0.1-1.42
				c-0.06-0.44-0.09-0.92-0.09-1.42c0-0.51,0.19-0.95,0.57-1.33c0.63-0.89,1.04-1.7,1.23-2.47c0.19-0.76,0.28-1.57,0.28-2.46
				c0-0.25,0.13-0.63,0.39-1.14c0.12-0.5,0.18-0.97,0.18-1.42c0-0.44,0.12-0.92,0.38-1.42c0.12-0.25,0.29-0.48,0.48-0.66
				c0.19-0.19,0.22-0.35,0.09-0.48c-0.25-0.88-0.09-1.74,0.48-2.56c0.56-0.82,1.04-1.67,1.42-2.55c0.12-0.26,0.15-0.54,0.09-0.86
				c-0.06-0.32-0.03-0.53,0.09-0.66c0.89-0.63,1.27-1.26,1.14-1.9c-0.38-0.62-0.45-1.26-0.19-1.89c0.25-0.63,0.51-1.26,0.76-1.9
				c0.5-1.14,0.94-2.28,1.33-3.42c0.38-1.13,1.01-2.21,1.89-3.22c0.76-0.76,1.14-1.46,1.14-2.09c-0.13-1.64,0.57-3.35,2.08-5.12
				c-0.76-0.12-1.33-0.32-1.71-0.57c0.26-1.01,0.53-2.02,0.86-3.03c0.31-1.01,0.73-2.02,1.23-3.03c0.63-1.01,1.17-2.09,1.61-3.23
				c0.44-1.14,1.17-2.21,2.18-3.23c0.76-0.88,1.36-1.9,1.8-3.03c0.45-1.14,0.29-2.21-0.47-3.23c-0.38-0.63-0.32-1.33,0.19-2.08
				c1.4-1.77,2.21-3.66,2.47-5.69c0-0.5,0.38-1.13,1.13-1.89c0.51-0.51,1.01-0.98,1.52-1.43c0.5-0.44,1.01-0.91,1.52-1.42l4.54-0.57
				c0.39,2.15,0.54,4.34,0.48,6.54c-0.07,2.21-0.16,4.4-0.29,6.54c-1.52,0.89-2.46,1.77-2.85,2.65c-0.12,0.38-0.22,0.76-0.28,1.13
				c-0.07,0.39,0.22,0.64,0.85,0.77c0.25,0,0.35,0.18,0.29,0.57c-0.06,0.38-0.09,0.7-0.09,0.94c0,0.64-0.32,1.33-0.95,2.09
				c-0.63,0.76-0.57,1.45,0.19,2.08c-0.12,0-0.19,0.07-0.19,0.19l-0.38,0.38c-1.4,1.39-1.71,2.59-0.95,3.6
				c0.25,0.38,0.18,0.76-0.19,1.13c-0.63,1.02-0.92,1.87-0.85,2.56c0.06,0.69,0.22,1.36,0.47,1.99c0.5,0.89,0.38,1.71-0.38,2.47
				c-0.13,0.12-0.19,0.28-0.19,0.47s0.06,0.29,0.19,0.29c0.88,0.26,1.07,1.07,0.57,2.46c-0.51,1.4-0.86,2.72-1.05,3.98
				c-0.19,1.26-0.66,2.59-1.42,3.99c-0.63,1.39-0.73,2.55-0.29,3.5c0.44,0.95,0.41,2.06-0.09,3.32c-0.26,1.27-0.38,2.28-0.38,3.03
				c0.25,2.15,0,4.11-0.76,5.88c-0.64,1.4-0.89,2.79-0.76,4.17c0.12,1.39-0.12,2.79-0.76,4.17c-0.26,0.25-0.26,0.38,0,0.38
				c0.88,0.76,1.1,1.61,0.66,2.56c-0.45,0.94-0.79,1.93-1.04,2.94c-0.13,0.25-0.29,0.56-0.48,0.94c-0.19,0.39-0.22,0.7-0.09,0.95
				c0.63,0.63,0.86,1.26,0.66,1.9c-0.19,0.63-0.41,1.27-0.66,1.9c-0.38,1.13-0.57,2.34-0.57,3.6c0,0.88-0.19,1.77-0.56,2.65
				c-0.25,1.26-0.51,2.49-0.76,3.69c-0.25,1.2-0.25,2.37,0,3.51c0.12,0.5,0.19,1.33,0.19,2.46c-0.25,0.89,0,1.74,0.76,2.56
				c0.76,0.82,1.52,1.23,2.28,1.23c0.38,0,0.82-0.13,1.33-0.38c1.26-0.64,2.53-1.3,3.8-2c1.26-0.7,2.58-1.36,3.98-1.99
				c0.25,0.13,0.47,0.26,0.66,0.39c0.19,0.12,0.41,0.25,0.66,0.38c0.25,0,0.53-0.03,0.85-0.1c0.32-0.06,0.48-0.15,0.48-0.28
				c0.63-1.02,1.13-1.37,1.51-1.05c0.39,0.32,0.83,0.48,1.33,0.48c0.26-0.89,0.57-1.49,0.95-1.81c0.38-0.32,0.79-0.47,1.23-0.47
				c0.44,0,0.88,0.06,1.33,0.19c0.44,0.12,0.86,0.12,1.23,0c0.25-1.02,0.44-1.97,0.57-2.85c0.12-0.89,0.31-1.77,0.56-2.65h0.38
				c0.13,0,0.26-0.07,0.39-0.19c0.25-1.01,0.41-1.93,0.47-2.75c0.06-0.83,0.6-1.74,1.61-2.75c0.25-0.25,0.41-0.76,0.47-1.52
				c0.06-0.76-0.03-1.2-0.29-1.33c-1.01-0.51-1.01-1.26,0-2.28c0.63-0.76,0.8-1.3,0.48-1.61c-0.22-0.22-0.41-0.41-0.61-0.6
				c0.13-0.07,0.27-0.12,0.42-0.15c0.32-0.06,0.48-0.41,0.48-1.04c0-0.63,0.03-1.2,0.09-1.71c0.05-0.44,0.14-0.95,0.25-1.5
				c-0.29,0.24-0.71,0.55-1.29,0.94v-3.03c0.12-0.76,0.5-1.11,1.13-1.05c0.63,0.07,1.07-0.15,1.33-0.66c0-0.88,0.06-1.77,0.19-2.65
				c0.12-0.88-0.06-1.7-0.57-2.46c-0.12-0.25-0.19-0.51-0.19-0.76c0-0.25,0.25-0.56,0.76-0.94c0.38-0.26,0.69-0.63,0.95-1.14
				c0.25-0.5,0.44-0.95,0.57-1.33c0.25-0.76,0.38-1.52,0.38-2.28c0-0.76,0.06-1.51,0.19-2.28c0-0.63-0.03-1.2-0.09-1.71
				c-0.06-0.5-0.03-1.07,0.09-1.7c0.25-0.89,0.48-1.74,0.66-2.56c0.19-0.82,0.41-1.67,0.66-2.56c0.38-1.39,0.51-2.72,0.38-3.98
				c-0.12-1.26,0.07-2.58,0.57-3.98c0.51-1.39,0.95-2.84,1.33-4.36c0.38-1.52,0.57-2.97,0.57-4.36c0-0.25,0.06-0.54,0.19-0.86
				c0.12-0.32,0.25-0.6,0.38-0.86c0.12-0.25,0.25-0.47,0.38-0.66c0.12-0.19,0.19-0.41,0.19-0.66c-0.25-1.39-0.19-2.84,0.19-4.36
				c0.38-1.51,0.7-3.03,0.95-4.55c0.38-2.14,0.95-4.36,1.7-6.64c0.76-2.28,1.07-4.48,0.95-6.63c-0.13-0.26-0.06-0.76,0.19-1.52
				c0.25-0.88,0.5-1.74,0.76-2.55c0.25-0.83,0.5-1.67,0.76-2.56c0.26-0.89,0.5-1.77,0.76-2.65c0.25-0.89,0.32-1.7,0.19-2.47v-1.61
				c0-0.44,0.06-0.97,0.19-1.6c0.25-1.14,0.44-2.28,0.56-3.42c0.12-1.13,0.25-2.28,0.38-3.41c0.13-1.26,0.45-2.25,0.95-2.94
				c0.51-0.69,1.52-1.42,3.04-2.18c0.76-0.38,1.39-0.88,1.89-1.51c0.51-0.63,1.01-1.26,1.52-1.9c0.63-1.01,1.01-1.67,1.13-1.99
				c0.13-0.32,0.63-0.6,1.52-0.86c1.39-0.63,2.28-1.57,2.65-2.84c0.26-1.01,0.48-1.96,0.66-2.85c0.19-0.88,0.41-1.83,0.66-2.85
				c0.25-0.76,0.63-1.13,1.14-1.13c0-0.12,0.02-0.22,0.09-0.29c0.06-0.06,0.09-0.15,0.09-0.29h0.19c0,0.13-0.04,0.22-0.1,0.29
				c-0.06,0.06-0.09,0.16-0.09,0.29c-0.12,0.38-0.12,0.6,0,0.66c0.12,0.06,0.32-0.03,0.57-0.29c1.13-1.39,2.25-2.75,3.32-4.07
				C284.3,64.73,285.28,63.37,286.17,61.97z M208.61,120.57h-0.56l0.56-1.7h0.57L208.61,120.57z M241.7,61.31
				c0.06-0.06,0.09-0.15,0.09-0.29v-0.19c0.25,0.25,0.32,0.44,0.19,0.57v0.19h-0.38C241.61,61.47,241.63,61.38,241.7,61.31z
				 M221.69,58.94l0.57-0.57c0,0.25-0.07,0.45-0.19,0.57h-0.19c0,0.25-0.07,0.45-0.19,0.57V58.94z M230.8,70.13
				c-0.13-0.63-0.19-1.13-0.19-1.52c0-0.38-0.06-0.76-0.19-1.13c-0.25,0.25-0.42,0.47-0.48,0.66c-0.06,0.19-0.16,0.35-0.29,0.47
				c-1.26,0.51-2.08,1.2-2.46,2.09c-0.38,0.89-0.7,1.77-0.95,2.65c-0.63,1.77-1.26,3.57-1.9,5.4c-0.63,1.84-1.39,3.63-2.28,5.41
				c-0.26,0.63-0.54,1.27-0.85,1.89c-0.32,0.64-0.16,1.27,0.47,1.9c0.38,0.38,0.25,0.89-0.38,1.52c-1.26,1.39-2.18,2.82-2.75,4.27
				c-0.57,1.45-1.17,2.94-1.81,4.45c0,0.26-0.25,0.63-0.76,1.14h-0.57c0.25-0.63,0.44-1.23,0.57-1.8c0.12-0.56,0.31-1.17,0.56-1.8
				c0.13-0.25,0.26-0.5,0.39-0.76c0.12-0.25,0.25-0.5,0.38-0.76c0.25-1.01,0.44-1.96,0.57-2.84c0.12-0.89,0.31-1.77,0.56-2.66
				c0.25-0.88,0.63-1.74,1.14-2.55c0.5-0.83,0.95-1.67,1.33-2.56c0.25-0.76,0.31-1.39,0.19-1.9c0-0.88,0.06-1.39,0.19-1.51
				c0.76-1.14,1.26-2.25,1.51-3.33c0.26-1.07,0.39-2.17,0.39-3.32c0.25-1.26,0.56-2.52,0.95-3.79c0.38-1.26,0.76-2.59,1.13-3.98
				c0-0.26,0.03-0.44,0.09-0.57c0.06-0.12,0.1-0.26,0.1-0.38c1-1.64,2.01-3.26,3.03-4.84c1.01-1.57,2.08-3.19,3.23-4.83
				c0.25-0.39,0.56-0.73,0.94-1.05c0.39-0.31,0.89-0.66,1.52-1.04c-0.38,0.63-0.6,1.2-0.66,1.7c-0.06,0.51,0,0.98,0.19,1.43
				c0.19,0.44,0.41,0.89,0.66,1.33c0.25,0.44,0.44,0.92,0.56,1.42c-0.5-0.26-0.88-0.47-1.13-0.66c-0.25-0.19-0.51-0.41-0.76-0.66
				c-0.25,0.25-0.45,0.47-0.57,0.66c-0.13,0.19-0.25,0.41-0.38,0.66c-0.25,1.01-0.48,1.96-0.66,2.85c-0.19,0.89-0.42,1.83-0.66,2.84
				c-0.13,0.25-0.29,0.54-0.48,0.86c-0.19,0.32-0.03,0.6,0.48,0.86c0.88-1.52,1.77-2.91,2.65-4.17c0.63-0.89,1.33-1.07,2.08-0.57
				l-0.19,0.95c-0.39,1.39-0.99,2.66-1.8,3.8C232.72,67.47,231.81,68.74,230.8,70.13z M267.77,46.8c-0.25,0.25-0.51,0.54-0.76,0.86
				c-0.26,0.32-0.45,0.6-0.57,0.85c0,0.39,0.09,0.73,0.29,1.05c0.19,0.32,0.22,0.66,0.09,1.04c-0.26,1.13-0.35,2.28-0.29,3.41
				c0.06,1.14-0.41,2.34-1.42,3.6c-0.25,0.25-0.41,0.57-0.48,0.95c-0.06,0.38-0.22,0.69-0.47,0.95c-0.26,0.63-0.41,1.23-0.47,1.8
				c-0.07,0.57-0.6,0.98-1.61,1.23c-0.38,0.63-0.79,1.3-1.23,1.99c-0.45,0.69-0.8,1.36-1.04,1.99c-0.13,0.97-0.66,1.76-1.59,2.38
				c0.04-0.12,0.07-0.22,0.07-0.3c0-0.12,0.06-0.31,0.19-0.56v0.19l0.38-0.38c-1.26-0.26-2.28,0.13-3.03,1.14
				c-0.38,0.63-0.76,1.26-1.14,1.89c-0.38,0.64-0.5,1.14-0.38,1.52c0.25,1.01,0.15,1.9-0.29,2.65c-0.44,0.76-0.92,1.52-1.42,2.28
				c-0.51,0.76-1.04,1.52-1.61,2.28c-0.57,0.76-1.36,1.45-2.37,2.08c-0.38,0.25-0.73,0.63-1.04,1.14c-0.32,0.5-0.66,1.01-1.05,1.51
				c-0.5,0.63-1.07,1.2-1.7,1.7c-0.63,0.51-1.39,0.77-2.28,0.77c-1.39,0-2.53,0.38-3.41,1.13c-0.89,0.76-1.7,1.64-2.46,2.65
				c-0.64,1.14-1.52,1.77-2.66,1.9c0.13-0.26,0.19-0.54,0.19-0.86c0-0.31,0.06-0.6,0.19-0.85c0.38-1.26,0.76-2.5,1.13-3.7
				c0.38-1.2,0.89-2.44,1.52-3.7c0.25-0.62,0.41-1.2,0.47-1.7c0.06-0.5-0.16-0.95-0.66-1.33c-0.26-0.12-0.26-0.63,0-1.51
				c0.5-1.26,0.98-2.5,1.42-3.7c0.45-1.2,0.86-2.43,1.23-3.7c0.25-1.01,0.5-2.46,0.76-4.36c0.76-0.63,1.36-1.36,1.81-2.18
				c0.44-0.82,0.79-1.74,1.04-2.75c0.25-0.5,0.44-0.95,0.57-1.33c0.12-0.38,0.57-0.69,1.33-0.95c0.38,0,0.57-0.32,0.57-0.95
				c1.13-2.15,2.55-4.01,4.27-5.59c1.7-1.58,3.44-3.13,5.21-4.65c1.14-1.01,2.28-1.96,3.42-2.85c1.13-0.88,2.34-1.64,3.6-2.28
				c0.63-0.63,1.13-0.82,1.51-0.56c0.89,0.25,1.74,0.19,2.56-0.19c0.82-0.38,1.61-0.82,2.37-1.33c0.12,0.89,0.19,1.74,0.19,2.56
				C268.72,44.88,268.41,45.79,267.77,46.8z M236.68,81.89v-0.19h0.19L236.68,81.89z M278.01,52.31c0-0.25,0.12-0.63,0.38-1.14h0.57
				C278.45,51.67,278.13,52.05,278.01,52.31z"/>
			<path d="M247.67,180.48c-0.01,0.07-0.02,0.13-0.04,0.2c0.09-0.08,0.17-0.14,0.23-0.2H247.67z"/>
			<path d="M204.25,174.8h-0.19c0,0.12-0.03,0.22-0.09,0.29c-0.06,0.06-0.09,0.16-0.09,0.29h0.19c0-0.12,0.03-0.22,0.1-0.29
				C204.22,175.02,204.25,174.92,204.25,174.8z"/>
			<path d="M321.23,23.71c0.01,0.01,0.02,0.01,0.03,0.02c0.05-0.11,0.1-0.24,0.16-0.4L321.23,23.71z"/>
			<path d="M713.39,196.79c0.17-1.64-0.15-3.29-0.98-4.93l0.36-0.95c-0.48-1.02-1.61-1.64-3.39-1.9c-2.85-0.38-5.83-0.7-8.92-0.95
				c-3.09-0.25-6.31-0.12-9.64,0.38c-2.38,0.25-4.64,0.45-6.78,0.57c-2.14,0.12-4.4,0.19-6.78,0.19c-1.67,0-3.39,0.02-5.18,0.09
				c-1.78,0.06-3.69,0.29-5.71,0.66c0.71,0.25,1.37,0.44,1.96,0.57c0.6,0.12,1.49,0.31,2.68,0.56c-2.62-0.12-4.91-0.15-6.87-0.09
				c-1.97,0.06-3.84-0.03-5.62-0.29c-0.6-0.12-1.05-0.41-1.34-0.85c-0.3-0.45-0.62-0.79-0.98-1.05c-1.55-0.12-3.04-0.19-4.46-0.19
				c-1.43,0-2.85-0.07-4.28-0.19c-1.55-0.12-3.09-0.25-4.64-0.38c-1.55-0.12-3.09-0.38-4.64-0.76c-1.67-0.38-3.57-0.6-5.71-0.66
				c-2.14-0.07-4.58-0.22-7.32-0.48c2.5-0.63,4.78-1.04,6.87-1.23c2.08-0.19,4.13-0.29,6.16-0.29c1.19,0,2.44-0.03,3.75-0.1
				c1.31-0.06,2.38-0.22,3.21-0.47c2.26-0.76,4.44-1.07,6.51-0.95c2.08,0.12,3.84,0.44,5.26,0.95c1.43,0.5,2.86,0.79,4.28,0.86
				c1.43,0.06,2.98,0.09,4.64,0.09h11.78c3.93,0,7.86,0.12,11.78,0.38c3.09,0.25,6.19,0.44,9.28,0.57c3.09,0.12,6.37,0.06,9.82-0.19
				c0-0.25-0.03-0.54-0.09-0.85c-0.06-0.32,0.02-0.54,0.27-0.66c2.73-0.64,4.13-1.37,4.19-2.18c0.06-0.83-0.03-1.67-0.27-2.56
				c-3.33-0.5-6.57-0.89-9.72-1.13c-3.16-0.26-6.58-0.26-10.26,0c-6.78,0.63-13.32,0.44-19.63-0.57c-2.02-0.26-4.1-0.45-6.24-0.57
				c-2.14-0.12-4.46-0.06-6.96,0.19c-1.67,0.25-3.46,0.38-5.36,0.38c-1.9,0-3.8-0.32-5.71-0.95c-1.79-0.63-4.04-0.98-6.78-1.04
				c-2.74-0.06-5.48,0.22-8.21,0.86c-1.43,0.25-2.86,0.47-4.28,0.66c-1.43,0.19-2.92,0.09-4.46-0.29c-0.05-0.01-0.09-0.02-0.14-0.04
				l0.14-0.16l-0.32,0.11c-0.82-0.21-1.59-0.38-2.27-0.49c-0.78-0.13-1.58-0.32-2.41-0.57c-1.9,1.01-3.57,1.58-5,1.7
				c-1.43,0.13-3.15-0.12-5.18-0.76c-0.95-0.26-1.93-0.51-2.94-0.76c-1.01-0.25-2.05-0.38-3.12-0.38c-2.85,0-5.62-0.16-8.3-0.48
				c-2.68-0.32-5.56-0.29-8.66,0.1c-0.83,0.12-1.63,0.15-2.41,0.09c-0.77-0.07-1.58-0.16-2.4-0.29c-1.19-0.13-2.12-0.19-2.77-0.19
				c-0.66,0-1.23,0.03-1.7,0.1c-0.48,0.06-0.95,0.22-1.42,0.47c-0.48,0.26-1.13,0.63-1.97,1.14c-0.6,0-1.16-0.07-1.69-0.19
				c-0.54-0.13-1.05,0.06-1.52,0.57c-0.6,0.5-1.43,0.73-2.5,0.66c-1.07-0.07-1.67-0.16-1.79-0.29c-0.24-0.38-0.75-0.66-1.52-0.86
				c-0.78-0.19-1.6-0.35-2.5-0.47c-0.89-0.13-1.73-0.29-2.5-0.48c-0.78-0.19-1.28-0.47-1.52-0.85l-1.07,1.7
				c-0.6-0.25-1.19-0.41-1.79-0.47c-0.6-0.07-1.02-0.22-1.25-0.48c-0.48-0.63-1.22-1.01-2.23-1.13c-1.02-0.13-2.24-0.19-3.66-0.19
				h-4.04c0.29-2.82,0.75-5.8,1.46-8.28c2-6.99,5.99-5.99,6.99-12.98c1-6.99,0-7.99,0-7.99l3.99-2c0,0,6.99-19.96,6.99-21.96
				s1-4.99,3.99-9.98c2.99-4.99,8.98-27.95,8.98-27.95l13.98-42.92l2.99-5.99c0,0,2-7.99,0-10.98c-1.09-1.63-3.35-1.78-5.19-1.58
				c0-0.01,0-0.02,0-0.03c0-1.51,0.3-3.35,0.89-5.49c0.12-0.51,0-0.98-0.35-1.43c-0.36-0.44-0.8-0.82-1.34-1.13
				c-0.54-0.32-1.07-0.5-1.6-0.57c-0.54-0.06-0.99,0.09-1.34,0.48c-0.71,0.76-1.45,1.61-2.23,2.55c-0.78,0.95-1.52,1.74-2.23,2.38
				c-0.71,0.76-1.46,1.51-2.23,2.28c-0.78,0.76-1.52,1.33-2.23,1.71c-0.72,0.38-1.34,0.47-1.88,0.29c-0.53-0.19-0.92-0.86-1.16-1.99
				c-0.24-0.39-0.57-0.48-0.98-0.29c-0.42,0.19-0.86,0.41-1.34,0.66c-0.24,0.12-0.53,0.32-0.89,0.56c-0.35,0.25-0.71,0.51-1.07,0.76
				c-0.48,0.25-0.95,0.44-1.43,0.56c-0.47,0.13-0.95,0.39-1.42,0.76c-0.48,0.38-0.98,1.01-1.52,1.9c-0.54,0.88-1.05,2.14-1.52,3.79
				l-0.18,0.19c-0.12,0-0.17,0.06-0.17,0.19c-0.96,0.76-1.73,2.02-2.32,3.8c-0.6,1.77-1.13,3.48-1.61,5.12
				c-0.83,3.54-1.93,7.05-3.3,10.52c-1.37,3.48-2.35,6.92-2.94,10.34c-1.31,3.16-2.32,6.29-3.04,9.38c-0.71,3.1-1.55,6.16-2.5,9.2
				c-0.95,4.05-2.08,7.96-3.39,11.76c-1.31,3.79-2.61,7.65-3.93,11.57c-1.31,3.79-2.7,7.55-4.19,11.28
				c-1.49,3.73-2.35,7.49-2.59,11.28c-0.12,0.39-0.21,0.83-0.27,1.33c-0.07,0.51-0.21,1.02-0.45,1.52c-0.95,1.9-1.69,3.89-2.23,5.97
				c-0.54,2.09-1.22,4.14-2.06,6.16l-0.36,0.38c-0.24,1.14-0.6,2.28-1.07,3.41c-0.48,1.14-0.71,2.35-0.71,3.6
				c0,0.64-0.21,1.58-0.62,2.85c-0.42,1.26-0.75,2.4-0.99,3.41c-0.95,2.53-1.82,5-2.59,7.4c-0.78,2.4-1.63,4.87-2.59,7.39L517,172.7
				l-2.85,9.48c-0.95,3.29-1.97,6.6-3.04,9.96c-1.07,3.34-2.08,6.67-3.04,9.95h4.82c0.95,0,1.9,0.03,2.85,0.09
				c0.95,0.06,1.79,0.16,2.5,0.29c1.31,0.26,2.59,0.41,3.83,0.47c1.25,0.06,2.59,0.16,4.02,0.29c1.43,0.12,2.85,0.19,4.28,0.19h4.28
				c1.55,0,3.06-0.03,4.55-0.09c1.48-0.07,3-0.04,4.55,0.09c0.6,0,1.25-0.16,1.97-0.48c0.71-0.32,1.36-0.47,1.96-0.47h39.08
				c0.6,0.26,1.19,0.44,1.79,0.57c0.6,0.12,1.18,0.31,1.79,0.56c3.45-0.63,6.87-0.95,10.26-0.95h10.26
				c7.73,0.13,15.37,0.25,22.93,0.39c7.55,0.12,15.2,0.25,22.93,0.38c2.97,0.12,5.98,0.15,9.01,0.09c3.04-0.06,5.92,0.03,8.66,0.29
				c4.88,0.38,9.72,0.6,14.54,0.66c4.81,0.06,9.72,0.09,14.72,0.09c1.07,0,2.14-0.06,3.22-0.19c1.07-0.13,2.14-0.32,3.21-0.57
				c2.26-0.38,3.39-1.07,3.39-2.08C713.24,200.07,713.21,198.43,713.39,196.79z M658.15,178.2l0.54,0.19h-0.54V178.2z M585.18,35.28
				l-0.05,0.12c0.02-0.04,0.03-0.09,0.05-0.13L585.18,35.28z M584.66,36.53l-1.19,2.87c0.23-0.79,0.5-1.49,0.8-2.08
				C584.42,37.06,584.54,36.79,584.66,36.53z M557.87,185.89c-0.12,0.06-0.3,0.09-0.54,0.09c-0.24,0-0.42-0.03-0.54-0.09
				c-0.12-0.07-0.3-0.1-0.53-0.1c0.23,0,0.41-0.03,0.53-0.09c0.12-0.07,0.3-0.09,0.54-0.09c0.24,0,0.41,0.02,0.54,0.09
				c0.12,0.06,0.29,0.09,0.54,0.09C558.16,185.79,557.98,185.82,557.87,185.89z M567.68,185.79h-0.17v-0.19h6.06l0.36,0.19H567.68z
				 M601.05,186.36h0.18v-0.76l19.81,0.76l-0.35,0.57L601.05,186.36z M614.43,187.69c0.84-0.13,1.52-0.22,2.06-0.29
				c0.54-0.06,1.07-0.09,1.6-0.09s1.13,0.03,1.79,0.09c0.65,0.06,1.57,0.15,2.77,0.29H614.43z M676.54,191.67
				c-0.96,0.12-1.9-0.12-2.85-0.76h6.24C678.62,191.29,677.49,191.54,676.54,191.67z M685.1,191.67l-0.17-0.19h0.54l0.17,0.19H685.1
				z"/>
			<polygon points="574.64,176.31 574.46,176.31 574.29,176.5 			"/>
			<path d="M592.84,117.19v-0.16l-0.09,0.46c0.01-0.01,0.02-0.02,0.03-0.03L592.84,117.19z"/>
			<path d="M594.91,109.45c-0.81,0.23-1.12,0.46-0.95,0.69c0.18,0.23,0.32,0.46,0.44,0.69c0,0.34-0.06,0.63-0.18,0.86l-1.37,5.5
				v0.18c-0.02,0.03-0.04,0.06-0.07,0.09l-0.11,0.43l0.08-0.4c-0.53,0.65-0.93,1.33-1.2,2.03c-0.29,0.75-0.66,1.46-1.11,2.15
				c-0.23,0.34-0.46,0.86-0.69,1.55c-0.23,1.15-0.4,2.27-0.51,3.36c-0.12,1.09-0.35,2.21-0.69,3.36c-0.34,0.92-0.55,1.78-0.6,2.58
				c-0.06,0.81-0.49,1.67-1.29,2.59c0,0.12-0.06,0.23-0.18,0.34c0,1.04-0.14,2.07-0.43,3.1c-0.29,1.03-0.49,2.07-0.6,3.1
				c0,0.23-0.08,0.52-0.26,0.86c-0.18,0.34-0.32,0.63-0.43,0.86c-0.23,0.69-0.46,1.37-0.69,2.07c-0.23,0.69-0.46,1.37-0.69,2.07
				c-0.34,1.03-0.67,2.09-0.95,3.18c-0.29,1.09-0.67,2.15-1.12,3.19c-0.34,1.03-0.63,2.07-0.86,3.1c-0.23,1.04-0.34,2.07-0.34,3.1
				l-0.52,2.07c-0.23,0.92-0.49,1.78-0.77,2.58c-0.29,0.81-0.26,1.61,0.08,2.41c0.69,1.15,1.89,1.38,3.62,0.69
				c0.34-0.12,0.71-0.2,1.12-0.26c0.4-0.06,0.72-0.03,0.95,0.08c0.8,0.34,1.6,0.43,2.41,0.26c0.8-0.17,1.6-0.37,2.41-0.6
				c0.92-0.34,1.81-0.6,2.67-0.78c0.86-0.17,1.75-0.14,2.67,0.09c0.23,0,0.43-0.03,0.6-0.09c0.17-0.06,0.37-0.08,0.6-0.08
				c0.23,0,0.46-0.03,0.69-0.08c0.23-0.06,0.46-0.09,0.69-0.09c2.52,0,4.7-0.92,6.54-2.75c0.46-0.11,0.83-0.17,1.12-0.17
				c0.29,0,0.6-0.06,0.95-0.17v-1.81c0-0.63,0.12-1.23,0.35-1.81c0.34-1.49,0.74-2.96,1.21-4.39c0.46-1.43,0.92-2.89,1.37-4.39
				c2.18-6.54,4.25-13.09,6.2-19.63c0.57-1.6,1.03-3.16,1.38-4.65c0.34-1.48,0.8-3.04,1.37-4.64c0.69-2.3,1.41-4.53,2.15-6.72
				c0.75-2.18,1.46-4.41,2.16-6.71c0.91-2.52,1.74-5.02,2.49-7.49c0.74-2.47,1.58-4.97,2.49-7.49c0.57-1.72,1.12-3.45,1.64-5.17
				c0.51-1.72,1.06-3.44,1.63-5.16c0.11-0.34,0.18-0.69,0.18-1.03s0.06-0.69,0.17-1.04c0.57-1.6,1.18-3.15,1.81-4.64
				c0.63-1.49,1.23-3.04,1.81-4.65c0.23-0.46,0.35-0.8,0.35-1.03c-0.23-0.11-0.49-0.18-0.78-0.18c-0.29,0-0.55-0.06-0.78-0.17
				c-0.8-0.23-1.63-0.32-2.49-0.26c-0.86,0.06-1.75,0.2-2.67,0.43c-0.92,0.23-1.72,0.49-2.41,0.78c-0.69,0.29-1.21,0.77-1.55,1.46
				c-0.92-0.46-1.67-0.35-2.24,0.34v0.52l-3.1,4.64h-0.52c0.11-0.23,0.17-0.4,0.17-0.52c0-0.11,0.06-0.28,0.17-0.51
				c0.92-1.95,0.41-3.16-1.55-3.62c-1.03-0.23-1.75-0.32-2.15-0.26c-0.41,0.06-0.89,0.55-1.46,1.46c-0.11,0.11-0.17,0.2-0.17,0.25
				c0,0.06-0.06,0.15-0.18,0.26h-0.34c-0.46-0.22-0.75-0.4-0.86-0.51c-0.23,0.23-0.52,0.4-0.86,0.51c-0.34,0.12-0.52,0.29-0.52,0.52
				c-0.57,1.49-1.44,2.75-2.58,3.79c-0.23,0.11-0.34,0.29-0.34,0.51c-0.46,1.15-0.75,2.01-0.86,2.59c-0.12,0.12-0.15,0.23-0.09,0.34
				c0.06,0.12-0.03,0.23-0.25,0.34c-0.58,0.34-0.9,0.69-0.95,1.04c-0.06,0.34-0.14,0.69-0.25,1.03c0.22,1.15-0.06,2.19-0.86,3.1
				c-0.23,0.11-0.38,0.25-0.43,0.43c-0.06,0.17-0.03,0.26,0.08,0.26c0.57,0.23,0.81,0.58,0.69,1.03c-0.12,0.46-0.06,0.86,0.17,1.2
				c-0.92,0.81-1.81,1.58-2.67,2.33c-0.85,0.75-1.69,1.46-2.49,2.15c0.11,0.23,0.23,0.43,0.34,0.6c0.11,0.18,0.11,0.38,0,0.6
				c-0.11,0.23-0.32,0.41-0.6,0.52c-0.29,0.12-0.55,0.29-0.77,0.52c1.37,0,1.89,0.4,1.55,1.21c0,0.23-0.12,0.57-0.34,1.03
				c-0.23,0.58-0.52,1.21-0.86,1.9c-0.34,0.69-0.63,1.37-0.86,2.07c-0.34-0.12-0.75-0.29-1.2-0.52c-0.23,0.46-0.46,0.89-0.69,1.29
				c-0.23,0.41-0.29,0.72-0.18,0.95c0.23,0.58,0.06,1.12-0.52,1.64C594.84,108.33,594.67,108.88,594.91,109.45z M614.87,84.31
				c0.23-1.26,0.75-2.52,1.55-3.78h0.51l-0.34,0.34c-0.46,1.26-0.92,2.47-1.37,3.61c-0.46,1.15-0.92,2.35-1.38,3.62
				C614.3,86.84,614.64,85.58,614.87,84.31z"/>
			<path d="M615.54,64.01c0.46,0.54,0.97,1.07,1.56,1.61c0.22-0.11,0.6-0.26,1.11-0.48c0.52-0.22,0.95-0.22,1.3,0
				c0.57,0.22,1.06,0.22,1.46,0c0.4-0.22,0.88-0.43,1.46-0.65c0.46-0.21,0.89-0.4,1.3-0.56c0.4-0.16,0.71-0.35,0.95-0.56
				c0.57,0.54,1.03,0.88,1.38,1.04c0.34,0.16,1.32,0.24,2.92,0.24c1.26,0,2.53-0.05,3.79-0.16c1.26-0.1,2.64-0.74,4.13-1.93
				c1.37-1.18,2.23-2.46,2.58-3.86c0.57-1.92,1.18-3.85,1.81-5.78c0.62-1.93,1.34-3.86,2.15-5.78c0.46-1.18,0.95-2.38,1.46-3.61
				c0.51-1.23,1.06-2.43,1.63-3.61c0.23-0.54,0.4-1.1,0.52-1.69c0.11-0.59,0.34-1.15,0.69-1.69c0.81-1.18,1.29-2.27,1.46-3.29
				c0.18-1.01,0.37-2.06,0.6-3.13c0-0.22,0.03-0.46,0.08-0.73c0.06-0.26,0.09-0.5,0.09-0.72c0-0.22,0.02-0.46,0.08-0.72
				c0.06-0.27-0.03-0.5-0.26-0.72c-0.23-0.54-0.52-1.05-0.86-1.53c-0.34-0.48-0.69-0.99-1.03-1.52h-21.18
				c-1.04,0.54-2.04,1.07-3.01,1.6c-0.98,0.54-1.81,1.4-2.5,2.57c0,0.22-0.17,0.37-0.51,0.48c-0.92,0.75-1.2,1.55-0.86,2.41
				c0.22,0.75,0.4,1.52,0.52,2.33c0.11,0.8-0.17,1.74-0.86,2.81l1.37-0.48v-0.16c0.23,0.43,0.29,0.75,0.18,0.97
				c-0.12,1.28-0.38,2.57-0.78,3.85c-0.4,1.29-0.89,2.58-1.46,3.86c-1.15,2.46-2.21,4.95-3.18,7.47c-0.98,2.52-1.75,5.01-2.33,7.47
				c-0.23,1.5,0.06,2.57,0.86,3.21C614.62,62.99,615.09,63.48,615.54,64.01z"/>
			<path d="M686.02,161.31c0.06-0.12,0.09-0.3,0.09-0.53c0.95-0.47,1.54-0.82,1.78-1.06l0.17,0.17c0.24-0.59,0.38-1.15,0.45-1.68
				c0.06-0.53,0.27-1.03,0.62-1.51c2.01-2.72,2.36-4.97,1.06-6.75c-0.24-0.35-0.47-0.71-0.71-1.06c-0.24-0.36-0.59-0.59-1.06-0.72
				c-1.55-0.35-3.14-0.62-4.8-0.8c-1.66-0.18-3.43-0.15-5.33,0.09c-1.78,0.24-3.5,0.3-5.15,0.18c-1.66-0.12-3.49,0.3-5.51,1.24
				c-0.24,0.12-0.51,0.14-0.79,0.09c-0.3-0.06-0.56-0.09-0.8-0.09c-1.42-0.24-2.87-0.42-4.35-0.53c-1.48-0.12-2.93-0.3-4.35-0.53
				c-0.24,0-0.42,0.03-0.53,0.09c-0.12,0.07-0.3,0.09-0.53,0.09h-1.15c-0.42,0-0.8-0.06-1.16-0.18c-1.78-0.35-3.53-0.71-5.24-1.06
				c-1.72-0.36-3.46-0.77-5.24-1.24c-0.24-0.12-0.45-0.21-0.62-0.27c-0.18-0.06-0.39-0.21-0.62-0.45c-0.95-0.82-1.69-1.12-2.22-0.89
				c-0.53,0.24-1.16,1.01-1.86,2.31c-0.36,0.59-0.53,1.13-0.53,1.6c-0.12,1.31-0.35,2.64-0.71,4c-0.36,1.37-0.18,2.57,0.53,3.64
				v0.17c-0.47,1.31-0.68,2.52-0.62,3.64c0.06,1.13-0.03,2.28-0.27,3.46c-0.47,2.73,0.36,4.44,2.49,5.15
				c0.83,0.24,1.63,0.51,2.4,0.8c0.77,0.3,1.57,0.56,2.4,0.79c1.42,0.24,2.87,0.48,4.35,0.72c1.48,0.24,3.05,0.06,4.7-0.53
				c0.59-0.24,1.1-0.32,1.51-0.27c0.41,0.07,0.86,0.09,1.34,0.09c1.3,0.12,2.6,0.21,3.9,0.27c1.3,0.07,2.6,0.15,3.91,0.27
				c1.18,0,2.01,0.12,2.49,0.35c1.18,0.48,2.43,0.53,3.73,0.18c1.42-0.47,2.84-0.83,4.26-1.07c1.42-0.23,2.78-0.29,4.08-0.17
				c1.3,0.12,2.67-0.12,4.08-0.72c1.42-0.59,2.85-1.36,4.26-2.31c-0.24-0.24-0.51-0.47-0.79-0.71c-0.3-0.24-0.45-0.53-0.45-0.89
				c-0.12-0.35-0.06-0.74,0.18-1.16c0.23-0.41,0.47-0.86,0.71-1.33c0-0.12-0.06-0.21-0.17-0.27c-0.12-0.06-0.12-0.14,0-0.27
				C685.94,161.55,685.96,161.43,686.02,161.31z"/>
			<path d="M732.83,42.9c-0.11-0.6-0.48-1.05-1.09-1.36c-0.5-0.32-0.84-0.78-1-1.38c-0.44-1.05-0.86-2.11-1.23-3.17
				c-0.39-1.06-0.91-2.05-1.58-2.96c-1.25-2.32-2.73-4.41-4.42-6.27c-1.7-1.86-4.05-3.04-7.06-3.52c-0.36,0.03-0.54-0.02-0.55-0.14
				c-1.52-1.08-3.25-1.61-5.2-1.58c-1.96,0.04-3.89,0.01-5.8-0.08c-0.35,0.03-0.59,0.11-0.7,0.24c-0.66,0.66-1.28,0.98-1.88,0.96
				c-0.6-0.01-1.19-0.05-1.79-0.12c-0.35,0.03-0.99,0.2-1.92,0.52c-1.02,0.56-2.08,1.11-3.17,1.62c-1.09,0.52-2.14,1.05-3.16,1.61
				c-1.7,0.99-2.63,0.58-2.77-1.22c-0.02-0.24-0.01-0.52,0.02-0.82c0.03-0.31,0.05-0.57,0.03-0.81c-1.76,0.26-3.48,0.73-5.14,1.41
				c-1.67,0.68-3.27,1.75-4.82,3.21c-1.21,1.18-2.39,2.4-3.53,3.64c-1.15,1.25-2.26,2.52-3.34,3.82c-1.31,1.44-2.52,2.95-3.64,4.56
				c-1.12,1.61-2.2,3.24-3.26,4.9c-0.85,1.28-1.61,2.52-2.28,3.73c-0.68,1.21-1.2,2.49-1.56,3.85l0.46,0.12
				c-0.59,0.81-1.16,1.57-1.69,2.25c-0.64,0.84-1.22,1.76-1.73,2.77c-0.81,1.77-1.51,3.4-2.1,4.89c-0.48,1.38-1.15,2.76-1.98,4.16
				c-0.84,1.41-1.32,2.83-1.43,4.29c-0.06,0.74-0.3,1.51-0.7,2.33c-0.41,0.82-1.07,1.51-1.97,2.07c-0.23,0.14-0.37,0.27-0.42,0.4
				c-0.05,0.12-0.13,0.25-0.23,0.38c-0.28,0.99-0.56,1.92-0.85,2.79c-0.28,0.87-0.51,1.8-0.67,2.78c-0.21,0.38-0.32,0.82-0.34,1.3
				c-0.03,0.49,0.15,0.84,0.53,1.05c0.33-0.27,0.83-0.8,1.48-1.58c-0.19,0.62-0.32,1.21-0.39,1.75c-0.08,0.55-0.17,0.83-0.29,0.84
				c-0.81,0.31-1.28,0.77-1.4,1.39c-0.13,0.62-0.35,1.18-0.67,1.69c-0.3,0.63-0.43,1.28-0.38,1.94c0.05,0.67-0.01,1.31-0.2,1.92
				l-0.75,3.87c-0.38,1.24-0.54,2.17-0.49,2.77c-0.44,1.85-0.65,3.69-0.62,5.5c-0.11,1.59-0.22,3.14-0.33,4.66
				c-0.12,1.52-0.23,3.08-0.34,4.66l0.22,2.7c0.13,0.23,0.16,0.51,0.07,0.82c-0.09,0.31-0.01,0.58,0.25,0.8
				c0.39,0.45,0.62,0.98,0.66,1.58c0.05,0.6,0.03,1.21-0.03,1.82c0.21,1.19,0.39,2.36,0.55,3.5c0.15,1.14,0.56,2.16,1.23,3.08
				l1.2,1.54c0.66,0.91,1.3,1.8,1.9,2.66c0.61,0.86,1.3,1.68,2.07,2.46c1.17,1.24,2.58,2.13,4.22,2.66
				c1.65,0.53,3.27,1.16,4.87,1.88c0.25,0.11,0.61,0.14,1.08,0.1c0.83,0.05,1.63,0.05,2.41-0.02l2.38-0.19
				c1.67-0.01,3.3-0.33,4.91-0.94c1.62-0.61,3.21-1.41,4.8-2.38c0.79-0.43,1.59-0.85,2.39-1.28c0.79-0.43,1.59-0.86,2.39-1.29
				c0.91-0.44,1.83-0.81,2.76-1.13c0.92-0.31,1.78-0.81,2.56-1.48c2.34-1.88,4.58-3.91,6.72-6.08c2.14-2.18,4.31-4.38,6.5-6.62
				c1.63-1.82,2.9-3.8,3.79-5.93c0.21-0.39,0.64-0.96,1.29-1.75c0.97-1.28,1.99-2.52,3.09-3.7c1.09-1.17,2-2.46,2.72-3.85
				c1.77-3.05,3.49-6.06,5.15-9.04c1.66-2.98,3.01-6.09,4.05-9.32c-0.01-0.12,0.15-0.37,0.47-0.76c0.99-1.05,1.72-2.16,2.22-3.36
				c0.5-1.19,0.99-2.42,1.49-3.67c0.2-0.5,0.36-0.96,0.51-1.4c0.14-0.43,0.31-0.9,0.51-1.4c0.09-0.37,0.41-0.76,0.97-1.17
				c0.05,0.61,0.14,1.02,0.28,1.25c0.57-1.74,1.11-3.45,1.64-5.12c0.51-1.68,1.12-3.39,1.81-5.14c0.97-2.62,1.44-4.96,1.39-7.02
				c0.13-1.34,0.17-2.71,0.12-4.1c-0.05-1.39-0.02-2.75,0.11-4.1c-0.06-0.72-0.09-1.42-0.08-2.09c0-0.67,0.15-1.43,0.44-2.3
				C732.83,44.11,732.94,43.5,732.83,42.9z M668.17,45.31c0.36-0.69,0.75-1.36,1.17-2l0.53-0.04c-0.54,0.65-0.93,1.32-1.17,2
				c-0.2,0.58-0.66,1.01-1.33,1.33C667.66,46.18,667.94,45.75,668.17,45.31z M665.18,50.27c0.1-0.4,0.35-0.74,0.74-1
				c-0.09,0.29-0.25,0.56-0.49,0.81c-0.1,0.1-0.19,0.22-0.29,0.33C665.15,50.36,665.17,50.31,665.18,50.27z M704.25,65.19
				c-0.07,0.61-0.23,1.29-0.46,2.03c-0.24,0.74-0.45,1.49-0.62,2.23c-0.76,2.36-1.49,4.7-2.2,6.98c-0.71,2.3-1.44,4.63-2.2,6.99
				c-0.96,2.86-2.06,5.71-3.32,8.53c-1.26,2.83-2.48,5.68-3.67,8.57c-0.5,1.13-1.13,2.21-1.88,3.23c-0.75,1.04-1.38,2.05-1.89,3.06
				c-1.04,1.78-2.19,3.41-3.43,4.9c-1.25,1.5-2.46,3.08-3.63,4.74c-0.86,1.16-1.78,2.27-2.76,3.31c-0.98,1.05-1.98,2.01-2.97,2.87
				c-1,0.87-2,1.77-2.99,2.7c-1.35-0.62-2.34-1.47-2.97-2.58c-0.62-1.1-1.27-2.17-1.95-3.2c-1.39-2.43-2.33-5.32-2.84-8.68
				c-0.13-0.11-0.2-0.19-0.2-0.25c0-0.06-0.07-0.15-0.2-0.26l-0.18,0.01c0.01,0.12-0.01,0.21-0.06,0.28
				c-0.05,0.06-0.07,0.15-0.07,0.27c0.06,0.73,0.16,1.32,0.32,1.79c-0.61-0.19-0.95-0.34-1.02-0.46c-0.07-0.11,0.16-0.61,0.68-1.5
				l-0.37-0.15c-0.59,0.17-0.88,0.11-0.91-0.2c-0.02-0.29-0.12-0.63-0.26-0.98c-0.33-1.18-0.7-2.79-1.1-4.81
				c-0.73,1.27-1.15,2.33-1.26,3.18c-0.11,0.86-0.07,1.71,0.12,2.54c0.09,1.08,0.19,2.13,0.34,3.15c0.14,1.02,0.31,2,0.51,2.95
				c-0.08,0.49-0.07,1.34,0.02,2.54c-0.71-0.06-1.08-0.15-1.09-0.27c-0.43-0.93-0.9-1.86-1.39-2.79c-0.49-0.93-0.67-2.01-0.53-3.23
				l-0.22-2.7l-0.45-5.6c1.4-0.36,2.12-1.01,2.16-1.99c0.01-1.33,0.11-2.64,0.31-3.93c0.19-1.29,0.35-2.6,0.48-3.95
				c-0.07-0.84,0.15-1.76,0.67-2.77c0.15,1.81,0.21,3.65,0.18,5.52c-0.02,1.89-0.07,3.86-0.14,5.92c0.54-0.65,0.88-1.19,1.03-1.63
				c0.15-0.43,0.32-0.84,0.52-1.22l0.66,8.12c0.14,0.23,0.27,0.38,0.39,0.43c0.12,0.05,0.25,0.13,0.38,0.24
				c-0.02-0.24-0.09-0.42-0.22-0.53c-0.13-0.11-0.15-0.29-0.04-0.54c0.12-1.34,0.25-2.71,0.38-4.12c0.13-1.4,0.24-2.84,0.36-4.29
				c0.69,1.16,0.98,2.46,0.85,3.92c-0.12,1.47,0.17,2.77,0.85,3.93c0.91-0.55,1.25-1.07,1.03-1.54c-0.21-0.46-0.41-1-0.57-1.59
				c0.22-0.25,0.46-0.55,0.73-0.87c0.26-0.32,0.63-0.69,1.06-1.08c0.04,0.48,0.21,1.07,0.51,1.77l0.85-0.43
				c1.13-2.27,2.1-4.49,2.94-6.68c0.83-2.19,1.33-4.44,1.5-6.75c0.22-1.72,0.52-3.49,0.91-5.34c0.38-1.85,0.97-3.71,1.78-5.59
				c-0.02-0.24,0.02-0.43,0.13-0.56c0.07-2.06,0.53-4.16,1.36-6.29c0.84-2.12,1.59-4.24,2.25-6.35c0.63-2.47,1.62-4.91,2.97-7.33
				c1.35-2.41,2.81-4.83,4.4-7.26c1.05-1.78,2.16-3.47,3.33-5.08c1.18-1.61,2.35-3.24,3.53-4.92c0.31-0.51,1.07-1.36,2.29-2.54
				c2.3,2,3.78,4.17,4.45,6.54c0.29,0.7,0.58,1.38,0.87,2.01c0.28,0.65,0.57,1.26,0.86,1.85c0.55,0.92,0.87,1.95,0.96,3.1
				c0.09,1.15,0.13,2.32,0.11,3.53c0,1.57,0.04,3.09,0.1,4.53C704.39,62.09,704.36,63.61,704.25,65.19z"/>
			<path d="M424.29,83.74c0-0.51,0.03-0.95,0.09-1.33c0.06-0.38,0.16-0.82,0.29-1.33c0.12-0.25,0.12-0.56,0-0.94
				c-0.12-0.39-0.25-0.7-0.38-0.95c0-0.12-0.06-0.63-0.19-1.52c-0.12-0.88-0.22-1.8-0.28-2.75c-0.07-0.95-0.1-1.87-0.1-2.75v-1.51
				c0.12-0.12,0.19-0.26,0.19-0.38c0-0.13,0.12-0.26,0.38-0.39c0.88-1,1.17-1.86,0.86-2.55c-0.32-0.7-0.73-1.3-1.23-1.81
				c-0.26-0.25-3.51-0.47-9.77-0.66c-2.16-0.06-4.57-0.13-7.23-0.19c0.06-0.35,0.06-0.58-0.01-0.65c-0.63-0.63-0.73-1.36-0.29-2.18
				c0.44-0.82,0.79-1.61,1.04-2.37c0.5-1.39,1.2-2.78,2.09-4.17c0.88-1.39,1.51-2.78,1.89-4.17c0-0.26,0.06-0.48,0.19-0.66
				c0.04-0.07,0.1-0.15,0.16-0.24l7-0.6c1.12,0,2.18,0,3.19,0h9.58c1,0,1.64,0.13,1.89,0.38c0.89,0.51,1.84,0.66,2.85,0.48
				c1.01-0.19,2.02-0.54,3.03-1.04c0.1-0.05,0.18-0.12,0.27-0.2c0.31-0.07,0.62-0.13,0.92-0.2c1.01-0.25,2.02-0.56,3.04-0.95
				c0.88-0.25,1.74-0.62,2.55-1.13c0.83-0.5,1.74-1.01,2.76-1.52c-0.38-0.12-0.8-0.22-1.23-0.28c-0.45-0.07-0.86-0.16-1.23-0.29
				c1.01-0.89,2.15-1.27,3.42-1.14c1.26,0.13,2.4-0.44,3.41-1.71c-0.51-0.25-0.98-0.44-1.42-0.57c-0.45-0.12-0.98-0.31-1.61-0.56
				c1.26-0.63,2.43-1.2,3.5-1.71c1.07-0.5,2.18-1.07,3.33-1.7l-2.66-1.33c-0.12-0.38,0-0.79,0.39-1.23
				c0.38-0.44,0.19-0.79-0.57-1.04c-1.01-0.5-1.01-1.2,0-2.08c0.5-0.5,0.82-0.57,0.95-0.19c0.12,0.38,0.38,0.57,0.76,0.57
				c0.12,0,0.22-0.03,0.29-0.09c0.06-0.06,0.22-0.1,0.47-0.1l1.14-2.84c0.76-1.14,1.1-1.87,1.04-2.18c-0.06-0.31-0.66-0.59-1.8-0.85
				c-0.64-0.13-1.33-0.19-2.09-0.19h-8.53c-1.01,0-1.96-0.03-2.84-0.09c-0.89-0.06-1.84-0.16-2.85-0.29
				c-0.63-0.12-1.33-0.19-2.08-0.19h-2.4c-0.02-0.01-0.04-0.02-0.06-0.03c0.08-0.33,0.17-0.65,0.26-0.96c-0.07,0-0.14,0-0.21,0.01
				c-0.86,0.44-1.73,0.84-2.64,1.16c-1.24,0.2-0.66,0.44-2.6,0.44h-2.96V26l-6.4,0.44c-3.15-0.03-6.72-0.07-11.08-0.14
				c0,0,0-0.01,0-0.01c-1.5,0-1.67-0.31-2.26-0.13h0c-0.23,0-0.46-0.01-0.69-0.01c-0.16-0.05-0.34-0.09-0.65-0.01c0,0-0.01,0-0.01,0
				c-0.1,0-0.2,0-0.3,0c-0.54-0.12-0.95-0.82-0.95-0.82h-1.95l-3,1c-1.37,0.06-2.8,0.07-4.19-0.06c-0.81-0.48-1.92-0.94-3.19-0.94
				h-1.05c-0.3-0.12-0.6-0.26-0.89-0.41c-0.72,1.92-1.44,3.83-2.16,5.75c-0.63,1.4-1.04,2.66-1.23,3.8
				c-0.19,1.13,0.09,2.21,0.86,3.23c0.25,0.63,0.22,1.2-0.1,1.7c-0.31,0.5-0.65,1.06-1.03,1.68l-0.22-0.3
				c0.01-0.02,0.01-0.04,0.02-0.05h-0.06l-0.41-0.54l-0.06-0.02c-0.08-0.19-0.1-0.35-0.05-0.48c0.12-0.32,0.7-0.98,1.71-1.99
				c-1.39,0.38-2.21,0.69-2.46,0.95c-0.16,0.16-0.32,0.54-0.48,1.1l-0.08-0.03c0.08-0.64,0.16-1.29,0.21-1.94
				c0.12-0.38,0.15-0.76,0.09-1.13c-0.06-0.39-0.16-0.57-0.29-0.57c-0.76-0.38-1.51-0.66-2.28-0.86c-0.76-0.19-1.58-0.03-2.46,0.48
				c-0.63,0.25-1.17,0.44-1.61,0.56c-0.45,0.13-0.98,0.32-1.61,0.57c-0.38,0-0.83,0.03-1.33,0.09c-0.51,0.07-1.07,0.29-1.7,0.66
				c0.63,0.25,1.01,0.51,1.13,0.76c-0.63,0-1.2,0.06-1.7,0.19c-0.51,0.13-0.95,0.07-1.33-0.19v-0.95c0-0.38-0.06-0.69-0.19-0.95
				c-0.88,0-1.51-0.12-1.89-0.38c-0.39-0.12-0.76-0.22-1.14-0.29c-0.38-0.06-0.7-0.22-0.95-0.47c-0.25-0.39-0.63-0.6-1.13-0.67
				c-0.51-0.06-1.08-0.15-1.7-0.28c1.26-1.01,2.46-1.58,3.6-1.71c0.88,0,1.51-0.19,1.89-0.56c0.63-0.76,1.17-1.11,1.61-1.04
				c0.44,0.06,0.79,0.28,1.04,0.66c0.25,0.5,0.54,0.79,0.86,0.85c0.32,0.07,0.66,0.09,1.04,0.09c1.01,0,1.99-0.02,2.94-0.09
				c0.95-0.06,1.93-0.03,2.94,0.09c1.13,0.64,2.53,0.7,4.17,0.19c0-0.12,0.03-0.26,0.09-0.38c0.06-0.12,0.09-0.25,0.09-0.38v-0.38
				c0.89-0.76,1.45-1.55,1.7-2.38c0.26-0.82,0.39-1.61,0.39-2.37c-0.64-0.38-1.3-0.7-1.99-0.95c-0.7-0.25-1.49-0.19-2.38,0.19
				c-2.02,0.38-3.66,0.12-4.93-0.76c-0.25-0.25-0.63-0.41-1.13-0.48c-0.51-0.06-1.07,0.09-1.7,0.48c-1.14,0.5-1.96,0.26-2.47-0.76
				c-1.01-1.01-2.21-1.01-3.6,0c-0.38,0.38-0.82,0.7-1.33,0.95c-0.5,0.25-0.89,0.19-1.13-0.19c0-0.13-0.32-0.51-0.95-1.14
				c-1.01,1.77-1.84,2.15-2.47,1.14c-0.63-0.63-1.07-0.95-1.33-0.95c-0.63,0-1.27-0.1-1.89-0.29c-0.64-0.19-1.33-0.16-2.09,0.09
				c-0.25,0.13-0.44,0.16-0.56,0.09c-0.13-0.06-0.32-0.09-0.57-0.09c-0.51-0.25-0.83-0.32-0.95-0.18c-0.13,0.12-0.45,0.56-0.95,1.33
				c-0.25,0-0.44-0.03-0.57-0.1c-0.12-0.06-0.32,0.1-0.56,0.48c-0.26,0.63-0.48,0.89-0.66,0.76c-0.19-0.12-0.42-0.19-0.66-0.19
				c0.25-0.88,0.12-1.33-0.39-1.33c-0.5,0-0.82-0.38-0.94-1.13c-0.26,0.76-0.45,1.26-0.57,1.52c0.12-0.25,0.12-0.41,0-0.48
				c-0.13-0.06-0.26-0.22-0.38-0.47c0.12-0.63,0.06-0.98-0.19-1.04c-0.26-0.07-0.57-0.1-0.95-0.1h-4.36c-0.26,0-0.54,0.03-0.86,0.1
				c-0.32,0.06-0.66,0.41-1.04,1.04c-0.25,0.12-0.47,0.25-0.66,0.38c-0.18,0.12-0.41,0.19-0.66,0.19c-0.26,0-0.57-0.06-0.95-0.19
				c-0.38-0.12-0.76-0.06-1.13,0.19c-0.63,0.25-0.98,0.29-1.04,0.1c-0.07-0.19-0.1-0.6-0.1-1.23c-0.26-0.12-0.35-0.26-0.28-0.38
				c0.06-0.12-0.04-0.19-0.29-0.19c-0.76,0-1.46,0.13-2.09,0.38c-0.12,0.25-0.19,0.51-0.19,0.76c0,0.25-0.07,0.56-0.19,0.95
				c-0.5-0.39-0.98-0.57-1.42-0.57c-0.45,0-0.48-0.57-0.09-1.7c-1.02,0-1.97-0.06-2.85-0.19c-0.89-0.12-1.7-0.25-2.47-0.38
				l-0.19,0.19H329c0.12,0.39,0.32,0.57,0.57,0.57c-0.89,1.02-1.39,1.02-1.52,0c-0.12-0.5-0.5-0.76-1.13-0.76
				c-0.38,0.12-0.83,0.22-1.33,0.29c-0.51,0.06-1.07,0.35-1.7,0.85c-1.01,0.63-1.88,0.64-2.63,0.02c-0.27,0.63-0.41,0.63-0.41-0.02
				c-0.39-0.25-0.66-0.44-0.86-0.56c-0.19-0.12-0.54,0.12-1.04,0.76c-0.13,0.25-0.51,0.38-1.14,0.38c-0.63-0.25-1.33-0.32-2.08-0.18
				c-0.76,0.12-1.52,0.06-2.28-0.19c-0.25-0.12-0.66-0.03-1.23,0.29c-0.56,0.32-0.85,0.41-0.85,0.29c-0.25-0.38-0.66-0.38-1.23,0
				c-0.57,0.38-0.8,0.12-0.66-0.76h-0.57c-0.5,0.51-0.98,0.92-1.42,1.23c-0.45,0.32-0.98,0.6-1.61,0.86
				c-0.25,0.25-0.66,1.07-1.23,2.46c-0.56,1.4-0.85,2.41-0.85,3.03c0.12,0.39,0.22,0.83,0.29,1.33c0.06,0.51,0.02,0.95-0.1,1.33
				c0.25,1.02,0.38,2.09,0.38,3.23c0,1.14-0.5,2.35-1.51,3.6c-0.38,0.63-0.57,1.4-0.57,2.28c-0.12,0.26-0.16,0.51-0.09,0.76
				c0.06,0.25,0.03,0.51-0.09,0.76c-0.26,0.89-0.42,1.7-0.48,2.46c-0.06,0.76,0.29,1.14,1.04,1.14l0.19,0.18
				c-0.25,0.89-0.16,1.33,0.29,1.33c0.44,0,0.79-0.12,1.04-0.38c1.01-0.25,1.83-0.19,2.46,0.19c0.63,0.38,1.39,0.32,2.28-0.19
				c0.63,0.51,1.33,0.63,2.09,0.38c0.76-0.25,1.45-0.5,2.08-0.76c1.01-0.25,1.93-0.38,2.75-0.38c0.83,0,1.74,0.12,2.75,0.38
				c0.88,0,1.67,0.19,2.37,0.57c0.69,0.38,1.54,0.06,2.56-0.95c0.25-0.12,0.41-0.16,0.47-0.09c0.06,0.06,0.15,0.03,0.29-0.1
				c0.38,0.51,0.79,0.66,1.23,0.48c0.44-0.19,0.97-0.16,1.61,0.09l-0.19,0.38c0.25,0,0.47,0.03,0.66,0.09
				c0.19,0.07,0.54-0.22,1.04-0.85H329c0.12,0,0.19-0.03,0.19-0.09c0-0.07,0.06-0.1,0.19-0.1l-0.19,0.19
				c-0.25,0.76-0.41,1.45-0.48,2.08c-0.06,0.63-0.28,1.26-0.66,1.9c-0.63,0.76-0.92,1.36-0.85,1.8c0.06,0.45,0.22,0.98,0.47,1.61
				c0.51,0.63,0.63,1.17,0.38,1.61c-0.25,0.45-0.82,0.98-1.7,1.61c-0.12,0.25-0.25,0.38-0.38,0.38c-0.12,0-0.32,0.13-0.57,0.38
				c-0.25-0.5-0.5-0.82-0.76-0.94c-0.38,1.01-0.57,1.58-0.57,1.7c-0.63,1.13-0.79,1.83-0.47,2.08c0.32,0.25,1.16,0.19,2.56-0.19
				c-0.63,0.64-1.23,1.11-1.8,1.43c-0.57,0.32-1.17,0.66-1.8,1.04c-0.13,0.25-0.19,0.51-0.19,0.76c0,0.25-0.06,0.51-0.18,0.76
				c-0.64,1.01-1.33,2.02-2.09,3.03c-0.76,1.01-1.01,2.15-0.76,3.41c-0.63,0.63-0.86,1.2-0.66,1.7c0.19,0.51,0.29,1.08,0.29,1.71
				c-0.89,1.4-1.55,2.72-1.99,3.99c-0.45,1.26-0.42,2.53,0.09,3.79c-1.26,0.76-1.77,1.77-1.52,3.03c0,1.52-0.5,3.04-1.51,4.55
				c-0.25,0.25-0.42,0.6-0.48,1.04c-0.06,0.45-0.22,0.98-0.47,1.61c-0.13,0.63-0.29,1.23-0.47,1.81c-0.19,0.56-0.16,1.17,0.09,1.8
				c-0.13,0.25-0.26,0.45-0.38,0.57c-0.13,0.12-0.19,0.32-0.19,0.57c-0.38,0.25-0.63,0.63-0.76,1.13c0,0.63-0.03,1.3-0.1,1.99
				c-0.06,0.7-0.28,1.36-0.66,1.99c-0.25,0.63-0.56,1.3-0.94,1.99c-0.39,0.69-0.64,1.49-0.76,2.37c-0.12,0.64-0.25,1.2-0.38,1.71
				c-0.12,0.5-0.12,0.94,0,1.33c-0.12,0.5-0.44,1.01-0.95,1.51c-0.5,0.51-0.89,0.95-1.13,1.33c-0.13,0.38-0.25,0.8-0.38,1.23
				c-0.13,0.45-0.25,0.92-0.39,1.42c-0.25,0.76-0.5,1.49-0.76,2.18c-0.25,0.69-0.63,1.42-1.13,2.18c-0.25,0.76-0.45,1.51-0.57,2.27
				c-0.13,0.76-0.51,1.46-1.13,2.09c-0.26,0-0.36,0.09-0.29,0.29c0.06,0.18,0.03,0.41-0.1,0.66c0.63,1.01,0.32,2.15-0.94,3.41
				c-0.13,0.25-0.26,0.57-0.39,0.95c-0.12,0.38-0.19,0.69-0.19,0.95c0.38,0.76,0.44,1.42,0.19,1.99c-0.26,0.57-0.63,1.17-1.13,1.8
				c-0.25,0.25-0.38,0.54-0.38,0.86c0,0.32-0.13,0.6-0.38,0.86c-0.26,0.76-0.54,1.54-0.86,2.37c-0.32,0.82-0.6,1.55-0.86,2.18
				c-0.38,0.51-0.66,1.02-0.85,1.52c-0.19,0.51-0.35,0.95-0.48,1.33c-0.25,0.76-0.41,1.49-0.47,2.18c-0.07,0.69-0.22,1.48-0.48,2.37
				c-0.38,1.26-0.79,2.43-1.23,3.5c-0.45,1.08-0.98,2.32-1.61,3.7c-0.13,0.38-0.19,0.76-0.19,1.13c0,0.38-0.06,0.76-0.19,1.14
				c-0.25,0.88-0.51,1.7-0.76,2.46c-0.25,0.76-0.44,1.58-0.56,2.47c-0.51,1.01-0.83,1.83-0.95,2.46c-0.26,1.01-0.42,2.08-0.48,3.23
				c-0.06,1.13-0.41,2.21-1.04,3.23c-0.63,1.13-0.85,2.21-0.66,3.22c0.19,1.02,0.03,2.03-0.47,3.04c-0.28,0.55-0.43,1.09-0.46,1.62
				c-1.38,4.4-4.16,13.79-3.4,16.06c1,2.99,2.99,2,6.99,2c3.99,0,6.99,1,7.99,2c1,1,8.98,1,8.98-2.99c0-3.15,4.47-15.37,6.34-20.36
				c0.03-0.07,0.07-0.14,0.1-0.22c0.51-1.39,1.01-2.75,1.52-4.07c0.5-1.33,0.63-2.69,0.38-4.08v-0.95c1.14-2.52,2.08-5.31,2.85-8.34
				c0.63-1.77,1.17-3.47,1.61-5.12c0.44-1.64,0.97-3.35,1.61-5.12c0.5-2.15,1.26-4.49,2.27-7.01c0.25-0.63,0.48-1.23,0.66-1.8
				c0.19-0.57,0.41-1.1,0.67-1.61c0.63-1.39,1.23-2.69,1.8-3.89c0.57-1.2,1.04-2.37,1.42-3.5c0-0.26,0.03-0.41,0.1-0.48
				c0.06-0.06,0.09-0.22,0.09-0.47c-0.51-1.14-0.35-2.37,0.47-3.7c0.83-1.33,1.23-2.62,1.23-3.89c0.76-0.51,1.2-1.01,1.33-1.52
				c0.12-0.5,0.19-1.07,0.19-1.71c-0.13-0.38-0.04-0.79,0.29-1.23c0.31-0.44,0.59-0.85,0.85-1.23c0.76-1.77,1.61-3.53,2.56-5.31
				c0.95-1.77,1.3-3.66,1.04-5.69l0.19-0.38c0.38-1.14,0.82-2.14,1.33-3.03c0.5-0.89,0.95-1.84,1.33-2.85
				c0.88-2.02,1.57-3.86,2.08-5.5c0.38-1.13,0.73-2.3,1.04-3.5c0.32-1.2,0.6-2.31,0.86-3.32c0.25-0.63,0.44-1.23,0.57-1.8
				c0.12-0.57,0.18-1.1,0.18-1.61c0.12-1.51,0.38-3.06,0.76-4.64c0.39-1.58,0.89-3.13,1.52-4.65c0.88-1.27,1.33-2.28,1.33-3.03
				c0.12-1.01,0.38-1.93,0.76-2.76c0.39-0.82,0.69-1.67,0.95-2.55c0.25-0.38,0.38-0.76,0.38-1.14c0-0.38,0.13-0.76,0.39-1.13
				c0.25-0.89,0.41-1.77,0.47-2.65c0.06-0.89,0.35-1.84,0.86-2.85c0.76-1.64,1.35-3.26,1.8-4.84c0.44-1.57,1.04-3.25,1.81-5.02v0.19
				c0,0.12,0.06,0.19,0.19,0.19c1.01-0.63,1.9-0.97,2.65-1.04c0.76-0.06,1.58-0.09,2.47-0.09h5.4c1.83,0,3.63,0.12,5.4,0.38
				c0.89,0,1.64-0.06,2.28-0.19c0.63-0.12,1.33-0.06,2.09,0.19c1.01,0.38,2.08,0.54,3.23,0.47c0.28-0.02,0.58-0.02,0.87-0.03
				l3.47,2.52c0.63,0.63,1.1,1.27,1.42,1.9c0.32,0.63,0.22,1.26-0.29,1.89c-0.76,1.02-1.33,1.97-1.71,2.85
				c-0.38,0.89-0.69,1.84-0.95,2.85c-0.35,1.13-0.95,2.05-1.77,2.76l0.45-0.3c0.25,0.25,0.47,0.51,0.66,0.76
				c0.19,0.26,0.03,0.7-0.47,1.33c-0.39-0.26-1.02-0.45-1.9-0.57c-0.26,0.89-0.45,1.7-0.57,2.46c-0.12,0.76-0.32,1.52-0.57,2.28
				c-0.26,0.89-0.5,1.77-0.76,2.65c-0.25,0.89-0.63,1.77-1.13,2.65c-0.64,1.14-1.23,2.28-1.81,3.42c-0.57,1.13-0.98,2.28-1.23,3.41
				c-0.25,0.89-0.5,1.74-0.76,2.56c-0.26,0.83-0.51,1.67-0.76,2.56c-0.25,0.88-0.6,1.77-1.04,2.66c-0.45,0.89-0.73,1.77-0.86,2.65
				c0,0.5-0.45,2.18-1.33,5.02c-0.89,2.85-1.99,6.23-3.32,10.15c-1.33,3.92-2.75,8.15-4.27,12.7c-1.52,4.55-2.97,8.79-4.36,12.71
				c-1.4,3.92-2.56,7.27-3.51,10.05c-0.95,2.78-1.55,4.42-1.8,4.93c-0.26,0.5-0.51,0.98-0.76,1.42c-0.25,0.44-0.5,0.92-0.76,1.42
				c-0.38,1.4-0.79,2.69-1.23,3.89c-0.44,1.2-0.85,2.5-1.23,3.89c-0.38,1.39-0.79,2.75-1.23,4.07c-0.45,1.33-1.23,2.69-2.38,4.08
				c-0.38,0.38-0.56,0.94-0.56,1.7c0.12,1.77-0.57,3.73-2.09,5.88c-0.24,0.24-0.34,0.5-0.32,0.79c0,0-0.02,0-0.02,0
				s-3.87,9.54-3.87,12.53s0,6.99,0,9.98c0,2.99,10.98,2,11.98,2s5.99,1,8.98-2c2.99-2.99,4.99,1,5.99-1c1-2,5.04-18.05,5.04-18.05
				s0-0.01,0-0.01c0.1-0.31,0.2-0.64,0.29-1.04c0.63-3.28,1.64-6.32,3.03-9.1c0.25-0.51,0.47-1.01,0.66-1.52
				c0.18-0.5,0.41-1.07,0.66-1.71c0.88-2.28,1.77-4.55,2.65-6.83c0.88-2.28,1.77-4.55,2.65-6.82c0.12-0.51,0.19-1.26,0.19-2.28
				c0-0.26-0.07-0.57-0.19-0.95c-0.12-0.38-0.06-0.69,0.19-0.95c0.63-1.01,1.04-1.96,1.23-2.85c0.19-0.88,0.48-1.83,0.86-2.84
				c0.12-0.39,0.63-1.87,1.52-4.46c0.88-2.59,1.95-5.79,3.22-9.58c1.27-3.8,2.62-7.87,4.08-12.23c1.45-4.36,2.81-8.44,4.07-12.23
				c1.26-3.8,2.4-6.98,3.41-9.58c1.01-2.59,1.64-4.08,1.9-4.46c0.42-0.47,0.74-0.99,0.97-1.53c2.14,0.01,4.11,0.01,5.89,0.01h9.58
				c1,0,1.64,0.13,1.89,0.38c0.89,0.51,1.84,0.66,2.85,0.48c1.01-0.19,2.02-0.54,3.03-1.04c0.25-0.13,0.48-0.39,0.66-0.76
				c0.19-0.38,0.41-0.69,0.66-0.95c0.25-0.38,0.5-0.79,0.76-1.23C424.35,84.34,424.42,84,424.29,83.74z M340.95,93.3
				c-0.25,0-0.39-0.12-0.39-0.38h0.19l0.38-0.39C341.01,92.79,340.95,93.05,340.95,93.3z M362.94,35.66
				c0.63-0.26,1.01-0.41,1.14-0.48c0.12-0.06,0.5-0.03,1.13,0.1C364.58,35.54,363.82,35.66,362.94,35.66z M365.03,34.71
				c-0.89-0.12-1.7-0.19-2.47-0.19h-2.46c0.12-0.12,0.19-0.25,0.19-0.38c0-0.12,0.06-0.25,0.19-0.38c1.39,0,2.97,0.19,4.74,0.57
				C365.09,34.46,365.03,34.59,365.03,34.71z M376.19,76.73c-0.25,0-0.39-0.06-0.39-0.19c0-0.12,0.06-0.22,0.19-0.29
				c0.12-0.06,0.19-0.15,0.19-0.29c0.25,0,0.38,0.07,0.38,0.19C376.31,76.42,376.19,76.6,376.19,76.73z M377.13,74.84h-0.19
				l-0.38,0.18v-0.57c0-0.12,0.19-0.18,0.56-0.18V74.84z M378.49,37.94c-0.89,0.88-1.4,0.88-1.52,0H378.49z M391.17,32.36
				c-0.25,0-0.51-0.13-0.76-0.39c0.25-0.12,0.41-0.25,0.47-0.38c0.06-0.12,0.16-0.19,0.29-0.19c0.2,0,0.49,0.08,0.86,0.25
				C391.34,32.13,391.05,32.36,391.17,32.36z"/>
			<path d="M510.63,139.08c0.02-0.22,0.08-0.43,0.15-0.6c0.07-0.17,0.07-0.43-0.01-0.76c-0.31-1.34-0.27-2.61,0.13-3.82
				c0.4-1.2,0.92-2.22,1.56-3.06c1.28-1.65,2.2-3.57,2.76-5.75c0.55-2.18,1.25-4.2,2.11-6.06c0.88-2.08,1.78-4.4,2.7-6.94
				c0.48-1.5,0.82-2.95,1.02-4.38c0.15-1.17,0.35-2.43,0.57-3.79l-0.74-0.35l0.3-3.07c0.3-0.86,0.64-1.62,1.01-2.29
				c0.01-0.19,0.02-0.38,0.03-0.57c0.02-0.45,0.13-0.87,0.31-1.26c-0.04-0.22-0.1-0.45-0.2-0.69l1.22-2.12
				c0.04-0.42,0.1-0.82,0.17-1.22c-0.34-0.89-0.33-1.73,0.03-2.52c0.42-0.92,0.7-1.96,0.81-3.1l0.46,0.48
				c-0.22,1.03-0.49,2.07-0.81,3.1c-0.21,0.66-0.37,1.34-0.49,2.03c0.07,0.17,0.14,0.35,0.23,0.52l-0.76,2.59
				c-0.29,0.28-0.5,0.59-0.66,0.92c0.11,0.61,0.03,1.17-0.26,1.68c-0.03,0.05-0.05,0.1-0.08,0.15c-0.03,0.67-0.08,1.36-0.14,2.07
				c-0.25,0.24-0.52,0.71-0.82,1.41c-0.32,0.92-0.14,1.36,0.54,1.32c-0.05,0.31-0.1,0.61-0.15,0.91l0.54,0.25
				c0.96-1.75,1.7-3.54,2.21-5.39c0.52-1.83,0.99-3.78,1.42-5.84c0.6-2.64,1.14-5.27,1.62-7.89c0.49-2.63,0.8-5.24,0.94-7.85
				c0.23-2.27,0.4-4.54,0.51-6.81c0.11-2.26,0.17-4.52,0.17-6.78c-0.01-0.62-0.06-1.22-0.11-1.81l1.11-1.66
				c0,0-4.99-13.98-5.99-18.97c-1-4.99-7.99-14.97-15.97-15.97c-4.44-0.56-11.18,0.21-16.29,1c-0.87-0.01-1.74,0.05-2.62,0.21
				c-1.45,0.26-2.9,0.62-4.36,1.04c-0.08,0.02-0.14,0.03-0.14,0.03l0.02,0c-1.88,0.55-3.76,1.21-5.64,2.02
				c-1.5,0.43-2.93,1.06-4.31,1.88c-1.36,0.82-2.76,1.61-4.18,2.38c-0.72,0.5-1.47,0.72-2.25,0.65c-0.87-0.16-1.64,0.02-2.32,0.57
				c-0.67,0.55-1.16,1.29-1.48,2.22c-0.57,1.17-1.16,2.11-1.79,2.82c-0.63,0.72-1.32,1.44-2.07,2.16c-1.16,1.54-2.43,3.03-3.8,4.47
				c-1.37,1.44-2.64,2.94-3.8,4.48c-2.01,2.16-3.8,5.04-5.39,8.63c-1.02,2.43-2.08,4.76-3.21,6.98c-1.11,2.22-2.23,4.49-3.35,6.81
				c0.35-0.12,0.83-0.49,1.45-1.1c0.14,0.89,0.06,1.58-0.21,2.05c-0.29,0.69-0.58,1.34-0.86,1.91c-0.28,0.59-0.57,1.22-0.86,1.92
				c-0.73,1.74-1.44,3.45-2.11,5.13c-0.67,1.68-1.05,3.48-1.12,5.4c-0.07,0.68-0.16,1.09-0.28,1.2c-2.11,4.31-3.81,8.74-5.1,13.27
				c-1.29,4.54-2.56,9.17-3.81,13.87c-0.65,2.07-1.03,4.18-1.13,6.33c-0.1,2.16-0.33,4.31-0.64,6.48c-0.14,1.37-0.29,2.33-0.46,2.92
				c-1.19,3-1.9,6.15-2.11,9.43c-0.08,4.19-0.15,8.31-0.22,12.38c-0.06,4.07,0.09,8.06,0.49,11.98c0.09,1.35,0.41,2.58,0.98,3.67
				c0.56,1.09,1.06,2.25,1.5,3.46c0.34,1.11,0.68,2.22,1.01,3.33c0.34,1.11,0.68,2.22,1.02,3.32c0.55,2.34,1.29,4.49,2.22,6.47
				c0.92,1.97,2.14,3.65,3.7,5.02c0.71,0.75,1.39,1.46,2.05,2.15c0.66,0.7,1.41,1.36,2.24,1.98c0.41,0.43,0.77,0.69,1.1,0.78
				c2.18,0.54,4.3,1.19,6.35,1.97c2.05,0.77,4.21,0.97,6.49,0.6c1.47-0.2,2.9-0.52,4.29-0.95c1.39-0.42,2.83-0.85,4.32-1.29
				l2.59-0.67c1.5-0.43,2.86-1.19,4.09-2.29c1.24-1.09,2.51-2.18,3.85-3.29c0.52-0.71,1.09-1.37,1.71-1.97
				c0.62-0.6,1.33-0.99,2.13-1.15c0.45-0.03,0.78-0.25,0.99-0.66c0.21-0.41,0.49-0.68,0.84-0.82l2.78-2.71
				c1.41-1.78,2.78-3.54,4.13-5.26c1.35-1.72,2.72-3.46,4.14-5.26c1.75-1.91,3.31-4.04,4.66-6.39c0.62-0.6,1.35-1.72,2.18-3.36
				l2.99-4.76c0.41-0.81,0.96-1.55,1.65-2.22c0.68-0.66,1.18-1.46,1.49-2.38c0.19-0.8,0.52-1.58,0.98-2.35
				c0.47-0.76,0.47-1.64,0.01-2.63c-0.1-0.1,0.08-0.48,0.54-1.14c0.45-0.64,0.89-1.37,1.31-2.19c-0.14,1.36-0.18,2.33-0.12,2.89
				c0.55,0.08,1.05-0.15,1.5-0.69c0.44-0.53,0.76-1.09,0.92-1.66c0.79-1.18,1.46-2.35,2.03-3.52
				C509.33,141.59,509.95,140.37,510.63,139.08z M502.91,64.73c-0.5,2.75-0.96,5.45-1.4,8.13c-0.44,2.68-1.01,5.4-1.73,8.15
				c-0.84,3.9-1.77,7.68-2.81,11.35c-1.04,3.68-2.44,7.1-4.21,10.26c-1.4,2.8-2.71,5.68-3.96,8.63c-1.25,2.96-2.83,5.57-4.73,7.84
				c-0.02,0.22-0.16,0.46-0.41,0.7c-1.04,2.66-2.27,5.14-3.67,7.43c-1.4,2.29-2.81,4.44-4.25,6.45c-2.05,2.61-3.73,5.42-5.04,8.44
				c-0.61,1.41-1.2,2.86-1.76,4.34c-3.01,4.34-10.42,14.4-17.45,18.97c-4.03,2.62-6.4,1.63-7.79-0.29
				c-0.02-1.09-0.01-2.22,0.04-3.37c0.08-1.92,0.27-3.85,0.58-5.8c0.49-2.73,0.87-5.41,1.13-8.03c0.26-2.61,0.75-5.29,1.47-8.04
				c0.48-1.5,0.87-3.1,1.16-4.82c0.28-1.71,0.72-3.37,1.33-4.99c1.63-4.06,3.22-8.11,4.74-12.16c1.52-4.04,3.2-7.99,5.03-11.83
				c1.54-3.14,3.08-6.23,4.62-9.27c1.52-3.02,3.07-6.12,4.61-9.26c0.54-0.94,1.06-1.9,1.54-2.9c0.49-0.98,0.99-1.83,1.51-2.55
				c1.41-1.78,2.83-3.42,4.27-4.93c1.43-1.5,2.91-3.08,4.41-4.76c1.14-1.31,2.29-2.53,3.47-3.68c1.18-1.15,2.46-1.99,3.86-2.53
				c0.82-0.39,1.68-0.81,2.56-1.27c0.88-0.44,1.8-0.93,2.74-1.44c2.89-1.99,6.35-3.11,10.41-3.36
				C503.2,62.4,503.1,63.93,502.91,64.73z"/>
		</g>
		<g>
			<path class="st0" d="M391.98,226.69h-40.2c-0.85,0-1.55,0.69-1.55,1.55s0.69,1.55,1.55,1.55h40.2c0.85,0,1.55-0.69,1.55-1.55
				S392.83,226.69,391.98,226.69z"/>
			<g>
				
					<rect x="364.49" y="152.21" transform="matrix(0.7071 -0.7071 0.7071 0.7071 -3.9371 309.7092)" class="st0" width="14.79" height="14.79"/>
				<polygon class="st0" points="371.88,75.94 324.82,123 330.05,128.23 371.88,86.4 408.49,123 387.57,143.92 377.11,133.46 
					392.8,117.77 371.88,96.86 350.97,117.77 350.97,128.23 371.88,107.31 382.34,117.77 356.2,143.92 356.2,133.46 350.97,138.69 
					350.97,149.15 356.2,154.38 371.88,138.69 387.57,154.38 418.95,123 				"/>
				<path class="st0" d="M371.88,44.56L293.44,123l78.44,78.44L450.32,123L371.88,44.56z M371.88,190.98L303.9,123l67.98-67.98
					L439.86,123L371.88,190.98z"/>
			</g>
		</g>
	</g>
</g>
<g id="Calque_2">
</g>
</svg>
