<?xml version="1.0" encoding="utf-8"?>
<!-- Generator: Adobe Illustrator 23.0.1, SVG Export Plug-In . SVG Version: 6.00 Build 0)  -->
<svg version="1.1" id="Calque_1" xmlns="http://www.w3.org/2000/svg" xmlns:xlink="http://www.w3.org/1999/xlink" x="0px" y="0px"
	 viewBox="0 0 37.4 37.4" style="enable-background:new 0 0 37.4 37.4;" xml:space="preserve">
<style type="text/css">
	.st0{fill:#808080;}
</style>
<path class="st0" d="M-78.4,65.8c0.6,0,1.1-0.5,1.1-1.1c0-0.6-0.5-1.1-1.1-1.1s-1.1,0.5-1.1,1.1S-79,65.8-78.4,65.8"/>
<path class="st0" d="M19.4,20.2h-1.7v-5h1.7V20.2z M24,20.2h-1.7v-5H24V20.2z M26.9,21L24,23.9h-4.6l-2.5,2.5v-2.5H13V11.8h13.8
	C26.8,11.8,26.8,21,26.9,21z M11.4,10.1l-1.3,3.3v13.5h4.6v2.5h2.6l2.5-2.5h3.8l5-5V10.1H11.4z"/>
</svg>
