<?xml version="1.0" encoding="utf-8"?>
<!-- Generator: Adobe Illustrator 23.0.1, SVG Export Plug-In . SVG Version: 6.00 Build 0)  -->
<svg version="1.1" id="Calque_1" xmlns="http://www.w3.org/2000/svg" xmlns:xlink="http://www.w3.org/1999/xlink" x="0px" y="0px"
	 viewBox="0 0 37.41 37.41" style="enable-background:new 0 0 37.41 37.41;" xml:space="preserve">
<style type="text/css">
	.st0{fill:#808080;}
</style>
<path class="st0" d="M18.69,37.09c-10.11,0-18.34-8.23-18.34-18.34c0-10.11,8.23-18.34,18.34-18.34s18.34,8.23,18.34,18.34
	C37.03,28.86,28.8,37.09,18.69,37.09z M18.69,1.45C9.15,1.45,1.4,9.21,1.4,18.75c0,9.54,7.76,17.29,17.29,17.29
	s17.29-7.76,17.29-17.29C35.98,9.21,28.22,1.45,18.69,1.45z"/>
<path class="st0" d="M29.75,13.26c-0.73,0.33-1.52,0.55-2.35,0.65c0.85-0.51,1.5-1.31,1.8-2.27c-0.79,0.47-1.67,0.81-2.6,0.99
	c-0.75-0.8-1.81-1.29-2.99-1.29c-2.26,0-4.1,1.83-4.1,4.1c0,0.32,0.04,0.63,0.11,0.93c-3.4-0.17-6.42-1.8-8.44-4.28
	c-0.35,0.61-0.55,1.31-0.55,2.06c0,1.42,0.72,2.68,1.82,3.41c-0.67-0.02-1.3-0.21-1.85-0.51v0.05c0,1.98,1.41,3.64,3.28,4.02
	c-0.34,0.09-0.71,0.14-1.08,0.14c-0.26,0-0.52-0.03-0.77-0.07c0.52,1.63,2.03,2.81,3.82,2.84c-1.4,1.1-3.17,1.75-5.09,1.75
	c-0.33,0-0.66-0.02-0.98-0.06c1.81,1.16,3.97,1.84,6.28,1.84c7.53,0,11.65-6.24,11.65-11.65c0-0.18-0.01-0.35-0.01-0.53
	C28.5,14.8,29.2,14.08,29.75,13.26"/>
</svg>
