<?xml version="1.0" encoding="utf-8"?>
<!-- Generator: Adobe Illustrator 23.0.1, SVG Export Plug-In . SVG Version: 6.00 Build 0)  -->
<svg version="1.1" id="Calque_1" xmlns="http://www.w3.org/2000/svg" xmlns:xlink="http://www.w3.org/1999/xlink" x="0px" y="0px"
	 viewBox="0 0 37.41 37.41" style="enable-background:new 0 0 37.41 37.41;" xml:space="preserve">
<style type="text/css">
	.st0{fill:#808080;}
</style>
<path class="st0" d="M16.37,18.1v-0.33c0-1.86,0-3.73,0.01-5.59c0-0.41,0.01-0.43,0.43-0.43c1.65,0,3.29,0.02,4.94-0.01
	c0.68-0.01,1.12,0.3,1.4,0.87c0.13,0.25,0.24,0.52,0.32,0.79c0.14,0.47,0.24,0.95,0.39,1.42c0.03,0.1,0.14,0.24,0.23,0.25
	c0.25,0.03,0.5,0.01,0.78,0.01c0.1-1.6,0.19-3.17,0.29-4.74c-4.6,0.4-9.16,0.21-13.75,0.13c0,0.3-0.02,0.57,0.01,0.85
	c0.01,0.07,0.12,0.18,0.21,0.2c0.34,0.08,0.7,0.13,1.04,0.2c0.82,0.16,1.04,0.42,1.05,1.27c0.02,1.49,0.06,2.99,0.06,4.48
	c0,2.41-0.03,4.81-0.05,7.22c0,0.13-0.03,0.26-0.04,0.4c-0.04,0.28-0.2,0.47-0.45,0.57c-0.17,0.07-0.34,0.12-0.52,0.16
	c-0.43,0.09-0.86,0.17-1.27,0.26v0.99c0.18,0,0.33,0.01,0.48,0c1.15-0.04,2.29-0.11,3.44-0.11c3.2,0.02,6.4,0.07,9.59,0.11
	c0.42,0.01,0.4,0.01,0.45-0.4c0.12-1.11,0.26-2.21,0.39-3.32c0.05-0.41,0.1-0.82,0.15-1.27c-0.19,0-0.34,0.02-0.47,0
	c-0.32-0.05-0.47,0.09-0.58,0.38c-0.26,0.66-0.55,1.32-0.86,1.96c-0.38,0.79-1,1.32-1.89,1.34c-1.48,0.05-2.96,0.08-4.44,0.03
	c-0.96-0.03-1.32-0.5-1.32-1.46c0-1.56,0-3.11,0.01-4.67c0-0.12,0.01-0.24,0.02-0.35c0.06-0.02,0.08-0.03,0.11-0.03
	c1.04,0.02,2.07,0.03,3.1,0.06c0.55,0.02,0.99,0.24,1.14,0.83c0.07,0.26,0.13,0.51,0.19,0.77c0.17,0.72,0.17,0.71,0.9,0.7
	c0.25,0,0.3-0.09,0.3-0.33c0.01-1.75,0.03-3.5,0.04-5.25c0-0.15,0-0.29,0-0.46c-0.28,0-0.52,0.01-0.76,0
	c-0.19-0.01-0.27,0.07-0.31,0.24c-0.1,0.45-0.2,0.9-0.32,1.34c-0.15,0.59-0.37,0.77-0.98,0.82c-0.44,0.04-0.89,0.08-1.33,0.09
	C17.79,18.11,17.1,18.1,16.37,18.1"/>
<path class="st0" d="M18.67,37.05c-10.11,0-18.34-8.23-18.34-18.34c0-10.11,8.23-18.34,18.34-18.34S37.02,8.59,37.02,18.7
	C37.02,28.82,28.79,37.05,18.67,37.05z M18.67,1.41C9.14,1.41,1.38,9.17,1.38,18.7C1.38,28.24,9.14,36,18.67,36
	s17.29-7.76,17.29-17.29C35.97,9.17,28.21,1.41,18.67,1.41z"/>
</svg>
