<?xml version="1.0" encoding="utf-8"?>
<!-- Generator: Adobe Illustrator 23.0.1, SVG Export Plug-In . SVG Version: 6.00 Build 0)  -->
<svg version="1.1" id="Calque_1" xmlns="http://www.w3.org/2000/svg" xmlns:xlink="http://www.w3.org/1999/xlink" x="0px" y="0px"
	 viewBox="0 0 37.41 37.41" style="enable-background:new 0 0 37.41 37.41;" xml:space="preserve">
<style type="text/css">
	.st0{fill:#808080;}
</style>
<path class="st0" d="M18.69,37.09c-10.11,0-18.34-8.23-18.34-18.34c0-10.11,8.23-18.34,18.34-18.34s18.34,8.23,18.34,18.34
	C37.03,28.86,28.8,37.09,18.69,37.09z M18.69,1.45C9.15,1.45,1.4,9.21,1.4,18.75c0,9.54,7.76,17.29,17.29,17.29
	s17.29-7.76,17.29-17.29C35.98,9.21,28.22,1.45,18.69,1.45z"/>
<g>
	<path class="st0" d="M13.22,11.55c0.96,0,1.73,0.77,1.73,1.72c0,0.95-0.78,1.72-1.73,1.72c-0.96,0-1.74-0.77-1.74-1.72
		C11.48,12.33,12.26,11.55,13.22,11.55 M11.72,16.3h2.99v9.55h-2.99V16.3z"/>
	<path class="st0" d="M16.59,16.3h2.87v1.31h0.04c0.4-0.75,1.37-1.54,2.83-1.54c3.03,0,3.59,1.98,3.59,4.55v5.24h-2.99v-4.64
		c0-1.11-0.02-2.53-1.55-2.53c-1.56,0-1.79,1.21-1.79,2.45v4.73h-2.99V16.3z"/>
</g>
</svg>
