<?xml version="1.0" encoding="utf-8"?>
<!-- Generator: Adobe Illustrator 23.0.1, SVG Export Plug-In . SVG Version: 6.00 Build 0)  -->
<svg version="1.1" id="Calque_1" xmlns="http://www.w3.org/2000/svg" xmlns:xlink="http://www.w3.org/1999/xlink" x="0px" y="0px"
	 viewBox="0 0 37.4 37.4" style="enable-background:new 0 0 37.4 37.4;" xml:space="preserve">
<style type="text/css">
	.st0{fill:#808080;}
</style>
<path class="st0" d="M29.8,13.3c-0.7,0.3-1.5,0.6-2.4,0.6c0.9-0.5,1.5-1.3,1.8-2.3c-0.8,0.5-1.7,0.8-2.6,1c-0.8-0.8-1.8-1.3-3-1.3
	c-2.3,0-4.1,1.8-4.1,4.1c0,0.3,0,0.6,0.1,0.9c-3.4-0.2-6.4-1.8-8.4-4.3c-0.4,0.6-0.6,1.3-0.6,2.1c0,1.4,0.7,2.7,1.8,3.4
	c-0.7,0-1.3-0.2-1.9-0.5v0c0,2,1.4,3.6,3.3,4c-0.3,0.1-0.7,0.1-1.1,0.1c-0.3,0-0.5,0-0.8-0.1c0.5,1.6,2,2.8,3.8,2.8
	c-1.4,1.1-3.2,1.8-5.1,1.8c-0.3,0-0.7,0-1-0.1c1.8,1.2,4,1.8,6.3,1.8c7.5,0,11.6-6.2,11.6-11.6c0-0.2,0-0.4,0-0.5
	C28.5,14.8,29.2,14.1,29.8,13.3"/>
</svg>
