<?xml version="1.0" encoding="utf-8"?>
<!-- Generator: Adobe Illustrator 23.0.1, SVG Export Plug-In . SVG Version: 6.00 Build 0)  -->
<svg version="1.1" id="Calque_1" xmlns="http://www.w3.org/2000/svg" xmlns:xlink="http://www.w3.org/1999/xlink" x="0px" y="0px"
	 viewBox="0 0 37.4 37.4" style="enable-background:new 0 0 37.4 37.4;" xml:space="preserve">
<style type="text/css">
	.st0{fill:#808080;}
</style>
<path class="st0" d="M-78.4,65.8c0.6,0,1.1-0.5,1.1-1.1c0-0.6-0.5-1.1-1.1-1.1s-1.1,0.5-1.1,1.1S-79,65.8-78.4,65.8"/>
<path class="st0" d="M23.8,25.9c-0.1-0.5-0.6-3.1-1.8-6.2c2.9-0.4,5.4,0.3,5.7,0.4C27.3,22.5,25.9,24.6,23.8,25.9 M18.7,27.4
	c-2.1,0-4.1-0.7-5.6-1.8c0.2-0.3,2-3.7,7.2-5.4c0,0,0,0,0.1,0c1.3,3.1,1.8,5.8,2,6.5C21.2,27.2,20,27.4,18.7,27.4 M9.5,18.8
	c0-0.1,0-0.2,0-0.3c0.4,0,4.8,0.1,9.4-1.2c0.3,0.5,0.5,1,0.7,1.5c-0.1,0-0.2,0.1-0.4,0.1c-4.7,1.4-7.2,5.4-7.4,5.7
	C10.4,23,9.5,21,9.5,18.8 M14.8,10.9c0.2,0.3,1.9,2.4,3.4,5C13.9,17,10.2,17,9.7,17C10.3,14.3,12.3,12.1,14.8,10.9 M18.7,10.1
	c2.3,0,4.5,0.8,6.1,2.2c-0.2,0.2-1.5,2-4.8,3.1c-1.5-2.6-3.2-4.7-3.4-5.1C17.3,10.2,18,10.1,18.7,10.1 M25.8,13.3
	c1.3,1.5,2,3.3,2.1,5.4c-0.3-0.1-3.3-0.6-6.4-0.3c-0.1-0.1-0.1-0.3-0.2-0.5c-0.2-0.4-0.4-0.8-0.6-1.3C24.1,15.4,25.6,13.5,25.8,13.3
	 M18.7,8.6C12.8,8.6,8,13.2,8,18.8s4.8,10.1,10.7,10.1s10.7-4.5,10.7-10.1C29.4,13.2,24.6,8.6,18.7,8.6"/>
</svg>
