<?xml version="1.0" encoding="utf-8"?>
<!-- Generator: Adobe Illustrator 23.0.1, SVG Export Plug-In . SVG Version: 6.00 Build 0)  -->
<svg version="1.1" id="Calque_1" xmlns="http://www.w3.org/2000/svg" xmlns:xlink="http://www.w3.org/1999/xlink" x="0px" y="0px"
	 viewBox="0 0 37.41 37.41" style="enable-background:new 0 0 37.41 37.41;" xml:space="preserve">
<style type="text/css">
	.st0{fill:#808080;}
</style>
<path class="st0" d="M18.69,37.09c-10.11,0-18.34-8.23-18.34-18.34c0-10.11,8.23-18.34,18.34-18.34s18.34,8.23,18.34,18.34
	C37.03,28.86,28.8,37.09,18.69,37.09z M18.69,1.45C9.15,1.45,1.4,9.21,1.4,18.75c0,9.54,7.76,17.29,17.29,17.29
	s17.29-7.76,17.29-17.29C35.98,9.21,28.22,1.45,18.69,1.45z"/>
<path class="st0" d="M-78.37,65.79c0.6,0,1.09-0.48,1.09-1.08c0-0.59-0.49-1.08-1.09-1.08c-0.6,0-1.09,0.48-1.09,1.08
	C-79.46,65.31-78.97,65.79-78.37,65.79"/>
<path class="st0" d="M23.82,25.93c-0.09-0.53-0.58-3.06-1.78-6.16c2.87-0.43,5.39,0.28,5.71,0.37
	C27.34,22.54,25.88,24.61,23.82,25.93 M18.71,27.4c-2.12,0-4.07-0.68-5.63-1.82c0.17-0.32,2.02-3.7,7.19-5.4
	c0.02-0.01,0.04-0.01,0.06-0.02c1.29,3.15,1.82,5.8,1.95,6.55C21.18,27.16,19.97,27.4,18.71,27.4 M9.54,18.76c0-0.09,0-0.18,0-0.26
	c0.4,0.01,4.84,0.06,9.42-1.23c0.26,0.48,0.51,0.98,0.74,1.47c-0.12,0.03-0.24,0.07-0.36,0.1c-4.73,1.44-7.24,5.37-7.45,5.7
	C10.43,23.01,9.54,20.98,9.54,18.76 M14.81,10.94c0.24,0.31,1.88,2.45,3.4,5c-4.29,1.07-8.06,1.06-8.47,1.05
	C10.33,14.31,12.25,12.08,14.81,10.94 M18.71,10.12c2.33,0,4.46,0.82,6.07,2.18c-0.16,0.22-1.54,1.97-4.8,3.12
	c-1.5-2.6-3.17-4.74-3.42-5.06C17.25,10.2,17.97,10.12,18.71,10.12 M25.8,13.3c1.28,1.47,2.05,3.34,2.07,5.38
	c-0.3-0.06-3.33-0.64-6.38-0.28c-0.06-0.15-0.13-0.3-0.2-0.45c-0.19-0.42-0.4-0.84-0.61-1.25C24.07,15.4,25.61,13.54,25.8,13.3
	 M18.71,8.63c-5.92,0-10.73,4.54-10.73,10.12c0,5.58,4.81,10.12,10.73,10.12c5.92,0,10.73-4.54,10.73-10.12
	C29.43,13.17,24.62,8.63,18.71,8.63"/>
</svg>
