<?xml version="1.0" encoding="utf-8"?>
<!-- Generator: Adobe Illustrator 23.0.1, SVG Export Plug-In . SVG Version: 6.00 Build 0)  -->
<svg version="1.1" id="Calque_1" xmlns="http://www.w3.org/2000/svg" xmlns:xlink="http://www.w3.org/1999/xlink" x="0px" y="0px"
	 viewBox="0 0 37.4 37.4" style="enable-background:new 0 0 37.4 37.4;" xml:space="preserve">
<style type="text/css">
	.st0{fill:#808080;}
</style>
<g>
	<path class="st0" d="M11.7,14.4c0-1.4,1.1-2.5,2.6-2.5h8.9c1.4,0,2.6,1.1,2.6,2.5v8.8c0,1.4-1.1,2.5-2.6,2.5h-8.9
		c-1.4,0-2.6-1.1-2.6-2.5C11.7,23.1,11.7,14.4,11.7,14.4z M14.3,27.6h8.9c2.5,0,4.5-2,4.5-4.5v-8.8c0-2.5-2-4.5-4.5-4.5h-8.9
		c-2.5,0-4.5,2-4.5,4.5v8.8C9.8,25.6,11.8,27.6,14.3,27.6"/>
	<path class="st0" d="M18.7,16.1c1.5,0,2.7,1.2,2.7,2.6c0,1.5-1.2,2.6-2.7,2.6c-1.5,0-2.7-1.2-2.7-2.6S17.2,16.1,18.7,16.1
		 M18.7,23.3c2.5,0,4.6-2,4.6-4.6s-2.1-4.6-4.6-4.6s-4.6,2-4.6,4.6S16.1,23.3,18.7,23.3"/>
	<path class="st0" d="M23.4,15.1c0.6,0,1.1-0.5,1.1-1.1c0-0.6-0.5-1.1-1.1-1.1s-1.1,0.5-1.1,1.1C22.4,14.6,22.8,15.1,23.4,15.1"/>
</g>
</svg>
