<?xml version="1.0" encoding="utf-8"?>
<!-- Generator: Adobe Illustrator 23.0.1, SVG Export Plug-In . SVG Version: 6.00 Build 0)  -->
<svg version="1.1" id="Calque_1" xmlns="http://www.w3.org/2000/svg" xmlns:xlink="http://www.w3.org/1999/xlink" x="0px" y="0px"
	 viewBox="0 0 37.4 37.4" style="enable-background:new 0 0 37.4 37.4;" xml:space="preserve">
<style type="text/css">
	.st0{fill:#808080;}
</style>
<path class="st0" d="M16.4,18.1v-0.3c0-1.9,0-3.7,0-5.6c0-0.4,0-0.4,0.4-0.4c1.6,0,3.3,0,4.9,0c0.7,0,1.1,0.3,1.4,0.9
	c0.1,0.3,0.2,0.5,0.3,0.8c0.1,0.5,0.2,0.9,0.4,1.4c0,0.1,0.1,0.2,0.2,0.3c0.3,0,0.5,0,0.8,0c0.1-1.6,0.2-3.2,0.3-4.7
	c-4.6,0.4-9.2,0.2-13.8,0.1c0,0.3,0,0.6,0,0.9c0,0.1,0.1,0.2,0.2,0.2c0.3,0.1,0.7,0.1,1,0.2c0.8,0.2,1,0.4,1.1,1.3
	c0,1.5,0.1,3,0.1,4.5c0,2.4,0,4.8-0.1,7.2c0,0.1,0,0.3,0,0.4c0,0.3-0.2,0.5-0.4,0.6c-0.2,0.1-0.3,0.1-0.5,0.2
	c-0.4,0.1-0.9,0.2-1.3,0.3v1c0.2,0,0.3,0,0.5,0c1.1,0,2.3-0.1,3.4-0.1c3.2,0,6.4,0.1,9.6,0.1c0.4,0,0.4,0,0.5-0.4
	c0.1-1.1,0.3-2.2,0.4-3.3c0-0.4,0.1-0.8,0.1-1.3c-0.2,0-0.3,0-0.5,0c-0.3,0-0.5,0.1-0.6,0.4c-0.3,0.7-0.5,1.3-0.9,2
	c-0.4,0.8-1,1.3-1.9,1.3c-1.5,0-3,0.1-4.4,0c-1,0-1.3-0.5-1.3-1.5c0-1.6,0-3.1,0-4.7c0-0.1,0-0.2,0-0.4c0.1,0,0.1,0,0.1,0
	c1,0,2.1,0,3.1,0.1c0.5,0,1,0.2,1.1,0.8c0.1,0.3,0.1,0.5,0.2,0.8c0.2,0.7,0.2,0.7,0.9,0.7c0.3,0,0.3-0.1,0.3-0.3c0-1.8,0-3.5,0-5.3
	c0-0.1,0-0.3,0-0.5c-0.3,0-0.5,0-0.8,0c-0.2,0-0.3,0.1-0.3,0.2c-0.1,0.4-0.2,0.9-0.3,1.3c-0.1,0.6-0.4,0.8-1,0.8
	c-0.4,0-0.9,0.1-1.3,0.1C17.8,18.1,17.1,18.1,16.4,18.1"/>
</svg>
