<?xml version="1.0" encoding="utf-8"?>
<!-- Generator: Adobe Illustrator 23.0.1, SVG Export Plug-In . SVG Version: 6.00 Build 0)  -->
<svg version="1.1" id="Calque_1" xmlns="http://www.w3.org/2000/svg" xmlns:xlink="http://www.w3.org/1999/xlink" x="0px" y="0px"
	 viewBox="0 0 37.41 37.41" style="enable-background:new 0 0 37.41 37.41;" xml:space="preserve">
<style type="text/css">
	.st0{fill:#808080;}
</style>
<path class="st0" d="M18.69,37.09c-10.11,0-18.34-8.23-18.34-18.34c0-10.11,8.23-18.34,18.34-18.34s18.34,8.23,18.34,18.34
	C37.03,28.86,28.8,37.09,18.69,37.09z M18.69,1.45C9.15,1.45,1.4,9.21,1.4,18.75c0,9.54,7.76,17.29,17.29,17.29
	s17.29-7.76,17.29-17.29C35.98,9.21,28.22,1.45,18.69,1.45z"/>
<path class="st0" d="M-78.37,65.79c0.6,0,1.09-0.48,1.09-1.08c0-0.59-0.49-1.08-1.09-1.08c-0.6,0-1.09,0.48-1.09,1.08
	C-79.46,65.31-78.97,65.79-78.37,65.79"/>
<path class="st0" d="M19.36,20.18h-1.73v-5.04h1.73V20.18z M23.97,20.18h-1.73v-5.04h1.73V20.18z M26.85,21.05l-2.88,2.88h-4.61
	l-2.45,2.45v-2.45h-3.89v-12.1h13.83V21.05z M11.43,10.09l-1.3,3.31v13.54h4.61v2.45h2.59l2.45-2.45h3.75l5.04-5.04V10.09H11.43z"/>
</svg>
