<?xml version="1.0" encoding="utf-8"?>
<!-- Generator: Adobe Illustrator 23.0.1, SVG Export Plug-In . SVG Version: 6.00 Build 0)  -->
<svg version="1.1" id="Calque_1" xmlns="http://www.w3.org/2000/svg" xmlns:xlink="http://www.w3.org/1999/xlink" x="0px" y="0px"
	 viewBox="0 0 37.4 37.4" style="enable-background:new 0 0 37.4 37.4;" xml:space="preserve">
<style type="text/css">
	.st0{fill:#808080;}
</style>
<g>
	<path class="st0" d="M14.8,22.5h-3.4v-3.1h3.6c0,0,1.3,0,1.3,1.6C16.2,22.4,15.3,22.5,14.8,22.5 M14.5,15h0.5c0,0,0.9,0,0.9,1.2
		c0,1.2-0.5,1.4-1.1,1.4h-3.4V15H14.5z M16.5,18.2c0,0,1.9-0.1,1.9-2.2s-1.5-3.1-3.5-3.1h-3.6h-0.1H8.5v11.7h2.7h0.1h3.6
		c0,0,3.9,0.1,3.9-3.4C18.9,21.1,19,18.2,16.5,18.2"/>
	<path class="st0" d="M22,19.1c0,0,0.3-1.8,2.2-1.8s1.9,1.8,1.9,1.8H22z M24.1,15.6c-4.8,0-4.8,4.5-4.8,4.5s-0.3,4.5,4.8,4.5
		c0,0,4.2,0.2,4.2-3.1h-2.2c0,0,0.1,1.3-2,1.3c0,0-2.2,0.1-2.2-2h6.4C28.4,20.7,29.1,15.6,24.1,15.6"/>
	<rect x="21.4" y="13.4" class="st0" width="5.1" height="1.4"/>
</g>
</svg>
