<?xml version="1.0" encoding="utf-8"?>
<!-- Generator: Adobe Illustrator 23.0.1, SVG Export Plug-In . SVG Version: 6.00 Build 0)  -->
<svg version="1.1" id="Calque_1" xmlns="http://www.w3.org/2000/svg" xmlns:xlink="http://www.w3.org/1999/xlink" x="0px" y="0px"
	 viewBox="0 0 37.41 37.41" style="enable-background:new 0 0 37.41 37.41;" xml:space="preserve">
<style type="text/css">
	.st0{fill:#808080;}
</style>
<path class="st0" d="M18.69,37.09c-10.11,0-18.34-8.23-18.34-18.34c0-10.11,8.23-18.34,18.34-18.34s18.34,8.23,18.34,18.34
	C37.03,28.86,28.8,37.09,18.69,37.09z M18.69,1.45C9.15,1.45,1.4,9.21,1.4,18.75c0,9.54,7.76,17.29,17.29,17.29
	s17.29-7.76,17.29-17.29C35.98,9.21,28.22,1.45,18.69,1.45z"/>
<g>
	<path class="st0" d="M11.7,14.36c0-1.4,1.15-2.54,2.56-2.54h8.85c1.41,0,2.56,1.14,2.56,2.54v8.77c0,1.4-1.15,2.54-2.56,2.54h-8.85
		c-1.41,0-2.56-1.14-2.56-2.54V14.36z M14.27,27.59h8.85c2.48,0,4.5-2,4.5-4.46v-8.77c0-2.46-2.02-4.46-4.5-4.46h-8.85
		c-2.48,0-4.5,2-4.5,4.46v8.77C9.76,25.59,11.78,27.59,14.27,27.59"/>
	<path class="st0" d="M18.69,16.12c1.46,0,2.66,1.18,2.66,2.63c0,1.45-1.19,2.63-2.66,2.63c-1.46,0-2.66-1.18-2.66-2.63
		C16.03,17.3,17.23,16.12,18.69,16.12 M18.69,23.31c2.54,0,4.6-2.04,4.6-4.56s-2.06-4.56-4.6-4.56s-4.6,2.04-4.6,4.56
		S16.15,23.31,18.69,23.31"/>
	<path class="st0" d="M23.44,15.13c0.6,0,1.09-0.48,1.09-1.08c0-0.59-0.49-1.08-1.09-1.08c-0.6,0-1.09,0.48-1.09,1.08
		C22.35,14.65,22.84,15.13,23.44,15.13"/>
</g>
</svg>
