<?xml version="1.0" encoding="utf-8"?>
<!-- Generator: Adobe Illustrator 23.0.1, SVG Export Plug-In . SVG Version: 6.00 Build 0)  -->
<svg version="1.1" id="Calque_1" xmlns="http://www.w3.org/2000/svg" xmlns:xlink="http://www.w3.org/1999/xlink" x="0px" y="0px"
	 viewBox="0 0 37.41 37.41" style="enable-background:new 0 0 37.41 37.41;" xml:space="preserve">
<style type="text/css">
	.st0{fill:#808080;}
</style>
<path class="st0" d="M18.69,37.09c-10.11,0-18.34-8.23-18.34-18.34c0-10.11,8.23-18.34,18.34-18.34s18.34,8.23,18.34,18.34
	C37.03,28.86,28.8,37.09,18.69,37.09z M18.69,1.45C9.15,1.45,1.4,9.21,1.4,18.75c0,9.54,7.76,17.29,17.29,17.29
	s17.29-7.76,17.29-17.29C35.98,9.21,28.22,1.45,18.69,1.45z"/>
<g>
	<path class="st0" d="M14.75,22.51h-3.42v-3.12h3.6c0,0,1.3-0.02,1.3,1.6C16.23,22.35,15.26,22.5,14.75,22.51 M14.47,14.99h0.46
		c0,0,0.87,0,0.87,1.21c0,1.21-0.51,1.39-1.1,1.39h-3.37v-2.6H14.47z M16.54,18.24c0,0,1.89-0.13,1.89-2.22c0-2.09-1.54-3.1-3.5-3.1
		h-3.6h-0.11H8.5v11.66h2.73h0.11h3.6c0,0,3.93,0.12,3.93-3.44C18.86,21.14,19.03,18.24,16.54,18.24"/>
	<path class="st0" d="M21.96,19.14c0,0,0.27-1.8,2.18-1.8c1.91,0,1.88,1.8,1.88,1.8H21.96z M24.09,15.64
		c-4.75,0-4.75,4.48-4.75,4.48s-0.33,4.46,4.75,4.46c0,0,4.23,0.23,4.23-3.1h-2.17c0,0,0.07,1.26-1.98,1.26c0,0-2.18,0.14-2.18-2.03
		h6.41C28.39,20.7,29.09,15.64,24.09,15.64"/>
	<rect x="21.43" y="13.36" class="st0" width="5.1" height="1.44"/>
</g>
</svg>
