<?xml version="1.0" encoding="utf-8"?>
<!-- Generator: Adobe Illustrator 23.0.1, SVG Export Plug-In . SVG Version: 6.00 Build 0)  -->
<svg version="1.1" id="Calque_1" xmlns="http://www.w3.org/2000/svg" xmlns:xlink="http://www.w3.org/1999/xlink" x="0px" y="0px"
	 viewBox="0 0 37.41 37.41" style="enable-background:new 0 0 37.41 37.41;" xml:space="preserve">
<style type="text/css">
	.st0{fill:#808080;}
</style>
<path class="st0" d="M18.69,37.13c-10.11,0-18.34-8.23-18.34-18.34c0-10.11,8.23-18.34,18.34-18.34s18.34,8.23,18.34,18.34
	C37.03,28.91,28.8,37.13,18.69,37.13z M18.69,1.5C9.15,1.5,1.4,9.26,1.4,18.79c0,9.54,7.76,17.29,17.29,17.29
	s17.29-7.76,17.29-17.29C35.98,9.26,28.22,1.5,18.69,1.5z"/>
<path class="st0" d="M23.39,19.72l0.47-3.78h-3.59v-2.41c0-1.09,0.29-1.84,1.8-1.84l1.92,0V8.32c-0.33-0.05-1.47-0.15-2.8-0.15
	c-2.77,0-4.66,1.76-4.66,4.99v2.78h-3.13v3.78h3.13v9.69h3.75v-9.69H23.39z"/>
</svg>
