<?xml version="1.0" encoding="utf-8"?>
<!-- Generator: Adobe Illustrator 23.0.1, SVG Export Plug-In . SVG Version: 6.00 Build 0)  -->
<svg version="1.1" id="Calque_1" xmlns="http://www.w3.org/2000/svg" xmlns:xlink="http://www.w3.org/1999/xlink" x="0px" y="0px"
	 viewBox="0 0 37.4 37.4" style="enable-background:new 0 0 37.4 37.4;" xml:space="preserve">
<style type="text/css">
	.st0{fill:#808080;}
</style>
<g>
	<path class="st0" d="M13.2,11.6c1,0,1.7,0.8,1.7,1.7c0,0.9-0.8,1.7-1.7,1.7c-1,0-1.7-0.8-1.7-1.7C11.5,12.3,12.3,11.6,13.2,11.6
		 M11.7,16.3h3v9.5h-3V16.3z"/>
	<path class="st0" d="M16.6,16.3h2.9v1.3h0c0.4-0.8,1.4-1.5,2.8-1.5c3,0,3.6,2,3.6,4.5v5.2h-3v-4.6c0-1.1,0-2.5-1.5-2.5
		c-1.6,0-1.8,1.2-1.8,2.5v4.7h-3L16.6,16.3L16.6,16.3z"/>
</g>
</svg>
