<?xml version="1.0" encoding="utf-8"?>
<!-- Generator: Adobe Illustrator 23.0.1, SVG Export Plug-In . SVG Version: 6.00 Build 0)  -->
<svg version="1.1" id="Calque_1" xmlns="http://www.w3.org/2000/svg" xmlns:xlink="http://www.w3.org/1999/xlink" x="0px" y="0px"
	 viewBox="0 0 159 169" style="enable-background:new 0 0 159 169;" xml:space="preserve">
<style type="text/css">
	.st0{fill:#733BDE;}
	.st1{fill:#FFFFFF;}
</style>
<path class="st0" d="M4.2,56.7C14.3,16.4,55.7-8.1,96.7,2.1c41,10.2,66.1,51.2,56.1,91.6c-8.9,35.6-42.1,58.8-77.9,56.8
	c-5.5,9.3-13.4,11.1-24,15.3c-13.7,5.4-24,2.8-25.2,0.8c-1.2-2,1.5-4.7,11.5-9.3c5-2.3,7.1-8.6,8-14.4C13.3,127.5-4.5,91.9,4.2,56.7
	"/>
<path class="st1" d="M117.4,93.3c0.1-0.4,0.2-1,0.4-1.8c0.2-0.8,0.5-1.7,0.8-2.8c0.3-1.1,0.7-2.2,1.2-3.5c0.6,1.4,1.5,2.6,2.7,3.5
	c-0.8,1.5-1.7,2.7-2.6,3.6c-0.9,0.9-1.7,1.4-2.6,1.5C117.3,93.9,117.3,93.7,117.4,93.3 M121.4,66.4c-0.9,1.1-1.9,2.6-3,4.4
	c-1.1,1.8-2.1,3.8-3.2,6.1c-1.1,2.3-2,4.5-2.7,6.7c-0.7,2.2-1.1,4.2-1.3,6.1c-0.2,1.9,0.1,3.3,0.8,4.3c0.5,0.7,1.2,1.5,1.8,2.2
	c0.7,0.7,1.3,1.4,2,1.9c0.7,0.6,1.4,1,2,1.3c0.7,0.3,1.3,0.4,1.8,0.3c1.1-0.3,2.1-0.7,3-1.2c1-0.6,1.8-1.3,2.6-2.2
	c0.8-0.9,1.5-1.9,2.2-2.9c0.7-1.1,1.3-2.2,1.8-3.4c1.6-0.5,3.3-1.6,5-3.2c1.7-1.6,3.4-4,5.1-7.1l-3.4-2.1c-0.7,1.2-1.4,2.2-2.2,3.1
	c-0.7,0.9-1.5,1.7-2.2,2.4c0.4-1.4,0.7-2.8,0.9-4.1c0.2-1.3,0.4-2.5,0.4-3.6c0.1-1.1,0.1-1.9,0.1-2.7c0-0.7-0.1-1.2-0.3-1.4
	c-0.3-0.5-0.8-0.9-1.2-1.3c-0.5-0.4-0.9-0.7-1.4-0.9c-0.4-0.2-0.8-0.4-1.1-0.4c-0.3,0-0.4,0-0.4,0.3c0,0.8-0.1,1.9-0.4,3.2
	c-0.3,1.3-0.6,2.8-1.1,4.4c-0.4,1.6-1,3.2-1.6,4.9c-0.6,1.7-1.2,3.3-2,4.8c-1-0.5-1.6-1.4-1.8-2.9c-0.2-1.5,0.2-3.5,1.1-6
	c0.8-1.6,1.6-3.2,2.5-4.7c0.8-1.5,1.7-2.8,2.7-3.8c0.2-0.2,0.1-0.4-0.2-0.8c-0.3-0.4-0.7-0.7-1.2-1.1c-0.5-0.4-1.1-0.7-1.7-1.1
	c-0.7-0.3-1.3-0.6-1.8-0.8C123,64.8,122.4,65.3,121.4,66.4 M119.9,55.5c-0.7,1.5-1.5,3.2-2.4,5.1c-0.9,1.9-2,3.9-3.1,5.9
	c-1.1,2.1-2.2,4-3.3,5.9c-1.1,1.9-2.1,3.6-3.1,5.1c-1,1.5-1.7,2.6-2.4,3.4c0.9-2.9,2.1-5.9,3.5-9c1.4-3.1,2.8-6.1,4.3-8.8
	c1.5-2.7,2.9-5.1,4.3-7.1c1.4-2,2.5-3.3,3.5-3.9C121,52.9,120.6,54,119.9,55.5 M117.2,46.5c-1,0.9-2.1,2.1-3.3,3.7
	c-1.2,1.6-2.4,3.4-3.6,5.5c-1.2,2.1-2.4,4.3-3.6,6.6c-1.2,2.3-2.3,4.7-3.4,7.1c-1.1,2.4-2,4.8-2.9,7c-0.8,2.2-1.5,4.3-2.1,6.3
	c-0.5,1.9-0.9,3.6-1,4.9c-0.1,1.7,0,3.3,0.3,4.8c0.3,1.5,0.9,2.8,1.6,3.9c0.7,1.1,1.6,2,2.7,2.6c1.1,0.6,2.2,0.9,3.5,0.8
	c0.3,0,0.8-0.5,1.6-1.4c0.8-0.9,1.6-2.1,2.6-3.4c1-1.4,2-2.8,3-4.4c1-1.6,2-3.1,2.9-4.5c0.9-1.4,1.7-2.6,2.3-3.6
	c0.6-1,0.9-1.6,1-1.7c0-0.2-0.1-0.4-0.3-0.6s-0.6-0.4-1-0.5c-0.4-0.1-0.8-0.3-1.2-0.4c-0.4-0.1-0.6-0.2-0.7-0.2
	c-0.1,0-0.3,0.2-0.6,0.7c-0.3,0.4-0.7,1-1.2,1.7c-0.5,0.7-1,1.6-1.7,2.5c-0.6,0.9-1.2,1.9-1.9,2.8c-1.5,2.3-3.1,4.8-4.9,7.7
	c-0.7-0.3-1.1-0.9-1.4-1.8c-0.3-0.9-0.3-1.9-0.3-3.2c0.7-1.1,1.7-2.5,2.8-4.2c1.2-1.7,2.4-3.6,3.8-5.7c1.4-2.1,2.8-4.3,4.3-6.7
	c1.5-2.3,2.9-4.7,4.2-7.1c1.3-2.4,2.5-4.8,3.6-7.1c1.1-2.4,1.9-4.5,2.6-6.6c0.1-0.5,0.1-1.1,0-1.8s-0.4-1.5-0.8-2.2
	c-0.4-0.7-1-1.4-1.7-1.9s-1.5-0.9-2.5-0.9C119.2,45.1,118.2,45.6,117.2,46.5 M104.5,55.5c-0.7,1.5-1.5,3.2-2.4,5.1
	c-0.9,1.9-2,3.9-3.1,5.9c-1.1,2.1-2.2,4-3.3,5.9c-1.1,1.9-2.1,3.6-3.1,5.1c-1,1.5-1.7,2.6-2.4,3.4c0.9-2.9,2.1-5.9,3.5-9
	c1.4-3.1,2.8-6.1,4.3-8.8c1.5-2.7,2.9-5.1,4.3-7.1c1.4-2,2.5-3.3,3.5-3.9C105.6,52.9,105.2,54,104.5,55.5 M101.8,46.5
	c-1,0.9-2.1,2.1-3.3,3.7c-1.2,1.6-2.4,3.4-3.6,5.5c-1.2,2.1-2.4,4.3-3.6,6.6c-1.2,2.3-2.3,4.7-3.4,7.1c-1.1,2.4-2,4.8-2.9,7
	c-0.8,2.2-1.5,4.3-2.1,6.3c-0.5,1.9-0.9,3.6-1,4.9c-0.1,1.7,0,3.3,0.3,4.8c0.3,1.5,0.9,2.8,1.6,3.9c0.7,1.1,1.6,2,2.7,2.6
	c1.1,0.6,2.2,0.9,3.5,0.8c0.3,0,0.8-0.5,1.6-1.4c0.8-0.9,1.6-2.1,2.6-3.4c1-1.4,2-2.8,3-4.4c1-1.6,2-3.1,2.9-4.5
	c0.9-1.4,1.7-2.6,2.3-3.6c0.6-1,0.9-1.6,1-1.7c0-0.2-0.1-0.4-0.3-0.6c-0.3-0.2-0.6-0.4-1-0.5c-0.4-0.1-0.8-0.3-1.2-0.4
	c-0.4-0.1-0.6-0.2-0.7-0.2c-0.1,0-0.3,0.2-0.6,0.7c-0.3,0.4-0.7,1-1.2,1.7c-0.5,0.7-1,1.6-1.6,2.5c-0.6,0.9-1.2,1.9-1.9,2.8
	c-1.5,2.3-3.1,4.8-4.9,7.7c-0.7-0.3-1.1-0.9-1.4-1.8c-0.3-0.9-0.3-1.9-0.3-3.2c0.7-1.1,1.7-2.5,2.8-4.2c1.2-1.7,2.4-3.6,3.8-5.7
	c1.4-2.1,2.8-4.3,4.3-6.7c1.5-2.3,2.9-4.7,4.2-7.1c1.3-2.4,2.5-4.8,3.6-7.1c1.1-2.4,1.9-4.5,2.6-6.6c0.1-0.5,0.1-1.1,0-1.8
	c-0.1-0.7-0.4-1.5-0.8-2.2c-0.4-0.7-1-1.4-1.7-1.9c-0.7-0.5-1.5-0.9-2.5-0.9C103.7,45.1,102.8,45.6,101.8,46.5 M79.8,73.2
	c-0.7,1.6-1.6,3.2-2.7,4.7c-1,1.6-2.2,3.1-3.4,4.6c-1.2,1.5-2.3,2.7-3.3,3.7c0.5-2,1.3-4,2.2-6c0.9-2,1.9-3.9,2.9-5.6
	c1-1.7,2-3,2.9-4.1c1-1.1,1.8-1.6,2.5-1.7C81,70.2,80.6,71.6,79.8,73.2 M72.4,68.3c-1.9,2-3.6,4.2-5,6.7c-1.5,2.5-2.6,5.2-3.5,7.9
	c-0.8,2.8-1.2,5.3-1.1,7.6c0,1,0.2,2,0.4,3c0.2,1.1,0.5,2.1,0.9,3c0.4,0.9,0.8,1.7,1.4,2.4c0.5,0.7,1.2,1.1,1.9,1.2
	c1,0.2,2.1,0.1,3.2-0.4c1.1-0.5,2.3-1.2,3.5-2.1c1.2-0.9,2.4-2,3.5-3.2c1.2-1.2,2.3-2.5,3.3-3.8c2.5-3.1,5-6.6,7.4-10.6l-3.2-2.1
	c-0.9,1.4-1.9,2.8-2.9,4.3c-1,1.4-2.1,2.8-3.1,4.1c-1,1.3-2,2.6-3,3.7c-1,1.2-1.9,2.2-2.7,3c-0.8,0.8-1.5,1.5-2.1,1.9
	c-0.6,0.4-1,0.6-1.2,0.4c-0.4-0.7-0.6-1.6-0.7-2.7c0-1.1,0.1-2.3,0.3-3.6c1-0.6,2.3-1.5,3.8-2.6c1.5-1.2,3.1-2.5,4.6-4
	c1.5-1.5,2.9-3,4.2-4.7c1.3-1.6,2.2-3.2,2.7-4.7c0.3-0.9,0.2-1.9-0.2-3c-0.4-1.1-1-2.2-1.7-3.2c-0.7-1-1.6-1.7-2.5-2.3
	c-0.9-0.6-1.8-0.7-2.5-0.4C76.2,65,74.3,66.3,72.4,68.3 M35.6,67.6c-0.9,0.3-1.7,0.6-2.6,1c-0.9,0.4-1.6,0.9-2.3,1.3
	c-0.6,0.5-0.8,0.9-0.5,1.2c0.1,0.2,0.6,0.5,1.7,1c1,0.5,2.3,1.1,3.8,2c-2.1,4.7-3.9,9.4-5.4,13.9c-1.5,4.5-2.4,8.6-2.8,12.3
	c0,0.2,0.3,0.5,0.9,1c0.7,0.4,1.4,0.9,2.2,1.3c0.9,0.5,2,1,3.2,1.6c0.8-3.7,2-7.6,3.4-11.9c1.4-4.2,3.1-8.7,5-13.3
	c1.6,1.6,2.8,3.4,3.7,5.6c0.9,2.1,1.2,4.6,0.8,7.3c0,0.1-0.1,0.2-0.1,0.2c-0.5,1.6-0.9,3.2-1.2,4.6c-0.3,1.5-0.5,2.8-0.7,4.2
	c0,0.2,0.3,0.6,1,1c0.7,0.4,1.5,0.8,2.4,1.2c1,0.5,2.2,1,3.5,1.5c0.5-2.3,1.3-4.9,2.3-7.8c1-2.9,2.2-6,3.5-9.3
	c1.3-3.3,2.7-6.7,4.3-10.2c1.5-3.5,3.2-7.1,4.9-10.5c1.7-3.5,3.5-6.9,5.2-10.2c1.8-3.3,3.6-6.5,5.3-9.4c0.1-0.2-0.2-0.4-1-0.8
	c-0.8-0.4-1.8-0.7-2.8-1.1c-1.1-0.4-2.5-0.9-4.3-1.4c-1.5,2.7-3.2,5.6-4.9,8.8c-1.7,3.2-3.5,6.5-5.2,9.9c-1.7,3.4-3.4,6.8-5,10.3
	c-1.6,3.5-3.1,6.9-4.4,10.2c-0.5-1.3-1.2-2.8-2.2-4.4c-1-1.6-2.1-3.2-3.3-4.6c1.5-3.3,3.1-6.7,4.8-10c1.7-3.3,3.5-6.7,5.5-10
	c0.3-0.4,0.5-0.9,0.8-1.3c0.3-0.5,0.5-0.9,0.8-1.4c0.2-0.5,0.4-0.9,0.6-1.3c0.1-0.4,0.2-0.7,0.2-1c0-0.4-0.2-1.1-0.5-2
	C55.9,46,55.5,45,55,44.1c-0.5-0.9-1-1.7-1.5-2.4c-0.5-0.7-0.9-1.1-1.2-1.1c-0.4,0-1.1,0.2-2.2,0.6c-1.1,0.4-2.3,0.9-3.8,1.7
	c-1.5,0.7-3.1,1.6-4.8,2.5c-1.7,1-3.3,2.1-4.9,3.2c-1.6,1.2-3.1,2.4-4.5,3.7c-1.4,1.3-2.4,2.6-3.2,4c-0.1,0.2-0.1,0.7,0.2,1.5
	c0.3,0.8,0.6,1.7,1,2.6c0.5,1.1,1,2.2,1.7,3.5c1.1-1.2,2.2-2.5,3.2-3.7c1-1.2,2.1-2.5,3.3-3.7c1.2-1.2,2.6-2.5,4.1-3.7
	c1.5-1.2,3.4-2.4,5.7-3.7c-1.6,2.9-3.2,5.9-4.9,9.1c-1.7,3.2-3.3,6.4-4.9,9.7c-0.2-0.2-0.4-0.4-0.6-0.4c-0.2-0.1-0.4-0.2-0.5-0.2
	C37,67.2,36.5,67.4,35.6,67.6"/>
<path class="st1" d="M113.3,108.2c0.1,0,0.3,0.1,0.5,0.3c0.2,0.1,0.4,0.3,0.6,0.5c0.2,0.2,0.5,0.5,0.7,0.7
	c-5.8-0.2-11.4-0.1-16.9,0.3c-5.5,0.4-10.6,1-15.6,1.8c-4.9,0.8-9.6,1.7-13.9,2.8c-4.3,1.1-8.2,2.1-11.7,3.3
	c-3.5,1.1-6.5,2.1-9.1,3.1c-2.6,1-4.6,1.8-6,2.4c0-1.2,0-2.3,0-3.2c0-0.8,0.1-1.6,0.2-2.3c0.1-0.7,0.2-1.1,0.4-1.1
	c5.8-1.5,11.7-2.9,17.9-4.1c6.2-1.2,12.4-2.2,18.6-3c6.2-0.8,12.2-1.3,18-1.6C102.9,108,108.3,108,113.3,108.2"/>
</svg>
