<?xml version="1.0" encoding="utf-8"?>
<!-- Generator: Adobe Illustrator 23.0.1, SVG Export Plug-In . SVG Version: 6.00 Build 0)  -->
<svg version="1.1" id="Calque_1" xmlns="http://www.w3.org/2000/svg" xmlns:xlink="http://www.w3.org/1999/xlink" x="0px" y="0px"
	 viewBox="0 0 1208 762" style="enable-background:new 0 0 1208 762;" xml:space="preserve">
<style type="text/css">
	.st0{fill:#703FD4;}
</style>
<path class="st0" d="M24.3,709.6l197.2-197.2l38.1,38.1L62.5,747.8L24.3,709.6z M448.2,709.6l197.2-197.2l38.1,38.1L486.3,747.8
	L448.2,709.6z M385.4,173.5L543.3,15.4L573.8,46L415.9,204.1L385.4,173.5z M896.7,384L1054.7,226l29.4,29.4L926.2,413.4L896.7,384z
	 M1057.6,339.7l107.4-107.2l20.1,20l-107.4,107.2L1057.6,339.7z M71.5,306.8l125.9-125.9l23.5,23.5L94.9,330.2L71.5,306.8z"/>
</svg>
